<svg width="146" height="34" viewBox="0 0 146 34" fill="none" xmlns="http://www.w3.org/2000/svg">
<path d="M7.45157 33.4692L0 9.03711L6.00642 9.08227L10.4322 23.6241L14.9257 9.08227H20.0289L24.5224 23.6241L28.9482 9.08227H34.9546L27.5031 33.4692H22.8063L17.4773 17.5725L12.1483 33.4692H7.45157Z" fill="#2C2E33"/>
<path d="M48.0135 33.4703C45.5146 33.4703 43.3092 32.9359 41.3974 31.8671C39.5006 30.7832 38.0103 29.3004 36.9265 27.4187C35.8576 25.522 35.3232 23.3542 35.3232 20.9155C35.3232 18.251 35.8501 15.9328 36.9039 13.9607C37.9576 11.9887 39.4103 10.4608 41.2619 9.37689C43.1135 8.27797 45.2436 7.72852 47.6522 7.72852C50.2113 7.72852 52.3866 8.33066 54.178 9.53496C55.9694 10.7392 57.2941 12.4328 58.1521 14.6156C59.0102 16.7984 59.3113 19.365 59.0554 22.3155H52.9812V20.0575C52.9812 17.5736 52.5823 15.7898 51.7844 14.7059C51.0016 13.607 49.7146 13.0575 47.9232 13.0575C45.8307 13.0575 44.2877 13.6973 43.2942 14.9769C42.3157 16.2414 41.8264 18.1156 41.8264 20.5994C41.8264 22.8725 42.3157 24.6338 43.2942 25.8833C44.2877 27.1177 45.7404 27.7349 47.6522 27.7349C48.8565 27.7349 49.8877 27.4714 50.7457 26.9445C51.6038 26.4177 52.2586 25.6574 52.7102 24.6639L58.8521 26.4252C57.9339 28.6531 56.4812 30.3843 54.4941 31.6187C52.5221 32.8531 50.3619 33.4703 48.0135 33.4703ZM39.9297 22.3155V17.7543H56.0973V22.3155H39.9297Z" fill="#5D56F1"/>
<path d="M98.9328 33.4688C96.5091 33.4688 94.4844 32.9042 92.8586 31.7752C91.2328 30.6462 90.0059 29.1107 89.178 27.1688C88.3651 25.2269 87.9586 23.0366 87.9586 20.5979C87.9586 18.1592 88.3651 15.9689 89.178 14.0269C89.9909 12.085 91.1876 10.5495 92.7683 9.4205C94.3489 8.29147 96.2984 7.72696 98.6166 7.72696C100.95 7.72696 102.982 8.28395 104.713 9.39792C106.445 10.5119 107.784 12.0398 108.733 13.9818C109.696 15.9086 110.178 18.114 110.178 20.5979C110.178 23.0366 109.704 25.2269 108.755 27.1688C107.822 29.1107 106.512 30.6462 104.826 31.7752C103.14 32.9042 101.176 33.4688 98.9328 33.4688ZM86.9199 32.7913V0.275391H93.107V16.0818H92.3392V32.7913H86.9199ZM97.9392 28.0043C99.2639 28.0043 100.348 27.6731 101.191 27.0107C102.034 26.3484 102.659 25.4602 103.065 24.3462C103.471 23.2172 103.675 21.9677 103.675 20.5979C103.675 19.243 103.464 18.0086 103.042 16.8947C102.621 15.7656 101.966 14.8699 101.078 14.2076C100.205 13.5302 99.0833 13.1914 97.7134 13.1914C96.4338 13.1914 95.3951 13.5 94.5973 14.1172C93.8145 14.7344 93.2425 15.6 92.8812 16.714C92.5199 17.828 92.3392 19.1226 92.3392 20.5979C92.3392 22.0731 92.5199 23.3677 92.8812 24.4817C93.2425 25.5957 93.8296 26.4613 94.6425 27.0785C95.4704 27.6957 96.5693 28.0043 97.9392 28.0043Z" fill="#2C2E33"/>
<path d="M113.293 5.69471V0.275391H119.435V5.69471H113.293ZM113.293 33.4688V9.08179H119.435V33.4688H113.293Z" fill="#2C2E33"/>
<path d="M121.117 33.469L129.833 21.14L121.297 9.08203H128.523L133.401 16.3078L138.188 9.08203H145.413L136.878 21.14L145.639 33.469H138.413L133.401 25.9723L128.342 33.469H121.117Z" fill="#2C2E33"/>
<path d="M71.7487 33.4703C74.2476 33.4703 76.453 32.9359 78.3648 31.8671C80.2616 30.7832 81.7519 29.3004 82.8357 27.4187C83.9046 25.522 84.439 23.3542 84.439 20.9155C84.439 18.251 83.9121 15.9328 82.8583 13.9607C81.8046 11.9887 80.3519 10.4608 78.5003 9.37689C76.6487 8.27797 74.5186 7.72852 72.11 7.72852C69.5509 7.72852 67.3756 8.33066 65.5842 9.53496C63.7928 10.7392 62.4681 12.4328 61.6101 14.6156C60.752 16.7984 60.4509 19.365 60.7068 22.3155H66.781V20.0575C66.781 17.5736 67.1799 15.7898 67.9778 14.7059C68.7606 13.607 70.0476 13.0575 71.839 13.0575C73.9315 13.0575 75.4745 13.6973 76.468 14.9769C77.4465 16.2414 77.9358 18.1156 77.9358 20.5994C77.9358 22.8725 77.4465 24.6338 76.468 25.8833C75.4745 27.1177 74.0218 27.7349 72.11 27.7349C70.9057 27.7349 69.8745 27.4714 69.0165 26.9445C68.1584 26.4177 67.5036 25.6574 67.052 24.6639L60.9101 26.4252C61.8283 28.6531 63.281 30.3843 65.2681 31.6187C67.2401 32.8531 69.4003 33.4703 71.7487 33.4703ZM79.8325 22.3155V17.7543H63.6649V22.3155H79.8325Z" fill="#5D56F1"/>
</svg>
