<svg width="52" height="61" viewBox="0 0 52 61" fill="none" xmlns="http://www.w3.org/2000/svg">
<path d="M35.5955 34.561C35.5955 37.9737 38.3719 40.75 41.7846 40.75C45.1973 40.75 47.9736 37.9737 47.9736 34.561C47.9736 31.1483 45.1973 28.372 41.7846 28.372C38.3719 28.372 35.5955 31.1483 35.5955 34.561ZM46.0997 34.561C46.0997 36.94 44.1636 38.8761 41.7846 38.8761C39.4055 38.8761 37.4695 36.94 37.4695 34.561C37.4695 32.1819 39.4055 30.2459 41.7846 30.2459C44.1636 30.2459 46.0997 32.1808 46.0997 34.561ZM10.8593 40.75C14.272 40.75 17.0484 37.9737 17.0484 34.561C17.0484 31.1483 14.272 28.372 10.8593 28.372C7.44899 28.372 4.67383 31.1483 4.67383 34.561C4.67383 37.9737 7.44899 40.75 10.8593 40.75ZM10.8593 30.2447C13.2384 30.2447 15.1744 32.1808 15.1744 34.5598C15.1744 36.9389 13.2384 38.8749 10.8593 38.8749C8.48147 38.8749 6.54776 36.9389 6.54776 34.5598C6.54776 32.1808 8.48147 30.2447 10.8593 30.2447ZM26.3231 30.9959C22.9104 30.9959 20.1341 33.7723 20.1341 37.185C20.1341 40.5953 22.9104 43.3705 26.3231 43.3705C29.7358 43.3705 32.5122 40.5953 32.5122 37.185C32.5122 33.7723 29.7358 30.9959 26.3231 30.9959ZM26.3231 41.4965C23.9441 41.4965 22.008 39.5617 22.008 37.185C22.008 34.8059 23.9441 32.8699 26.3231 32.8699C28.7022 32.8699 30.6382 34.8059 30.6382 37.185C30.6394 39.5628 28.7033 41.4965 26.3231 41.4965ZM15.8518 17.7588L20.488 21.1141C20.5126 21.1329 20.5138 21.1411 20.5068 21.1633L18.7278 26.6035C18.4629 27.3969 18.7407 28.2606 19.4145 28.7481C19.752 28.9954 20.147 29.1197 20.5431 29.1197C20.9381 29.1197 21.333 28.9966 21.6693 28.7505L26.302 25.3741C26.3208 25.3601 26.3243 25.3601 26.3454 25.3753L30.9757 28.7528C31.652 29.2427 32.5579 29.2415 33.2235 28.7528C33.8986 28.2641 34.1787 27.4039 33.9197 26.6094L32.1407 21.168C32.1325 21.1422 32.1336 21.1329 32.1535 21.1188L36.7944 17.76C37.4671 17.2725 37.7484 16.4135 37.4917 15.6189C37.2351 14.829 36.5026 14.2969 35.6682 14.2969L29.9433 14.3098C29.9187 14.3098 29.9081 14.3028 29.9011 14.2817L28.1432 8.82981C27.8877 8.0364 27.1552 7.50317 26.322 7.50317C25.4887 7.50317 24.7562 8.0364 24.5008 8.82981L22.7405 14.2793C22.7311 14.3086 22.7206 14.3098 22.703 14.3098L16.9699 14.2969C16.1378 14.2969 15.4065 14.8278 15.1487 15.62C14.8943 16.4146 15.1768 17.276 15.8518 17.7588ZM16.9324 16.1966C16.9382 16.1767 16.9452 16.1697 16.9699 16.1697L22.703 16.1826C23.5351 16.1826 24.2664 15.6505 24.5242 14.8559L26.2845 9.40406C26.2927 9.37945 26.2973 9.37593 26.3231 9.37593C26.3489 9.37593 26.3536 9.37945 26.3618 9.40406L28.1197 14.8583C28.3775 15.6505 29.1112 16.1826 29.9468 16.1826L35.6717 16.1697C35.6987 16.1697 35.7034 16.1755 35.7104 16.1943C35.7198 16.2248 35.7139 16.2283 35.6975 16.2412L31.0519 19.6035C30.3722 20.1016 30.1003 20.9418 30.3605 21.747L32.1407 27.1906C32.1489 27.2152 32.1442 27.2223 32.1219 27.2387C32.1078 27.2492 32.102 27.2539 32.0785 27.2375L27.4529 23.8635C27.1154 23.6162 26.7192 23.492 26.3231 23.492C25.9282 23.492 25.5332 23.615 25.1969 23.8623L20.5654 27.2387C20.5443 27.2539 20.5372 27.2504 20.5185 27.2363C20.4997 27.2223 20.4997 27.2176 20.5079 27.193L22.2893 21.7446C22.5483 20.943 22.2752 20.1039 21.592 19.6023L16.9464 16.2388C16.9288 16.2259 16.9242 16.2224 16.9324 16.1966ZM25.3867 4.67175V0.957867C25.3867 0.439868 25.8063 0.0214844 26.3231 0.0214844C26.84 0.0214844 27.2595 0.44104 27.2595 0.957867V4.67175C27.2595 5.18975 26.84 5.60814 26.3231 5.60814C25.8063 5.60814 25.3867 5.18975 25.3867 4.67175ZM32.3329 6.03121L34.1904 2.8154C34.4494 2.36771 35.0225 2.21419 35.4701 2.47202C35.9178 2.73102 36.0714 3.3041 35.8124 3.75178L33.9548 6.96759C33.7814 7.26761 33.4661 7.43637 33.1427 7.43637C32.9833 7.43637 32.8227 7.39535 32.6751 7.31097C32.2274 7.05197 32.0739 6.47889 32.3329 6.03121ZM37.3253 11.9612C37.0663 11.5136 37.2199 10.9405 37.6675 10.6815L40.8834 8.82395C41.331 8.56495 41.9041 8.71847 42.1631 9.16616C42.4221 9.61384 42.2686 10.1869 41.8209 10.4459L38.6051 12.3034C38.4574 12.389 38.2969 12.4288 38.1375 12.4288C37.814 12.4288 37.4988 12.2613 37.3253 11.9612ZM16.8351 3.75178C16.5761 3.3041 16.7296 2.73102 17.1773 2.47202C17.625 2.21302 18.198 2.36654 18.457 2.8154L20.3146 6.03121C20.5736 6.47889 20.4201 7.05197 19.9724 7.31097C19.8247 7.39652 19.6642 7.43637 19.5048 7.43637C19.1813 7.43637 18.8661 7.26878 18.6926 6.96759L16.8351 3.75178ZM10.4831 9.16616C10.7421 8.71847 11.3152 8.56495 11.7629 8.82395L14.9787 10.6815C15.4264 10.9405 15.5799 11.5136 15.3209 11.9612C15.1475 12.2613 14.8322 12.43 14.5088 12.43C14.3494 12.43 14.1888 12.389 14.0412 12.3046L10.8254 10.4471C10.3777 10.1881 10.2242 9.61501 10.4831 9.16616Z" fill="#15161B"/>
<path d="M43.1931 41.4873H40.3793C37.2666 41.4873 34.4246 43.1257 32.839 45.7485C31.3975 44.7184 29.6349 44.1089 27.7317 44.1089H24.9155C23.0111 44.1089 21.2485 44.7184 19.8058 45.7497C18.2213 43.1269 15.3794 41.4873 12.2679 41.4873H9.45403C4.59632 41.4873 0.644531 45.4379 0.644531 50.2945V55.1076C0.644531 56.3722 1.67233 57.3999 2.93685 57.3999H16.1083V57.7293C16.1083 58.9938 17.1361 60.0216 18.4006 60.0216H34.2465C35.511 60.0216 36.5388 58.9938 36.5388 57.7293V57.3999H49.7079C50.9725 57.3999 52.0002 56.3722 52.0002 55.1076V50.2945C51.9991 45.4379 48.0485 41.4873 43.1931 41.4873ZM43.1931 43.3612C43.472 43.3612 43.7451 43.38 44.0158 43.4116L41.7868 47.2697L39.5577 43.4105C39.8284 43.3776 40.1027 43.3612 40.3804 43.3612H43.1931ZM27.7317 45.9817C28.0094 45.9817 28.2825 46.0005 28.5508 46.0321L26.3218 49.8937L24.0928 46.0333C24.3623 46.0016 24.6365 45.9829 24.9155 45.9829H27.7317V45.9817ZM12.2679 43.3612C12.5456 43.3612 12.8198 43.3788 13.0906 43.4105L10.8615 47.2685L8.63249 43.4105C8.90204 43.3788 9.17628 43.3601 9.4552 43.3601H12.2679V43.3612ZM2.93685 55.526C2.70949 55.526 2.51847 55.335 2.51847 55.1076V50.2945C2.51847 47.4279 4.26818 44.9621 6.75504 43.9085L9.58294 48.8026C9.85014 49.2667 10.3283 49.5432 10.8592 49.5432C11.3924 49.5432 11.8717 49.2667 12.1389 48.8026L14.9657 43.9097C16.4025 44.5191 17.6131 45.6079 18.376 47.0247C16.9674 48.5869 16.1083 50.6542 16.1083 52.9184V55.526H2.93685ZM34.6649 57.7281C34.6649 57.9554 34.4727 58.1465 34.2465 58.1465H18.4006C18.1698 58.1465 17.9823 57.959 17.9823 57.7281V52.9173C17.9823 50.9648 18.7944 49.1987 20.0964 47.9377C20.1351 47.906 20.1714 47.8721 20.2043 47.8345C20.7902 47.2908 21.4688 46.8454 22.2153 46.529L25.0432 51.4254C25.3092 51.8871 25.7886 52.1637 26.323 52.1637C26.8621 52.1637 27.3391 51.886 27.6016 51.4219L30.4283 46.5278C31.1678 46.8407 31.8405 47.2802 32.4229 47.8158C32.4651 47.865 32.512 47.9107 32.5647 47.9517C33.8586 49.2128 34.6649 50.973 34.6649 52.9184V57.7281ZM50.1263 55.1076C50.1263 55.335 49.9341 55.526 49.7079 55.526H36.5388V52.9184C36.5388 50.6531 35.6786 48.5846 34.2687 47.0212C35.0317 45.6055 36.2435 44.5179 37.6803 43.9085L40.5047 48.7979C40.7683 49.2643 41.2453 49.5432 41.7832 49.5432C42.3165 49.5432 42.7958 49.2667 43.063 48.8026L45.8909 43.9085C48.3766 44.9633 50.1251 47.4291 50.1251 50.2945V55.1076H50.1263Z" fill="#5D56F1"/>
</svg>
