<svg width="49" height="51" viewBox="0 0 49 51" fill="none" xmlns="http://www.w3.org/2000/svg">
<path d="M42.5143 4.44155H38.9429C38.9429 2.4725 37.3405 0.870117 35.3715 0.870117C33.4024 0.870117 31.8 2.4725 31.8 4.44155H17.5143C17.5143 2.4725 15.9119 0.870117 13.9429 0.870117C11.9738 0.870117 10.3715 2.4725 10.3715 4.44155H6.80004C3.51789 4.44155 0.847656 7.11178 0.847656 10.3939V44.9177C0.847656 48.1999 3.51789 50.8701 6.80004 50.8701H42.5143C45.7965 50.8701 48.4667 48.1999 48.4667 44.9177V10.3939C48.4667 7.11178 45.7965 4.44155 42.5143 4.44155ZM34.181 4.44155C34.181 3.78559 34.7143 3.25107 35.3715 3.25107C36.0286 3.25107 36.5619 3.78559 36.5619 4.44155V6.8225C36.5619 7.47845 36.0286 8.01297 35.3715 8.01297C34.7143 8.01297 34.181 7.47845 34.181 6.8225V4.44155ZM12.7524 4.44155C12.7524 3.78559 13.2858 3.25107 13.9429 3.25107C14.6 3.25107 15.1334 3.78559 15.1334 4.44155V6.8225C15.1334 7.47845 14.6 8.01297 13.9429 8.01297C13.2858 8.01297 12.7524 7.47845 12.7524 6.8225V4.44155ZM3.22861 10.3939C3.22861 8.42488 4.83099 6.8225 6.80004 6.8225H10.3715C10.3715 8.79155 11.9738 10.3939 13.9429 10.3939C15.9119 10.3939 17.5143 8.79155 17.5143 6.8225H31.8C31.8 8.79155 33.4024 10.3939 35.3715 10.3939C37.3405 10.3939 38.9429 8.79155 38.9429 6.8225H42.5143C44.4834 6.8225 46.0858 8.42488 46.0858 10.3939V15.1558H3.22861V10.3939ZM46.0858 44.9177C46.0858 46.8868 44.4834 48.4892 42.5143 48.4892H6.80004C4.83099 48.4892 3.22861 46.8868 3.22861 44.9177V17.5368H46.0858V44.9177Z" fill="#5D56F1"/>
<path d="M10.3731 30.6312H13.9446C15.2577 30.6312 16.3255 29.5633 16.3255 28.2502V24.6788C16.3255 23.3657 15.2577 22.2979 13.9446 22.2979H10.3731C9.06004 22.2979 7.99219 23.3657 7.99219 24.6788V28.2502C7.99219 29.5633 9.06004 30.6312 10.3731 30.6312ZM10.3731 24.6788H13.9446L13.9469 28.2502H10.3731V24.6788Z" fill="#15161B"/>
<path d="M22.8731 30.6312H26.4446C27.7577 30.6312 28.8255 29.5633 28.8255 28.2502V24.6788C28.8255 23.3657 27.7577 22.2979 26.4446 22.2979H22.8731C21.56 22.2979 20.4922 23.3657 20.4922 24.6788V28.2502C20.4922 29.5633 21.56 30.6312 22.8731 30.6312ZM22.8731 24.6788H26.4446L26.447 28.2502H22.8731V24.6788Z" fill="#15161B"/>
<path d="M35.3731 30.6312H38.9446C40.2577 30.6312 41.3255 29.5633 41.3255 28.2502V24.6788C41.3255 23.3657 40.2577 22.2979 38.9446 22.2979H35.3731C34.06 22.2979 32.9922 23.3657 32.9922 24.6788V28.2502C32.9922 29.5633 34.06 30.6312 35.3731 30.6312ZM35.3731 24.6788H38.9446L38.9469 28.2502H35.3731V24.6788Z" fill="#15161B"/>
<path d="M10.3731 43.7269H13.9446C15.2577 43.7269 16.3255 42.659 16.3255 41.3459V37.7745C16.3255 36.4614 15.2577 35.3936 13.9446 35.3936H10.3731C9.06004 35.3936 7.99219 36.4614 7.99219 37.7745V41.3459C7.99219 42.659 9.06004 43.7269 10.3731 43.7269ZM10.3731 37.7745H13.9446L13.9469 41.3459H10.3731V37.7745Z" fill="#15161B"/>
<path d="M22.8731 43.7269H26.4446C27.7577 43.7269 28.8255 42.659 28.8255 41.3459V37.7745C28.8255 36.4614 27.7577 35.3936 26.4446 35.3936H22.8731C21.56 35.3936 20.4922 36.4614 20.4922 37.7745V41.3459C20.4922 42.659 21.56 43.7269 22.8731 43.7269ZM22.8731 37.7745H26.4446L26.447 41.3459H22.8731V37.7745Z" fill="#15161B"/>
<path d="M35.3731 43.7269H38.9446C40.2577 43.7269 41.3255 42.659 41.3255 41.3459V37.7745C41.3255 36.4614 40.2577 35.3936 38.9446 35.3936H35.3731C34.06 35.3936 32.9922 36.4614 32.9922 37.7745V41.3459C32.9922 42.659 34.06 43.7269 35.3731 43.7269ZM35.3731 37.7745H38.9446L38.9469 41.3459H35.3731V37.7745Z" fill="#15161B"/>
</svg>
