<svg width="62" height="62" viewBox="0 0 62 62" fill="none" xmlns="http://www.w3.org/2000/svg">
<path d="M59.2599 31.0824C59.2599 31.9195 59.2259 32.7565 59.151 33.5936C59.0762 34.4443 58.9945 35.0703 58.8516 35.8938C58.5794 37.4522 58.1711 38.9834 57.647 40.4738C57.1366 41.9097 56.5582 43.196 55.796 44.5775C55.1086 45.816 54.2375 47.1431 53.4345 48.1843C52.6859 49.1507 51.6855 50.2668 50.7328 51.1923C50.2564 51.655 49.7664 52.0974 49.256 52.5261C49.0711 52.6811 48.8825 52.836 48.6929 52.9883C48.56 53.095 48.2439 53.339 48.3781 53.2339C48.3237 53.2747 48.2692 53.3156 48.2216 53.3564C48.0651 53.4789 47.9017 53.5946 47.7384 53.7103C46.6291 54.5065 45.4654 55.2347 44.2609 55.8676C43.6348 56.1942 43.0019 56.5005 42.3554 56.7795C42.1648 56.8612 41.8994 56.97 41.5727 57.0993C41.2257 57.2355 40.8786 57.3648 40.5247 57.4873C39.2045 57.9432 37.8434 58.3107 36.4687 58.5693C36.1284 58.6306 35.7882 58.6918 35.4479 58.7462C35.3129 58.7732 35.1746 58.7871 35.0386 58.8086C35.0287 58.8101 35.0427 58.8084 35.1008 58.8007C34.9103 58.8279 34.7197 58.8483 34.5292 58.8687C33.8146 58.9504 33.0932 58.998 32.3719 59.0253C30.9019 59.0797 29.432 59.0253 27.9756 58.8551C27.404 58.7871 26.7506 58.6918 26.0361 58.5489C25.3283 58.4128 24.6274 58.2495 23.9332 58.0589C23.2595 57.8752 22.5994 57.671 21.9392 57.4396C21.6398 57.3307 21.3336 57.2218 21.0341 57.1062C20.6258 56.9428 20.4625 56.8748 20.1562 56.7455C18.904 56.1942 17.6859 55.5545 16.5222 54.8264C15.9301 54.4589 15.3516 54.0642 14.7868 53.6558C14.2355 53.2543 13.8544 52.9617 13.2692 52.4649C12.2348 51.587 11.2616 50.6342 10.3565 49.6202C9.41054 48.5586 8.76403 47.7147 7.9678 46.5102C7.10352 45.2036 6.35493 43.8289 5.71522 42.4065C5.4362 41.7804 5.16398 41.0999 4.91219 40.3717C4.64678 39.6095 4.41539 38.8405 4.21123 38.0579C3.80972 36.4927 3.55792 35.0227 3.43542 33.4847C2.92502 27.1285 4.51067 20.8743 8.02905 15.5798C8.21279 15.3007 8.40334 15.0285 8.59389 14.7563C8.68917 14.6202 8.79125 14.4841 8.88653 14.3548C8.94777 14.2731 9.00222 14.1983 9.06346 14.1166C9.08388 14.0894 9.25401 13.8648 9.14513 14.0077C9.56026 13.4701 10.0026 12.9529 10.4518 12.4425C11.3705 11.4217 12.3641 10.4621 13.4189 9.57741C13.6707 9.36645 13.9293 9.15548 14.1947 8.95132C14.2151 8.93771 14.3444 8.83563 14.2219 8.9309C14.3036 8.86965 14.3785 8.80841 14.4601 8.75396C14.603 8.64508 14.7528 8.53619 14.9025 8.42731C15.4537 8.02579 16.0254 7.65149 16.6038 7.29081C17.6937 6.61523 18.8312 6.01128 20.0054 5.49014C20.1629 5.42023 20.5327 5.26371 20.374 5.33086C20.4352 5.30364 20.4965 5.27642 20.5577 5.256C20.7143 5.19475 20.8708 5.1267 21.0273 5.06545C21.3744 4.92934 21.7215 4.80004 22.0753 4.67754C22.7491 4.44616 23.4296 4.23519 24.1238 4.05145C24.7839 3.87451 25.4576 3.72479 26.1313 3.59549C26.4716 3.53424 26.8119 3.47299 27.1522 3.41855C27.2542 3.40494 27.3563 3.39133 27.4584 3.37091C27.4856 3.36411 27.6558 3.34369 27.4992 3.36411C27.7034 3.33688 27.9144 3.30966 28.1253 3.28925C29.5681 3.13272 31.0244 3.08509 32.474 3.13953C33.2089 3.16675 33.9507 3.228 34.6789 3.30966C34.8198 3.32375 35.2358 3.38175 35.0952 3.36543C35.0885 3.36466 35.0694 3.36219 35.0328 3.3573C35.2029 3.37772 35.3799 3.40494 35.55 3.43216C35.9107 3.4866 36.2646 3.54785 36.6252 3.62271C38.0135 3.89492 39.3814 4.26922 40.7221 4.73879C41.0419 4.85448 41.355 4.97017 41.668 5.09267C41.8245 5.15392 41.9811 5.21517 42.1376 5.28322C42.158 5.29003 42.3145 5.35808 42.1716 5.29683C42.2805 5.34447 42.3894 5.39211 42.4983 5.43974C43.1244 5.71877 43.7437 6.0182 44.3493 6.33805C45.5675 6.98456 46.7448 7.71955 47.8609 8.53619C47.9113 8.57261 47.9606 8.60903 48.0097 8.64545C48.1471 8.74744 48.4652 8.98873 48.3305 8.88327C48.3849 8.9241 48.4326 8.96493 48.487 9.00576C48.7728 9.23034 49.0587 9.46172 49.3377 9.69991C49.8685 10.1491 50.3857 10.6186 50.8825 11.1086C51.3589 11.5714 51.8148 12.0546 52.2504 12.5514C52.4681 12.7964 52.6859 13.0482 52.8969 13.3068C53.0058 13.4361 53.1079 13.5654 53.2099 13.6947C53.2712 13.7695 53.3324 13.8512 53.3937 13.926C53.523 14.0894 53.3392 13.8512 53.4753 14.0349C54.3532 15.1918 55.1495 16.41 55.8504 17.6894C57.3476 20.4252 58.3616 23.3583 58.8924 26.5024C59.0217 27.2646 59.0966 27.8771 59.1646 28.6869C59.2327 29.4831 59.2599 30.2862 59.2599 31.0824C59.2599 31.6132 59.7295 32.1304 60.2807 32.1032C60.832 32.076 61.3015 31.654 61.3015 31.0824C61.2879 24.522 59.1238 18.0501 55.1154 12.8508C51.5426 8.21634 46.6904 4.68435 41.1644 2.74482C35.4887 0.757647 29.187 0.553485 23.3888 2.13914C17.8016 3.66354 12.6839 6.84846 8.8525 11.1835C4.56511 16.0357 1.94504 22.1742 1.40742 28.6257C0.849377 35.2677 2.57794 42.0595 6.27326 47.6127C9.45818 52.4173 14.0178 56.2963 19.3124 58.5829C24.9064 60.9988 31.1265 61.6794 37.1152 60.5156C42.8249 59.4064 48.1672 56.5617 52.3184 52.4921C56.7964 48.0958 59.8656 42.284 60.8864 36.0912C61.1586 34.4374 61.3015 32.7633 61.3083 31.0824C61.3083 30.5516 60.8388 30.0344 60.2875 30.0616C59.7295 30.0888 59.2599 30.5107 59.2599 31.0824Z" fill="#5D56F1"/>
<path d="M59.2599 31.0824C59.2599 31.9195 59.2259 32.7565 59.151 33.5936C59.0762 34.4443 58.9945 35.0703 58.8516 35.8938C58.5794 37.4522 58.1711 38.9834 57.647 40.4738C57.1366 41.9097 56.5582 43.196 55.796 44.5775C55.1086 45.816 54.2375 47.1431 53.4345 48.1843C52.6859 49.1507 51.6855 50.2668 50.7328 51.1923C50.2564 51.655 49.7664 52.0974 49.256 52.5261C49.0711 52.6811 48.8825 52.836 48.6929 52.9882C48.56 53.095 48.2439 53.339 48.3781 53.2339V53.2339C48.3237 53.2747 48.2692 53.3156 48.2216 53.3564C48.0651 53.4789 47.9017 53.5946 47.7384 53.7103C46.6291 54.5065 45.4654 55.2347 44.2609 55.8676C43.6348 56.1942 43.0019 56.5005 42.3554 56.7795C42.1648 56.8612 41.8994 56.97 41.5727 57.0993C41.2257 57.2355 40.8786 57.3648 40.5247 57.4873C39.2045 57.9432 37.8434 58.3107 36.4687 58.5693C36.1284 58.6306 35.7882 58.6918 35.4479 58.7462V58.7462C35.3129 58.7732 35.1746 58.7871 35.0386 58.8086C35.0287 58.8101 35.0427 58.8084 35.1008 58.8007C34.9103 58.8279 34.7197 58.8483 34.5292 58.8687C33.8146 58.9504 33.0932 58.998 32.3719 59.0253C30.9019 59.0797 29.432 59.0253 27.9756 58.8551C27.404 58.7871 26.7506 58.6918 26.0361 58.5489C25.3283 58.4128 24.6274 58.2495 23.9332 58.0589C23.2595 57.8752 22.5994 57.671 21.9392 57.4396C21.6398 57.3307 21.3336 57.2218 21.0341 57.1062C20.6258 56.9428 20.4625 56.8748 20.1562 56.7455C18.904 56.1942 17.6859 55.5545 16.5222 54.8264C15.9301 54.4589 15.3516 54.0642 14.7868 53.6558C14.2355 53.2543 13.8544 52.9617 13.2692 52.4649C12.2348 51.587 11.2616 50.6342 10.3565 49.6202C9.41054 48.5586 8.76403 47.7147 7.9678 46.5102C7.10352 45.2036 6.35493 43.8289 5.71522 42.4065C5.4362 41.7804 5.16398 41.0999 4.91219 40.3717C4.64678 39.6095 4.41539 38.8405 4.21123 38.0579C3.80972 36.4927 3.55792 35.0227 3.43542 33.4847C2.92502 27.1285 4.51067 20.8743 8.02905 15.5798C8.21279 15.3007 8.40334 15.0285 8.59389 14.7563C8.68917 14.6202 8.79125 14.4841 8.88653 14.3548C8.94777 14.2731 9.00222 14.1983 9.06346 14.1166C9.08388 14.0894 9.25402 13.8648 9.14513 14.0077C9.56026 13.4701 10.0026 12.9529 10.4518 12.4425C11.3705 11.4217 12.3641 10.4621 13.4189 9.57741C13.6707 9.36645 13.9293 9.15548 14.1947 8.95132C14.2151 8.93771 14.3444 8.83563 14.2219 8.9309C14.3036 8.86965 14.3785 8.80841 14.4601 8.75396C14.603 8.64508 14.7528 8.53619 14.9025 8.42731C15.4537 8.02579 16.0254 7.65149 16.6038 7.29081C17.6937 6.61523 18.8312 6.01128 20.0054 5.49014C20.1629 5.42023 20.5327 5.26371 20.374 5.33086V5.33086C20.4352 5.30364 20.4965 5.27642 20.5577 5.256C20.7143 5.19475 20.8708 5.1267 21.0273 5.06545C21.3744 4.92934 21.7215 4.80004 22.0753 4.67754C22.7491 4.44616 23.4296 4.23519 24.1238 4.05145C24.7839 3.87451 25.4576 3.72479 26.1313 3.59549C26.4716 3.53424 26.8119 3.47299 27.1522 3.41855C27.2542 3.40494 27.3563 3.39133 27.4584 3.37091C27.4856 3.36411 27.6557 3.34369 27.4992 3.36411C27.7034 3.33688 27.9144 3.30966 28.1253 3.28925C29.5681 3.13272 31.0244 3.08509 32.474 3.13953C33.2089 3.16675 33.9507 3.228 34.6789 3.30966V3.30966C34.8198 3.32375 35.2358 3.38175 35.0952 3.36543C35.0885 3.36466 35.0694 3.36219 35.0328 3.3573C35.2029 3.37772 35.3799 3.40494 35.55 3.43216C35.9107 3.4866 36.2646 3.54785 36.6252 3.62271C38.0135 3.89492 39.3814 4.26922 40.7221 4.73879C41.0419 4.85448 41.355 4.97017 41.668 5.09267C41.8245 5.15392 41.9811 5.21517 42.1376 5.28322C42.158 5.29003 42.3145 5.35808 42.1716 5.29683C42.2805 5.34447 42.3894 5.39211 42.4983 5.43974C43.1244 5.71877 43.7437 6.0182 44.3493 6.33805C45.5675 6.98456 46.7448 7.71955 47.8609 8.53619C47.9113 8.57261 47.9606 8.60903 48.0097 8.64545C48.1471 8.74744 48.4652 8.98873 48.3305 8.88327V8.88327C48.3849 8.9241 48.4326 8.96493 48.487 9.00576C48.7728 9.23034 49.0587 9.46172 49.3377 9.69991C49.8685 10.1491 50.3857 10.6186 50.8825 11.1086C51.3589 11.5714 51.8148 12.0546 52.2504 12.5514C52.4681 12.7964 52.6859 13.0482 52.8969 13.3068C53.0058 13.4361 53.1079 13.5654 53.2099 13.6947C53.2712 13.7695 53.3324 13.8512 53.3937 13.926C53.523 14.0894 53.3392 13.8512 53.4753 14.0349C54.3532 15.1918 55.1495 16.41 55.8504 17.6894C57.3476 20.4252 58.3616 23.3583 58.8924 26.5024C59.0217 27.2646 59.0966 27.8771 59.1646 28.6869C59.2327 29.4831 59.2599 30.2862 59.2599 31.0824ZM59.2599 31.0824C59.2599 31.6132 59.7295 32.1304 60.2807 32.1032C60.832 32.076 61.3015 31.654 61.3015 31.0824C61.2879 24.522 59.1238 18.0501 55.1154 12.8508C51.5426 8.21634 46.6904 4.68435 41.1644 2.74482C35.4887 0.757647 29.187 0.553485 23.3888 2.13914C17.8016 3.66354 12.6839 6.84846 8.8525 11.1835C4.56511 16.0357 1.94504 22.1742 1.40742 28.6257C0.849377 35.2677 2.57794 42.0595 6.27326 47.6127C9.45818 52.4173 14.0178 56.2963 19.3124 58.5829C24.9064 60.9988 31.1265 61.6794 37.1152 60.5156C42.8249 59.4064 48.1672 56.5617 52.3184 52.4921C56.7964 48.0958 59.8656 42.284 60.8864 36.0912C61.1586 34.4374 61.3015 32.7633 61.3083 31.0824C61.3083 30.5516 60.8388 30.0344 60.2875 30.0616C59.7295 30.0888 59.2599 30.5107 59.2599 31.0824Z" stroke="#5D56F1"/>
<path d="M45.6634 31.0818C45.6634 32.613 45.6022 34.1442 45.4729 35.6686C45.4116 36.3899 45.3368 37.1045 45.2483 37.8259C45.2415 37.9007 45.2279 37.9756 45.2211 38.0505C45.1734 38.4111 45.2347 37.962 45.2075 38.1661C45.187 38.3295 45.1598 38.4996 45.1326 38.6629C45.0782 39.0304 45.0169 39.3911 44.9557 39.7586C44.5065 42.3855 43.8396 44.9783 42.9072 47.4759C42.8052 47.7481 42.7031 48.0203 42.5942 48.2857C42.5329 48.4355 42.4717 48.5784 42.4104 48.7281C42.4785 48.5648 42.4172 48.7145 42.4036 48.7485C42.3696 48.837 42.3288 48.9186 42.2948 49.0071C42.0566 49.5515 41.798 50.096 41.5326 50.6268C41.029 51.6136 40.4709 52.5731 39.8448 53.4919C39.7087 53.696 39.5658 53.8934 39.4161 54.0907C39.3344 54.1996 39.2527 54.3085 39.1711 54.4106C39.3004 54.2404 39.2119 54.3561 39.1847 54.3902C39.1371 54.4514 39.0894 54.5127 39.035 54.5739C38.7219 54.9618 38.3885 55.3429 38.0482 55.7036C37.7147 56.0507 37.3745 56.3841 37.0138 56.6972C36.8505 56.8401 36.6871 56.9694 36.5238 57.1055C36.3809 57.2144 36.5442 57.0919 36.5646 57.0783C36.517 57.1123 36.4694 57.1463 36.4285 57.1804C36.3264 57.2552 36.2244 57.3301 36.1223 57.4049C35.7684 57.6499 35.4077 57.8745 35.0334 58.0787C34.8497 58.174 34.6659 58.2692 34.4754 58.3577C34.4073 58.3849 34.1079 58.5142 34.3937 58.3985C34.2848 58.4394 34.1759 58.487 34.0671 58.5278C33.6791 58.6707 33.2844 58.7932 32.8761 58.8817C32.6924 58.9225 32.5018 58.9566 32.3181 58.9838C32.2934 58.9885 32.2771 58.9918 32.2673 58.994C32.2286 59.0024 32.2824 58.9918 32.2432 58.9974C32.1275 59.011 32.0118 59.0178 31.8961 59.0314C31.4946 59.0586 31.0931 59.0586 30.6916 59.0246C30.5895 59.0178 30.4806 59.0042 30.3785 58.9974C30.3377 58.9906 30.2901 58.9906 30.256 58.9838C30.5283 59.045 30.4058 59.0042 30.3377 58.9906C30.1335 58.9566 29.9226 58.9225 29.7184 58.8749C29.3169 58.7796 28.9154 58.6571 28.5343 58.5142C28.4458 58.4802 28.3573 58.4462 28.2621 58.4053C28.5615 58.5278 28.2076 58.3781 28.1464 58.3509C27.949 58.2556 27.7517 58.1603 27.5611 58.0515C27.1868 57.8473 26.8193 57.6159 26.4723 57.3709C26.3906 57.3097 26.3021 57.2484 26.2205 57.1872C26.1728 57.1531 26.1252 57.1191 26.0843 57.0851C26.2817 57.228 26.166 57.1463 26.1252 57.1123C25.9414 56.9626 25.7577 56.8129 25.5808 56.6563C24.8458 56.0098 24.172 55.2885 23.5596 54.5195C23.5119 54.4582 23.3418 54.2404 23.4711 54.4106C23.3894 54.3017 23.3078 54.1996 23.2261 54.0907C23.0628 53.873 22.9062 53.6484 22.7565 53.4238C22.4571 52.9814 22.1713 52.5255 21.899 52.0627C21.3138 51.0623 20.7966 50.0279 20.3338 48.9663C20.3134 48.9186 20.1569 48.558 20.2317 48.7349C20.1705 48.5852 20.1092 48.4423 20.048 48.2925C19.9255 47.9931 19.8098 47.6937 19.7009 47.3874C19.4831 46.7954 19.279 46.2033 19.0884 45.6044C18.6869 44.3318 18.3466 43.0388 18.0676 41.7322C17.9179 41.0448 17.7886 40.3507 17.6661 39.6497C17.6117 39.3231 17.5572 38.9964 17.5096 38.6629C17.4824 38.4996 17.4619 38.3295 17.4347 38.1661C17.4075 37.9552 17.4687 38.4111 17.4211 38.0505C17.4075 37.9416 17.3939 37.8259 17.3803 37.717C17.1965 36.247 17.0808 34.7703 17.0196 33.2867C16.9039 30.3059 17.0196 27.3048 17.3939 24.3444C17.4347 24.0178 17.4619 23.8476 17.5164 23.4529C17.5708 23.0854 17.6321 22.7248 17.6933 22.3641C17.8158 21.6699 17.9519 20.9758 18.1016 20.2884C18.3807 19.0022 18.7209 17.7296 19.1225 16.4774C19.3198 15.8649 19.5308 15.2525 19.7554 14.6536C19.8642 14.3678 19.9731 14.0819 20.0888 13.8029C20.1365 13.6872 20.1841 13.5647 20.2317 13.449C20.1501 13.6464 20.2726 13.3606 20.2794 13.3469C20.3134 13.2585 20.3542 13.1768 20.3951 13.0883C20.8578 12.0471 21.3682 11.0263 21.9467 10.0463C22.2257 9.57677 22.5183 9.1072 22.8314 8.65804C22.9811 8.44708 23.1308 8.23611 23.2805 8.02514C23.3418 7.93667 23.4098 7.85501 23.4711 7.76654C23.335 7.94348 23.4507 7.79376 23.4847 7.75293C23.5391 7.67807 23.6004 7.61001 23.6548 7.53516C24.2537 6.79337 24.9138 6.09922 25.6284 5.47313C25.7917 5.33021 25.955 5.20091 26.1184 5.06481C26.3089 4.90828 25.9346 5.19411 26.132 5.05119C26.166 5.02397 26.2068 4.99675 26.2409 4.96953C26.3361 4.90148 26.4246 4.83342 26.5199 4.76537C26.8806 4.51357 27.2549 4.28219 27.6428 4.07803C27.8265 3.98275 28.0103 3.88748 28.2008 3.79901C28.2417 3.77859 28.2825 3.76498 28.3165 3.74456C28.5139 3.64929 28.1464 3.81262 28.2825 3.75817C28.3914 3.71734 28.5003 3.6697 28.6091 3.62887C28.9902 3.48596 29.3713 3.37707 29.7661 3.2886C29.9498 3.24777 30.1404 3.22055 30.3241 3.18652C30.5419 3.14569 30.1267 3.20694 30.2697 3.19333C30.3241 3.18652 30.3717 3.17972 30.4262 3.17291C30.5283 3.1593 30.6371 3.15249 30.7392 3.14569C31.1476 3.11847 31.5627 3.11847 31.9778 3.15249C32.0731 3.1593 32.1684 3.17291 32.2636 3.17972C32.5563 3.20694 32.0731 3.14569 32.3657 3.19333C32.5767 3.22735 32.7808 3.26819 32.985 3.31582C33.3797 3.4111 33.7608 3.5336 34.1419 3.67651C34.1896 3.69693 34.4754 3.81262 34.3189 3.74456C34.1623 3.67651 34.4482 3.80581 34.4958 3.82623C34.6932 3.9215 34.8905 4.01678 35.0811 4.12566C35.4554 4.32982 35.8228 4.56121 36.1699 4.8062C36.2652 4.87425 36.3605 4.94231 36.4489 5.01036C36.483 5.03758 36.5238 5.06481 36.5578 5.09203C36.3537 4.94231 36.4966 5.04439 36.5442 5.08522C36.728 5.23494 36.9117 5.38466 37.0886 5.54118C37.4493 5.86103 37.7896 6.1945 38.1231 6.54157C38.4565 6.89545 38.7764 7.26975 39.0826 7.65085C39.1166 7.69168 39.1507 7.73251 39.1779 7.77334C39.348 7.98431 39.0486 7.60321 39.2119 7.82098C39.2732 7.90945 39.3412 7.99112 39.4025 8.07959C39.5658 8.29736 39.7223 8.52194 39.872 8.74651C40.5049 9.67885 41.0698 10.6588 41.5734 11.666C41.8388 12.19 42.0838 12.714 42.3152 13.2517C42.3424 13.3061 42.3628 13.3674 42.39 13.4218C42.5125 13.7008 42.3492 13.3129 42.4172 13.4831C42.4717 13.6124 42.5261 13.7485 42.5806 13.8778C42.7031 14.1772 42.8188 14.4766 42.9277 14.7829C43.3836 16.0147 43.7715 17.2668 44.105 18.5394C44.8264 21.2888 45.2483 23.9225 45.4729 26.6719C45.6022 28.135 45.6566 29.6118 45.6634 31.0818C45.6634 31.6126 46.133 32.1298 46.6842 32.1026C47.2355 32.0753 47.705 31.6534 47.705 31.0818C47.6982 25.2632 46.8612 19.3289 44.7719 13.8778C43.1795 9.72649 40.8316 5.53438 37.0818 2.96194C35.5438 1.90711 33.7676 1.24018 31.9098 1.10408C30.0791 0.96797 28.2417 1.44435 26.6288 2.29502C22.8382 4.2958 20.2862 8.2293 18.5984 12.0471C16.271 17.3145 15.1889 23.0854 14.9576 28.8224C14.7194 34.7362 15.3659 40.7862 17.1897 46.4279C18.5984 50.7765 20.7694 55.2885 24.3286 58.2828C25.7645 59.4874 27.4318 60.4674 29.2829 60.8621C31.0659 61.2432 32.9442 61.1207 34.6523 60.4742C38.6199 58.9634 41.3964 55.3701 43.2747 51.6952C45.8131 46.7273 47.0653 41.1469 47.5213 35.6141C47.6438 34.1101 47.705 32.5993 47.705 31.0886C47.705 30.5577 47.2355 30.0405 46.6842 30.0678C46.1262 30.0882 45.6634 30.5101 45.6634 31.0818Z" fill="#5D56F1"/>
<path d="M45.6634 31.0818C45.6634 32.613 45.6022 34.1442 45.4729 35.6686C45.4116 36.3899 45.3368 37.1045 45.2483 37.8259C45.2415 37.9007 45.2279 37.9756 45.2211 38.0505C45.1734 38.4111 45.2347 37.962 45.2075 38.1661C45.187 38.3295 45.1598 38.4996 45.1326 38.6629C45.0782 39.0304 45.0169 39.3911 44.9557 39.7586C44.5065 42.3855 43.8396 44.9783 42.9072 47.4759C42.8052 47.7481 42.7031 48.0203 42.5942 48.2857C42.5329 48.4355 42.4717 48.5784 42.4104 48.7281C42.4785 48.5648 42.4172 48.7145 42.4036 48.7485C42.3696 48.837 42.3288 48.9186 42.2948 49.0071C42.0566 49.5515 41.798 50.096 41.5326 50.6268C41.029 51.6136 40.4709 52.5731 39.8448 53.4919C39.7087 53.696 39.5658 53.8934 39.4161 54.0907C39.3344 54.1996 39.2527 54.3085 39.1711 54.4106C39.3004 54.2404 39.2119 54.3561 39.1847 54.3902C39.1371 54.4514 39.0894 54.5127 39.035 54.5739C38.7219 54.9618 38.3885 55.3429 38.0482 55.7036C37.7147 56.0507 37.3745 56.3841 37.0138 56.6972C36.8505 56.8401 36.6871 56.9694 36.5238 57.1055C36.3809 57.2144 36.5442 57.0919 36.5646 57.0783C36.517 57.1123 36.4694 57.1463 36.4285 57.1804C36.3264 57.2552 36.2244 57.3301 36.1223 57.4049C35.7684 57.6499 35.4077 57.8745 35.0334 58.0787C34.8497 58.1739 34.6659 58.2692 34.4754 58.3577C34.4073 58.3849 34.1079 58.5142 34.3937 58.3985C34.2848 58.4394 34.1759 58.487 34.0671 58.5278C33.6791 58.6707 33.2844 58.7932 32.8761 58.8817C32.6924 58.9225 32.5018 58.9566 32.3181 58.9838C32.2934 58.9885 32.2771 58.9918 32.2673 58.994C32.2286 59.0024 32.2824 58.9918 32.2432 58.9974V58.9974C32.1275 59.011 32.0118 59.0178 31.8961 59.0314C31.4946 59.0586 31.0931 59.0586 30.6916 59.0246C30.5895 59.0178 30.4806 59.0042 30.3785 58.9974C30.3377 58.9906 30.2901 58.9906 30.256 58.9838C30.5283 59.045 30.4058 59.0042 30.3377 58.9906C30.1335 58.9566 29.9226 58.9225 29.7184 58.8749C29.3169 58.7796 28.9154 58.6571 28.5343 58.5142C28.4458 58.4802 28.3573 58.4462 28.2621 58.4053C28.5615 58.5278 28.2076 58.3781 28.1464 58.3509C27.949 58.2556 27.7517 58.1603 27.5611 58.0515C27.1868 57.8473 26.8193 57.6159 26.4723 57.3709C26.3906 57.3097 26.3021 57.2484 26.2205 57.1872C26.1728 57.1531 26.1252 57.1191 26.0843 57.0851C26.2817 57.228 26.166 57.1463 26.1252 57.1123C25.9414 56.9626 25.7577 56.8129 25.5808 56.6563C24.8458 56.0098 24.172 55.2885 23.5596 54.5195C23.5119 54.4582 23.3418 54.2404 23.4711 54.4106C23.3894 54.3017 23.3078 54.1996 23.2261 54.0907C23.0628 53.873 22.9062 53.6484 22.7565 53.4238C22.4571 52.9814 22.1713 52.5255 21.899 52.0627C21.3138 51.0623 20.7966 50.0279 20.3338 48.9663C20.3134 48.9186 20.1569 48.558 20.2317 48.7349C20.1705 48.5852 20.1092 48.4423 20.048 48.2925C19.9255 47.9931 19.8098 47.6937 19.7009 47.3874C19.4831 46.7954 19.279 46.2033 19.0884 45.6044C18.6869 44.3318 18.3466 43.0388 18.0676 41.7322C17.9179 41.0448 17.7886 40.3507 17.6661 39.6497C17.6117 39.3231 17.5572 38.9964 17.5096 38.6629C17.4824 38.4996 17.4619 38.3295 17.4347 38.1661C17.4075 37.9552 17.4687 38.4111 17.4211 38.0505C17.4075 37.9416 17.3939 37.8259 17.3803 37.717C17.1965 36.247 17.0808 34.7703 17.0196 33.2867C16.9039 30.3059 17.0196 27.3048 17.3939 24.3444C17.4347 24.0178 17.4619 23.8476 17.5164 23.4529C17.5708 23.0854 17.6321 22.7248 17.6933 22.3641C17.8158 21.6699 17.9519 20.9758 18.1016 20.2884C18.3807 19.0022 18.7209 17.7296 19.1225 16.4774C19.3198 15.8649 19.5308 15.2525 19.7554 14.6536C19.8642 14.3678 19.9731 14.0819 20.0888 13.8029C20.1365 13.6872 20.1841 13.5647 20.2317 13.449C20.1501 13.6464 20.2726 13.3606 20.2794 13.3469C20.3134 13.2585 20.3542 13.1768 20.3951 13.0883C20.8578 12.0471 21.3682 11.0263 21.9467 10.0463C22.2257 9.57677 22.5183 9.1072 22.8314 8.65804C22.9811 8.44708 23.1308 8.23611 23.2805 8.02514C23.3418 7.93667 23.4098 7.85501 23.4711 7.76654C23.335 7.94348 23.4507 7.79376 23.4847 7.75293C23.5391 7.67807 23.6004 7.61001 23.6548 7.53516C24.2537 6.79337 24.9138 6.09922 25.6284 5.47313C25.7917 5.33021 25.955 5.20091 26.1184 5.0648C26.3089 4.90828 25.9346 5.19411 26.132 5.05119C26.166 5.02397 26.2068 4.99675 26.2409 4.96953C26.3361 4.90148 26.4246 4.83342 26.5199 4.76537C26.8806 4.51357 27.2549 4.28219 27.6428 4.07803C27.8265 3.98275 28.0103 3.88748 28.2008 3.79901C28.2417 3.77859 28.2825 3.76498 28.3165 3.74456C28.5139 3.64929 28.1464 3.81262 28.2825 3.75817C28.3914 3.71734 28.5003 3.6697 28.6091 3.62887C28.9902 3.48596 29.3713 3.37707 29.7661 3.2886C29.9498 3.24777 30.1404 3.22055 30.3241 3.18652C30.5419 3.14569 30.1267 3.20694 30.2697 3.19333C30.3241 3.18652 30.3717 3.17972 30.4262 3.17291C30.5283 3.1593 30.6371 3.15249 30.7392 3.14569C31.1476 3.11847 31.5627 3.11847 31.9778 3.15249C32.0731 3.1593 32.1684 3.17291 32.2636 3.17972C32.5563 3.20694 32.0731 3.14569 32.3657 3.19333C32.5767 3.22735 32.7808 3.26819 32.985 3.31582C33.3797 3.4111 33.7608 3.5336 34.1419 3.67651C34.1896 3.69693 34.4754 3.81262 34.3189 3.74456C34.1623 3.67651 34.4482 3.80581 34.4958 3.82623C34.6932 3.9215 34.8905 4.01678 35.0811 4.12566C35.4554 4.32982 35.8228 4.56121 36.1699 4.8062C36.2652 4.87425 36.3605 4.94231 36.4489 5.01036C36.483 5.03758 36.5238 5.06481 36.5578 5.09203C36.3537 4.94231 36.4966 5.04439 36.5442 5.08522C36.728 5.23494 36.9117 5.38466 37.0886 5.54118C37.4493 5.86103 37.7896 6.1945 38.1231 6.54157C38.4565 6.89545 38.7764 7.26975 39.0826 7.65085C39.1166 7.69168 39.1507 7.73251 39.1779 7.77334C39.348 7.98431 39.0486 7.60321 39.2119 7.82098C39.2732 7.90945 39.3412 7.99112 39.4025 8.07959C39.5658 8.29736 39.7223 8.52194 39.872 8.74651C40.5049 9.67885 41.0698 10.6588 41.5734 11.666C41.8388 12.19 42.0838 12.714 42.3152 13.2517C42.3424 13.3061 42.3628 13.3674 42.39 13.4218C42.5125 13.7008 42.3492 13.3129 42.4172 13.4831C42.4717 13.6124 42.5261 13.7485 42.5806 13.8778C42.7031 14.1772 42.8188 14.4766 42.9277 14.7829C43.3836 16.0147 43.7715 17.2668 44.105 18.5394C44.8264 21.2888 45.2483 23.9225 45.4729 26.6719C45.6022 28.135 45.6566 29.6118 45.6634 31.0818ZM45.6634 31.0818C45.6634 31.6126 46.133 32.1298 46.6842 32.1026C47.2355 32.0753 47.705 31.6534 47.705 31.0818C47.6982 25.2632 46.8612 19.3289 44.7719 13.8778C43.1795 9.72649 40.8316 5.53438 37.0818 2.96194C35.5438 1.90711 33.7676 1.24018 31.9098 1.10408C30.0791 0.96797 28.2417 1.44435 26.6288 2.29502C22.8382 4.2958 20.2862 8.2293 18.5984 12.0471C16.271 17.3145 15.1889 23.0854 14.9576 28.8224C14.7194 34.7362 15.3659 40.7862 17.1897 46.4279C18.5984 50.7765 20.7694 55.2885 24.3286 58.2828C25.7645 59.4874 27.4318 60.4674 29.2829 60.8621C31.0659 61.2432 32.9442 61.1207 34.6523 60.4742C38.6199 58.9634 41.3964 55.3701 43.2747 51.6952C45.8131 46.7273 47.0653 41.1469 47.5213 35.6141C47.6438 34.1101 47.705 32.5993 47.705 31.0886C47.705 30.5577 47.2355 30.0405 46.6842 30.0678C46.1262 30.0882 45.6634 30.5101 45.6634 31.0818Z" stroke="#5D56F1"/>
<path d="M59.2604 31.0817C59.2536 35.3282 58.2872 39.5952 56.4225 43.3722C55.9694 44.2959 55.4616 45.1899 54.9121 46.0584C54.8416 46.1697 54.9682 46.304 55.0826 46.2387C55.1948 46.1745 55.1503 45.999 55.021 45.999C54.7514 45.999 54.4824 45.999 54.2108 45.999C53.0403 45.999 51.8697 45.999 50.6924 45.999C48.9502 45.999 47.208 45.999 45.4727 45.999C43.3562 45.999 41.2465 45.999 39.1301 45.999C36.8162 45.999 34.5024 45.999 32.1818 45.999C29.8339 45.999 27.4861 45.999 25.1382 45.999C22.9469 45.999 20.7624 45.999 18.571 45.999C16.7268 45.999 14.8893 45.999 13.0451 45.999C11.718 45.999 10.391 45.999 9.07072 45.999C8.43782 45.999 7.80492 45.9718 7.17202 45.999C7.14954 45.999 7.14152 46.0288 7.16096 46.0401C7.27835 46.1083 7.39582 46.1764 7.51382 46.244C7.63302 46.3123 7.76167 46.1745 7.68823 46.0584C7.22001 45.3183 6.7848 44.5554 6.3826 43.7737C5.88581 42.8141 5.51151 41.9635 5.15083 41.0039C4.77653 39.9967 4.44987 38.9759 4.19127 37.9347C4.05516 37.3902 3.93267 36.839 3.82378 36.2878C3.77614 36.036 3.7285 35.791 3.68767 35.5392C3.66726 35.4031 3.64684 35.267 3.62642 35.1309C3.60601 34.9948 3.58559 34.8518 3.57879 34.8178C3.00714 30.4284 3.42907 26.1137 4.8582 21.9489C5.55799 19.9125 6.50307 17.9638 7.68804 16.0919C7.75842 15.9807 7.63189 15.8462 7.51765 15.9115C7.40556 15.9756 7.44997 16.1507 7.57907 16.1507H8.39019H11.9086H17.1283H23.4709H30.4192H37.4627H44.0299H49.5559H53.5302C54.1631 16.1507 54.796 16.1779 55.4289 16.1507C55.4514 16.1507 55.4594 16.1209 55.44 16.1096C55.3226 16.0414 55.2051 15.9733 55.0871 15.9057C54.9679 15.8374 54.8393 15.9752 54.9127 16.0913C55.381 16.8314 55.8162 17.5943 56.2184 18.376C56.7152 19.3356 57.0895 20.1863 57.4501 21.1458C57.8244 22.153 58.1511 23.1738 58.4097 24.215C58.5458 24.7391 58.6615 25.2699 58.7636 25.8007C58.818 26.0661 58.8657 26.3383 58.9065 26.6037C58.9269 26.7194 58.9405 26.8351 58.9609 26.9508C58.9662 26.9796 58.9704 27.0094 58.9744 27.0394C58.987 27.1346 59.0221 27.3589 59.0086 27.2638C59.1855 28.5365 59.2604 29.8091 59.2604 31.0817C59.2604 31.6125 59.7299 32.1297 60.2812 32.1025C60.8324 32.0753 61.302 31.6533 61.302 31.0817C61.2884 25.7939 59.8933 20.5401 57.2256 15.9669C57.0758 15.7083 56.9193 15.4497 56.756 15.1979C56.511 14.81 56.266 14.2724 55.7828 14.1635C55.6875 14.1431 55.5787 14.1295 55.4834 14.1295C55.3949 14.1227 55.3064 14.1295 55.218 14.1295C54.7892 14.1295 54.3537 14.1295 53.925 14.1295C52.2168 14.1295 50.5087 14.1295 48.8005 14.1295C46.2825 14.1295 43.7577 14.1295 41.2397 14.1295C38.293 14.1295 35.3463 14.1295 32.3927 14.1295C29.3984 14.1295 26.404 14.1295 23.4096 14.1295C20.7556 14.1295 18.0947 14.1295 15.4406 14.1295C13.501 14.1295 11.5683 14.1295 9.62877 14.1295C8.79851 14.1295 7.95464 14.0886 7.12439 14.1295C6.8862 14.1431 6.67523 14.1975 6.47788 14.3472C6.19886 14.565 6.00831 14.9461 5.81776 15.2524C5.64762 15.5246 5.48429 15.7968 5.32096 16.0758C4.65404 17.2327 4.07558 18.4373 3.55837 19.6691C2.54437 22.0986 1.89105 24.6574 1.55079 27.2775C0.863442 32.572 1.63925 37.9959 3.72851 42.9094C4.2253 44.0731 4.79014 45.2028 5.43665 46.2917C5.81775 46.9314 6.2601 47.9998 7.09036 48.0407H7.12439C7.3898 48.0475 7.66201 48.0407 7.93423 48.0407H12.2965H19.3741H28.0101H37.0612H45.3842H51.8085H55.2384H55.4902C55.8305 48.0271 56.0959 47.9046 56.3136 47.6391C56.7152 47.156 57.0282 46.5435 57.3413 45.999C58.6275 43.7533 59.6347 41.3238 60.3016 38.8194C60.9685 36.3014 61.302 33.6881 61.3088 31.0817C61.3088 30.5508 60.8392 30.0336 60.288 30.0609C59.7299 30.0881 59.2604 30.51 59.2604 31.0817Z" fill="#5D56F1"/>
<path d="M59.2604 31.0817C59.2536 35.3282 58.2872 39.5952 56.4225 43.3722C55.9694 44.2959 55.4616 45.1899 54.9121 46.0584C54.8416 46.1697 54.9682 46.304 55.0825 46.2387V46.2387C55.1948 46.1745 55.1504 45.999 55.021 45.999C54.7514 45.999 54.4824 45.999 54.2108 45.999C53.0403 45.999 51.8697 45.999 50.6924 45.999C48.9502 45.999 47.208 45.999 45.4727 45.999C43.3562 45.999 41.2465 45.999 39.1301 45.999C36.8162 45.999 34.5024 45.999 32.1818 45.999C29.8339 45.999 27.4861 45.999 25.1382 45.999C22.9469 45.999 20.7624 45.999 18.571 45.999C16.7268 45.999 14.8893 45.999 13.0451 45.999C11.718 45.999 10.391 45.999 9.07072 45.999C8.43782 45.999 7.80492 45.9718 7.17202 45.999V45.999C7.14954 45.999 7.14152 46.0288 7.16096 46.0401C7.27835 46.1083 7.39582 46.1764 7.51382 46.244C7.63302 46.3123 7.76168 46.1745 7.68823 46.0584C7.22001 45.3183 6.7848 44.5554 6.3826 43.7737C5.88581 42.8141 5.51151 41.9635 5.15083 41.0039C4.77653 39.9967 4.44987 38.9759 4.19127 37.9347C4.05516 37.3902 3.93267 36.839 3.82378 36.2878C3.77614 36.036 3.7285 35.791 3.68767 35.5392C3.66726 35.4031 3.64684 35.267 3.62642 35.1309C3.60601 34.9948 3.58559 34.8518 3.57879 34.8178C3.00714 30.4284 3.42907 26.1137 4.8582 21.9489C5.55799 19.9125 6.50307 17.9638 7.68804 16.0919C7.75842 15.9807 7.63189 15.8462 7.51765 15.9115V15.9115C7.40556 15.9756 7.44997 16.1507 7.57907 16.1507H8.39019H11.9086H17.1283H23.4709H30.4192H37.4628H44.0299H49.5559H53.5302C54.1631 16.1507 54.796 16.1779 55.4289 16.1507V16.1507C55.4514 16.1507 55.4594 16.1209 55.44 16.1096C55.3226 16.0414 55.2051 15.9733 55.0871 15.9057C54.9679 15.8374 54.8393 15.9752 54.9127 16.0913C55.381 16.8314 55.8162 17.5943 56.2184 18.376C56.7152 19.3356 57.0895 20.1863 57.4501 21.1458C57.8244 22.153 58.1511 23.1738 58.4097 24.215C58.5458 24.7391 58.6615 25.2699 58.7636 25.8007C58.818 26.0661 58.8657 26.3383 58.9065 26.6037C58.9269 26.7194 58.9405 26.8351 58.9609 26.9508C58.9662 26.9796 58.9704 27.0094 58.9744 27.0394C58.9871 27.1346 59.0221 27.3589 59.0086 27.2638V27.2638C59.1855 28.5365 59.2604 29.8091 59.2604 31.0817ZM59.2604 31.0817C59.2604 31.6125 59.7299 32.1297 60.2812 32.1025C60.8324 32.0753 61.302 31.6533 61.302 31.0817C61.2884 25.7939 59.8933 20.5401 57.2256 15.9669C57.0758 15.7083 56.9193 15.4497 56.756 15.1979C56.511 14.81 56.266 14.2724 55.7828 14.1635C55.6875 14.1431 55.5787 14.1295 55.4834 14.1295C55.3949 14.1227 55.3064 14.1295 55.218 14.1295C54.7892 14.1295 54.3537 14.1295 53.925 14.1295C52.2168 14.1295 50.5087 14.1295 48.8005 14.1295C46.2825 14.1295 43.7577 14.1295 41.2397 14.1295C38.293 14.1295 35.3463 14.1295 32.3927 14.1295C29.3984 14.1295 26.404 14.1295 23.4096 14.1295C20.7556 14.1295 18.0947 14.1295 15.4406 14.1295C13.501 14.1295 11.5683 14.1295 9.62877 14.1295C8.79851 14.1295 7.95464 14.0886 7.12439 14.1295C6.8862 14.1431 6.67523 14.1975 6.47788 14.3472C6.19886 14.565 6.00831 14.9461 5.81776 15.2524C5.64762 15.5246 5.48429 15.7968 5.32096 16.0758C4.65404 17.2327 4.07558 18.4373 3.55837 19.6691C2.54437 22.0986 1.89105 24.6574 1.55079 27.2775C0.863442 32.572 1.63925 37.9959 3.72851 42.9094C4.2253 44.0731 4.79014 45.2028 5.43665 46.2917C5.81775 46.9314 6.2601 47.9998 7.09036 48.0407H7.12439C7.3898 48.0475 7.66201 48.0407 7.93423 48.0407H12.2965H19.3741H28.0101H37.0612H45.3842H51.8085H55.2384H55.4902C55.8305 48.0271 56.0959 47.9046 56.3136 47.6391C56.7152 47.156 57.0282 46.5435 57.3413 45.999C58.6275 43.7533 59.6347 41.3238 60.3016 38.8194C60.9685 36.3014 61.302 33.6881 61.3088 31.0817C61.3088 30.5508 60.8392 30.0336 60.288 30.0609C59.7299 30.0881 59.2604 30.51 59.2604 31.0817Z" stroke="#5D56F1"/>
<path d="M2.32652 32.1023H3.87815H8.09068H14.338H21.9328H30.283H38.6808H46.541H53.1559H57.9332C58.6818 32.1023 59.4372 32.116 60.1858 32.1023H60.2811C60.8119 32.1023 61.3291 31.6328 61.3019 31.0815C61.2747 30.5303 60.8527 30.0607 60.2811 30.0607C59.7639 30.0607 59.2467 30.0607 58.7295 30.0607C57.3276 30.0607 55.9257 30.0607 54.5169 30.0607C52.4345 30.0607 50.3521 30.0607 48.2696 30.0607C45.738 30.0607 43.2064 30.0607 40.6748 30.0607C37.8914 30.0607 35.108 30.0607 32.3246 30.0607C29.5276 30.0607 26.7238 30.0607 23.9268 30.0607C21.3067 30.0607 18.6866 30.0607 16.0666 30.0607C13.8616 30.0607 11.6567 30.0607 9.45175 30.0607C7.85929 30.0607 6.26684 30.0607 4.67438 30.0607C3.92579 30.0607 3.17039 30.0471 2.4218 30.0607C2.38777 30.0607 2.35374 30.0607 2.32652 30.0607C1.7957 30.0607 1.2785 30.5303 1.30572 31.0815C1.32613 31.6328 1.75487 32.1023 2.32652 32.1023Z" fill="#5D56F1" stroke="#5D56F1"/>
<path d="M32.325 60.0594C32.325 59.5422 32.325 59.025 32.325 58.5078C32.325 57.1059 32.325 55.704 32.325 54.2953C32.325 52.2128 32.325 50.1304 32.325 48.0479C32.325 45.5163 32.325 42.9847 32.325 40.4531C32.325 37.6697 32.325 34.8863 32.325 32.1029C32.325 29.3059 32.325 26.5021 32.325 23.7051C32.325 21.085 32.325 18.465 32.325 15.8449C32.325 13.64 32.325 11.435 32.325 9.23007C32.325 7.63761 32.325 6.04516 32.325 4.4527C32.325 3.70411 32.3386 2.94871 32.325 2.20012C32.325 2.16609 32.325 2.13206 32.325 2.10484C32.325 1.57402 31.8554 1.05682 31.3042 1.08404C30.753 1.11126 30.2834 1.53319 30.2834 2.10484V3.65647V7.869V14.1163V21.7111V30.0613V38.4592V46.3194V52.9342V57.7116C30.2834 58.4602 30.2698 59.2156 30.2834 59.9641V60.0594C30.2834 60.5902 30.753 61.1074 31.3042 61.0802C31.8554 61.0598 32.325 60.6311 32.325 60.0594Z" fill="#5D56F1" stroke="#5D56F1"/>
</svg>
