<svg width="171" height="41" viewBox="0 0 171 41" fill="none" xmlns="http://www.w3.org/2000/svg">
<path d="M52.1621 28.1463H64.1141V24.5463H56.4101V10.9863H52.1621V28.1463Z" fill="#15161B"/>
<path d="M71.1946 25.7465C69.4906 25.7465 68.6026 24.2585 68.6026 22.0265C68.6026 19.7945 69.4906 18.2825 71.1946 18.2825C72.8986 18.2825 73.8106 19.7945 73.8106 22.0265C73.8106 24.2585 72.8986 25.7465 71.1946 25.7465ZM71.2186 28.5305C75.1786 28.5305 77.7706 25.7225 77.7706 22.0265C77.7706 18.3305 75.1786 15.5225 71.2186 15.5225C67.2826 15.5225 64.6426 18.3305 64.6426 22.0265C64.6426 25.7225 67.2826 28.5305 71.2186 28.5305Z" fill="#15161B"/>
<path d="M84.6253 32.394C86.4493 32.394 88.0573 31.986 89.1373 31.026C90.1213 30.138 90.7693 28.794 90.7693 26.946V15.858H87.0253V17.178H86.9773C86.2573 16.146 85.1533 15.498 83.5213 15.498C80.4733 15.498 78.3613 18.042 78.3613 21.642C78.3613 25.41 80.9293 27.474 83.6893 27.474C85.1773 27.474 86.1133 26.874 86.8333 26.058H86.9293V27.282C86.9293 28.77 86.2333 29.634 84.5773 29.634C83.2813 29.634 82.6333 29.082 82.4173 28.434H78.6253C79.0093 31.002 81.2413 32.394 84.6253 32.394ZM84.6013 24.57C83.1373 24.57 82.1773 23.37 82.1773 21.522C82.1773 19.65 83.1373 18.45 84.6013 18.45C86.2333 18.45 87.0973 19.842 87.0973 21.498C87.0973 23.226 86.3053 24.57 84.6013 24.57Z" fill="#15161B"/>
<path d="M98.468 25.7465C96.764 25.7465 95.876 24.2585 95.876 22.0265C95.876 19.7945 96.764 18.2825 98.468 18.2825C100.172 18.2825 101.084 19.7945 101.084 22.0265C101.084 24.2585 100.172 25.7465 98.468 25.7465ZM98.492 28.5305C102.452 28.5305 105.044 25.7225 105.044 22.0265C105.044 18.3305 102.452 15.5225 98.492 15.5225C94.556 15.5225 91.916 18.3305 91.916 22.0265C91.916 25.7225 94.556 28.5305 98.492 28.5305Z" fill="#15161B"/>
<path d="M106.186 28.1463H110.098V15.8583H106.186V28.1463ZM106.186 14.1543H110.098V10.9863H106.186V14.1543Z" fill="#15161B"/>
<path d="M111.796 32.202H115.708V26.874H115.756C116.524 27.906 117.652 28.53 119.236 28.53C122.452 28.53 124.588 25.986 124.588 22.002C124.588 18.306 122.596 15.498 119.332 15.498C117.652 15.498 116.452 16.242 115.612 17.346H115.54V15.858H111.796V32.202ZM118.228 25.506C116.548 25.506 115.588 24.138 115.588 22.146C115.588 20.154 116.452 18.642 118.156 18.642C119.836 18.642 120.628 20.034 120.628 22.146C120.628 24.234 119.716 25.506 118.228 25.506Z" fill="#15161B"/>
<path d="M130.956 28.53C134.172 28.53 136.548 27.138 136.548 24.45C136.548 21.306 134.004 20.754 131.844 20.394C130.284 20.106 128.892 19.986 128.892 19.122C128.892 18.354 129.636 17.994 130.596 17.994C131.676 17.994 132.42 18.33 132.564 19.434H136.164C135.972 17.01 134.1 15.498 130.62 15.498C127.716 15.498 125.316 16.842 125.316 19.434C125.316 22.314 127.596 22.89 129.732 23.25C131.364 23.538 132.852 23.658 132.852 24.762C132.852 25.554 132.108 25.986 130.932 25.986C129.636 25.986 128.82 25.386 128.676 24.162H124.98C125.1 26.874 127.356 28.53 130.956 28.53Z" fill="#15161B"/>
<path d="M141.863 28.5064C143.567 28.5064 144.647 27.8344 145.535 26.6344H145.607V28.1464H149.351V15.8584H145.439V22.7224C145.439 24.1864 144.623 25.1944 143.279 25.1944C142.031 25.1944 141.431 24.4504 141.431 23.1064V15.8584H137.543V23.9224C137.543 26.6584 139.031 28.5064 141.863 28.5064Z" fill="#15161B"/>
<path d="M151.052 28.146H154.964V21.258C154.964 19.794 155.684 18.762 156.908 18.762C158.084 18.762 158.636 19.53 158.636 20.85V28.146H162.548V21.258C162.548 19.794 163.244 18.762 164.492 18.762C165.668 18.762 166.22 19.53 166.22 20.85V28.146H170.132V20.154C170.132 17.394 168.74 15.498 165.956 15.498C164.372 15.498 163.052 16.17 162.092 17.658H162.044C161.42 16.338 160.196 15.498 158.588 15.498C156.812 15.498 155.636 16.338 154.868 17.61H154.796V15.858H151.052V28.146Z" fill="#15161B"/>
<path fill-rule="evenodd" clip-rule="evenodd" d="M20.9854 40.1465C32.0311 40.1465 40.9854 31.1922 40.9854 20.1465C40.9854 9.10079 32.0311 0.146484 20.9854 0.146484C9.93964 0.146484 0.985352 9.10079 0.985352 20.1465C0.985352 31.1922 9.93964 40.1465 20.9854 40.1465ZM27.2247 9.46332C27.5284 8.38453 26.4815 7.74661 25.5254 8.42778L12.1785 17.9361C11.1416 18.6748 11.3047 20.1465 12.4235 20.1465H15.9381V20.1193H22.7879L17.2066 22.0886L14.7461 30.8297C14.4424 31.9085 15.4892 32.5464 16.4454 31.8652L29.7923 22.357C30.8292 21.6183 30.666 20.1465 29.5473 20.1465H24.2175L27.2247 9.46332Z" fill="#5D56F1"/>
</svg>
