<svg width="53" height="41" viewBox="0 0 53 41" fill="none" xmlns="http://www.w3.org/2000/svg">
<path d="M4.70588 37.6622C1.76471 34.4269 0 30.8975 0 25.0151C0 14.721 7.35294 5.60334 17.6471 0.897461L20.2941 4.72099C10.5882 10.0151 8.52941 16.7798 7.94118 21.1916C9.41177 20.3092 11.4706 20.0151 13.5294 20.3092C18.8235 20.8975 22.9412 25.0151 22.9412 30.6033C22.9412 33.2504 21.7647 35.8975 20 37.9563C17.9412 40.0151 15.5882 40.8975 12.6471 40.8975C9.41177 40.8975 6.47059 39.4269 4.70588 37.6622ZM34.1177 37.6622C31.1765 34.4269 29.4118 30.8975 29.4118 25.0151C29.4118 14.721 36.7647 5.60334 47.0588 0.897461L49.7059 4.72099C40 10.0151 37.9412 16.7798 37.3529 21.1916C38.8235 20.3092 40.8824 20.0151 42.9412 20.3092C48.2353 20.8975 52.3529 25.0151 52.3529 30.6033C52.3529 33.2504 51.1765 35.8975 49.4118 37.9563C47.6471 40.0151 45 40.8975 42.0588 40.8975C38.8235 40.8975 35.8824 39.4269 34.1177 37.6622Z" fill="#5D56F1"/>
</svg>
