<svg width="64" height="61" viewBox="0 0 64 61" fill="none" xmlns="http://www.w3.org/2000/svg">
<path d="M63.1564 32.9086C62.5952 27.2638 60.0733 21.942 56.0551 17.9237C52.6211 14.4899 48.4181 12.2832 43.9955 11.3021V8.20017C45.8018 7.75079 47.1445 6.11573 47.1445 4.1723C47.1445 1.88349 45.2825 0.0214844 42.9937 0.0214844H34.2037C31.9149 0.0214844 30.0529 1.88349 30.0529 4.1723C30.0529 6.11561 31.3956 7.75066 33.2018 8.20017V11.3107C28.7928 12.296 24.6036 14.4996 21.1794 17.9238C20.4301 18.6732 19.7391 19.4593 19.1066 20.2762C19.076 20.2739 19.0453 20.2716 19.0141 20.2716H10.3143C9.64018 20.2716 9.0935 20.8182 9.0935 21.4924C9.0935 22.1667 9.64018 22.7132 10.3143 22.7132H17.4454C16.5503 24.2118 15.8286 25.7856 15.2792 27.4056H1.99231C1.31817 27.4056 0.771484 27.9522 0.771484 28.6264C0.771484 29.3007 1.31817 29.8473 1.99231 29.8473H14.5893C14.2375 31.3917 14.0355 32.9636 13.9834 34.5398H8.58478C7.91064 34.5398 7.36395 35.0863 7.36395 35.7606C7.36395 36.4349 7.91064 36.9814 8.58478 36.9814H14.0223C14.1254 38.5617 14.3794 40.1336 14.7846 41.6739H6.87562C6.20148 41.6739 5.65479 42.2205 5.65479 42.8947C5.65479 43.569 6.20148 44.1156 6.87562 44.1156H15.5638C16.7614 47.2837 18.633 50.2532 21.1794 52.7996C25.2016 56.8217 30.5288 59.3442 36.1795 59.9025C36.986 59.9821 37.7931 60.0215 38.5991 60.0215C43.363 60.0215 48.0663 58.6428 52.0572 56.0439C52.6222 55.676 52.782 54.9196 52.4141 54.3546C52.0461 53.7896 51.2898 53.6298 50.7248 53.9978C41.9889 59.6865 30.2894 58.4565 22.9059 51.0731C14.2427 42.4098 14.2427 28.3138 22.9059 19.6504C31.5691 10.9873 45.6651 10.9873 54.3284 19.6504C61.7021 27.0242 62.9388 38.7138 57.2689 47.4454C56.9017 48.0109 57.0625 48.767 57.6279 49.1341C58.1936 49.5014 58.9495 49.3406 59.3166 48.7751C62.346 44.1097 63.7097 38.475 63.1564 32.9086ZM32.4946 4.17242C32.4946 3.22994 33.2612 2.46326 34.2037 2.46326H42.9937C43.9362 2.46326 44.7028 3.22994 44.7028 4.17242C44.7028 5.1149 43.9362 5.88158 42.9937 5.88158H42.7747H34.4226H34.2037C33.2612 5.88158 32.4946 5.11478 32.4946 4.17242ZM35.6434 10.891V8.32323H41.5538V10.8866C39.5912 10.6532 37.6057 10.6546 35.6434 10.891Z" fill="#5D56F1"/>
<path d="M55.1915 50.7148C54.8692 50.7148 54.5555 50.8455 54.3285 51.0725C54.1002 51.2996 53.9707 51.6146 53.9707 51.9357C53.9707 52.2567 54.1002 52.5717 54.3285 52.7988C54.5555 53.0271 54.8693 53.1565 55.1915 53.1565C55.5126 53.1565 55.8263 53.0271 56.0546 52.7988C56.2817 52.5717 56.4123 52.2567 56.4123 51.9357C56.4123 51.6146 56.2818 51.2996 56.0546 51.0725C55.8263 50.8455 55.5125 50.7148 55.1915 50.7148Z" fill="#15161B"/>
<path d="M38.6183 16.4229C28.1755 16.4229 19.6797 24.9186 19.6797 35.3614C19.6797 45.8043 28.1755 54.3 38.6183 54.3C49.061 54.3 57.5568 45.8043 57.5568 35.3614C57.5568 24.9186 49.061 16.4229 38.6183 16.4229ZM38.6183 51.8583C29.5218 51.8583 22.1213 44.4578 22.1213 35.3614C22.1213 26.265 29.5218 18.8645 38.6183 18.8645C47.7148 18.8645 55.1152 26.265 55.1152 35.3614C55.1152 44.4578 47.7148 51.8583 38.6183 51.8583Z" fill="#15161B"/>
<path d="M46.3389 25.9122L40.2922 31.9589C39.7865 31.7088 39.2177 31.5676 38.6165 31.5676C38.0151 31.5676 37.4464 31.7088 36.9408 31.9589L34.2346 29.2527C33.7577 28.7759 32.9849 28.7759 32.5079 29.2527C32.0312 29.7294 32.0312 30.5024 32.5079 30.9792L35.2141 33.6854C34.964 34.191 34.8229 34.7598 34.8229 35.3611C34.8229 37.4528 36.5246 39.1547 38.6165 39.1547C40.7084 39.1547 42.4101 37.4528 42.4101 35.3611C42.4101 34.7598 42.2688 34.191 42.0188 33.6854L47.888 27.8161L48.0654 27.6387C48.5422 27.162 48.5422 26.389 48.0654 25.9122C47.5887 25.4355 46.8159 25.4355 46.3389 25.9122ZM38.6165 36.7131C37.871 36.7131 37.2645 36.1066 37.2645 35.3612C37.2645 34.6158 37.871 34.0093 38.6165 34.0093C39.3619 34.0093 39.9684 34.6158 39.9684 35.3612C39.9684 36.1066 39.3619 36.7131 38.6165 36.7131Z" fill="#15161B"/>
<path d="M51.6702 34.1553H50.5392C49.865 34.1553 49.3184 34.7018 49.3184 35.3761C49.3184 36.0503 49.865 36.5969 50.5392 36.5969H51.6702C52.3444 36.5969 52.8911 36.0503 52.8911 35.3761C52.8911 34.7018 52.3444 34.1553 51.6702 34.1553Z" fill="#15161B"/>
<path d="M26.6955 34.126H25.5646C24.8904 34.126 24.3438 34.6725 24.3438 35.3468C24.3438 36.021 24.8904 36.5676 25.5646 36.5676H26.6955C27.3696 36.5676 27.9163 36.021 27.9163 35.3468C27.9163 34.6725 27.3696 34.126 26.6955 34.126Z" fill="#15161B"/>
<path d="M38.6329 24.6605C39.307 24.6605 39.8537 24.1139 39.8537 23.4397V22.3087C39.8537 21.6344 39.307 21.0879 38.6329 21.0879C37.9588 21.0879 37.4121 21.6344 37.4121 22.3087V23.4397C37.4121 24.1139 37.9588 24.6605 38.6329 24.6605Z" fill="#15161B"/>
<path d="M38.6017 46.0625C37.9275 46.0625 37.3809 46.6091 37.3809 47.2833V48.4143C37.3809 49.0885 37.9275 49.6351 38.6017 49.6351C39.2758 49.6351 39.8225 49.0885 39.8225 48.4143V47.2833C39.8225 46.6091 39.2758 46.0625 38.6017 46.0625Z" fill="#15161B"/>
<path d="M1.99229 41.6738C1.67122 41.6738 1.35625 41.8045 1.12918 42.0315C0.902111 42.2586 0.771484 42.5736 0.771484 42.8946C0.771484 43.2169 0.901989 43.5307 1.12918 43.7577C1.35637 43.9848 1.67122 44.1154 1.99229 44.1154C2.31337 44.1154 2.62833 43.9848 2.85528 43.7577C3.08235 43.5307 3.2131 43.2157 3.2131 42.8946C3.2131 42.5736 3.08247 42.2586 2.85528 42.0315C2.62833 41.8045 2.31337 41.6738 1.99229 41.6738Z" fill="#15161B"/>
</svg>
