<svg width="168" height="41" viewBox="0 0 168 41" fill="none" xmlns="http://www.w3.org/2000/svg">
<path d="M49.0537 28.1756H61.0057V24.5756H53.3017V11.0156H49.0537V28.1756Z" fill="#15161B"/>
<path d="M68.0872 25.7767C66.3832 25.7767 65.4952 24.2887 65.4952 22.0567C65.4952 19.8247 66.3832 18.3127 68.0872 18.3127C69.7912 18.3127 70.7032 19.8247 70.7032 22.0567C70.7032 24.2887 69.7912 25.7767 68.0872 25.7767ZM68.1112 28.5607C72.0712 28.5607 74.6632 25.7527 74.6632 22.0567C74.6632 18.3607 72.0712 15.5527 68.1112 15.5527C64.1752 15.5527 61.5352 18.3607 61.5352 22.0567C61.5352 25.7527 64.1752 28.5607 68.1112 28.5607Z" fill="#15161B"/>
<path d="M81.5179 32.4233C83.3419 32.4233 84.9499 32.0153 86.0299 31.0553C87.0139 30.1673 87.6619 28.8233 87.6619 26.9753V15.8873H83.9179V17.2073H83.8699C83.1499 16.1753 82.0459 15.5273 80.4139 15.5273C77.3659 15.5273 75.2539 18.0713 75.2539 21.6713C75.2539 25.4393 77.8219 27.5033 80.5819 27.5033C82.0699 27.5033 83.0059 26.9033 83.7259 26.0873H83.8219V27.3113C83.8219 28.7993 83.1259 29.6633 81.4699 29.6633C80.1739 29.6633 79.5259 29.1113 79.3099 28.4633H75.5179C75.9019 31.0313 78.1339 32.4233 81.5179 32.4233ZM81.4939 24.5993C80.0299 24.5993 79.0699 23.3993 79.0699 21.5513C79.0699 19.6793 80.0299 18.4793 81.4939 18.4793C83.1259 18.4793 83.9899 19.8713 83.9899 21.5273C83.9899 23.2553 83.1979 24.5993 81.4939 24.5993Z" fill="#15161B"/>
<path d="M95.3596 25.7767C93.6556 25.7767 92.7676 24.2887 92.7676 22.0567C92.7676 19.8247 93.6556 18.3127 95.3596 18.3127C97.0636 18.3127 97.9756 19.8247 97.9756 22.0567C97.9756 24.2887 97.0636 25.7767 95.3596 25.7767ZM95.3836 28.5607C99.3436 28.5607 101.935 25.7527 101.935 22.0567C101.935 18.3607 99.3436 15.5527 95.3836 15.5527C91.4476 15.5527 88.8076 18.3607 88.8076 22.0567C88.8076 25.7527 91.4476 28.5607 95.3836 28.5607Z" fill="#15161B"/>
<path d="M103.078 28.1756H106.99V15.8876H103.078V28.1756ZM103.078 14.1836H106.99V11.0156H103.078V14.1836Z" fill="#15161B"/>
<path d="M108.688 32.2313H112.599V26.9033H112.647C113.415 27.9353 114.543 28.5593 116.127 28.5593C119.343 28.5593 121.479 26.0153 121.479 22.0313C121.479 18.3353 119.487 15.5273 116.223 15.5273C114.543 15.5273 113.343 16.2713 112.503 17.3753H112.431V15.8873H108.688V32.2313ZM115.119 25.5353C113.439 25.5353 112.479 24.1673 112.479 22.1753C112.479 20.1833 113.344 18.6713 115.048 18.6713C116.728 18.6713 117.519 20.0633 117.519 22.1753C117.519 24.2633 116.607 25.5353 115.119 25.5353Z" fill="#15161B"/>
<path d="M127.848 28.5593C131.064 28.5593 133.44 27.1673 133.44 24.4793C133.44 21.3353 130.896 20.7833 128.736 20.4233C127.176 20.1353 125.784 20.0153 125.784 19.1513C125.784 18.3833 126.528 18.0233 127.488 18.0233C128.568 18.0233 129.312 18.3593 129.456 19.4633H133.056C132.864 17.0393 130.992 15.5273 127.512 15.5273C124.608 15.5273 122.208 16.8713 122.208 19.4633C122.208 22.3433 124.488 22.9193 126.624 23.2793C128.256 23.5673 129.744 23.6873 129.744 24.7913C129.744 25.5833 129 26.0153 127.824 26.0153C126.528 26.0153 125.712 25.4153 125.568 24.1913H121.872C121.992 26.9033 124.248 28.5593 127.848 28.5593Z" fill="#15161B"/>
<path d="M138.755 28.5367C140.459 28.5367 141.539 27.8647 142.427 26.6647H142.499V28.1767H146.243V15.8887H142.331V22.7527C142.331 24.2167 141.515 25.2247 140.171 25.2247C138.923 25.2247 138.323 24.4807 138.323 23.1367V15.8887H134.435V23.9527C134.435 26.6887 135.923 28.5367 138.755 28.5367Z" fill="#15161B"/>
<path d="M147.944 28.1753H151.856V21.2873C151.856 19.8233 152.576 18.7913 153.8 18.7913C154.976 18.7913 155.528 19.5593 155.528 20.8793V28.1753H159.44V21.2873C159.44 19.8233 160.136 18.7913 161.384 18.7913C162.56 18.7913 163.112 19.5593 163.112 20.8793V28.1753H167.024V20.1833C167.024 17.4233 165.632 15.5273 162.848 15.5273C161.264 15.5273 159.944 16.1993 158.984 17.6873H158.936C158.312 16.3673 157.088 15.5273 155.48 15.5273C153.704 15.5273 152.528 16.3673 151.76 17.6393H151.688V15.8873H147.944V28.1753Z" fill="#15161B"/>
<path d="M25.1863 1.20034L21.2533 0.146484L17.9389 12.5161L14.9466 1.34872L11.0135 2.40258L14.2465 14.4681L6.19383 6.41546L3.31464 9.29465L12.1474 18.1275L1.14761 15.1801L0.09375 19.1131L12.1124 22.3335C11.9748 21.74 11.902 21.1216 11.902 20.4862C11.902 15.9886 15.548 12.3426 20.0456 12.3426C24.5432 12.3426 28.1892 15.9886 28.1892 20.4862C28.1892 21.1175 28.1173 21.7321 27.9814 22.3221L38.9041 25.2488L39.9579 21.3158L27.8915 18.0826L38.892 15.135L37.8381 11.202L25.7722 14.435L33.8248 6.3824L30.9456 3.50321L22.2354 12.2135L25.1863 1.20034Z" fill="#5D56F1"/>
<path d="M27.9702 22.3682C27.633 23.7938 26.9211 25.0745 25.9443 26.1006L33.8573 34.0137L36.7365 31.1345L27.9702 22.3682Z" fill="#5D56F1"/>
<path d="M25.8645 26.1836C24.8759 27.1933 23.6266 27.9468 22.2256 28.3351L25.105 39.0811L29.038 38.0272L25.8645 26.1836Z" fill="#5D56F1"/>
<path d="M22.0787 28.3739C21.4287 28.541 20.7474 28.6298 20.0453 28.6298C19.2931 28.6298 18.5647 28.5278 17.8732 28.3369L14.9912 39.0927L18.9242 40.1465L22.0787 28.3739Z" fill="#5D56F1"/>
<path d="M17.7341 28.2976C16.3545 27.89 15.1274 27.1269 14.159 26.1143L6.22656 34.0468L9.10575 36.926L17.7341 28.2976Z" fill="#5D56F1"/>
<path d="M14.0936 26.0436C13.1418 25.0246 12.4485 23.761 12.1185 22.3574L1.16016 25.2937L2.21401 29.2267L14.0936 26.0436Z" fill="#5D56F1"/>
</svg>
