<svg width="203" height="41" viewBox="0 0 203 41" fill="none" xmlns="http://www.w3.org/2000/svg">
<path fill-rule="evenodd" clip-rule="evenodd" d="M26.336 11.8318C24.6915 10.733 22.7581 10.1465 20.7803 10.1465V0.146484C24.7359 0.146484 28.6027 1.31946 31.8917 3.51709C35.1807 5.71471 37.7441 8.83829 39.2579 12.4928C40.7716 16.1473 41.1677 20.1687 40.396 24.0483C39.6243 27.9279 37.7195 31.4916 34.9224 34.2886C32.1254 37.0857 28.5617 38.9905 24.6821 39.7622C20.8025 40.5339 16.7811 40.1378 13.1266 38.6241C9.47207 37.1103 6.3485 34.5469 4.15088 31.2579C1.95325 27.9689 0.780273 24.1021 0.780273 20.1465H10.7803C10.7803 22.1243 11.3668 24.0577 12.4656 25.7022C13.5644 27.3467 15.1262 28.6284 16.9535 29.3853C18.7807 30.1422 20.7914 30.3402 22.7312 29.9543C24.671 29.5685 26.4528 28.6161 27.8514 27.2176C29.2499 25.819 30.2023 24.0372 30.5881 22.0974C30.974 20.1576 30.776 18.1469 30.0191 16.3197C29.2622 14.4924 27.9805 12.9306 26.336 11.8318Z" fill="#5D56F1"/>
<path fill-rule="evenodd" clip-rule="evenodd" d="M10.7803 0.14649C10.7803 1.45971 10.5216 2.76007 10.0191 3.97333C9.51652 5.18658 8.77993 6.28897 7.85134 7.21756C6.92276 8.14615 5.82037 8.88274 4.60711 9.38529C3.39385 9.88783 2.09349 10.1465 0.780274 10.1465L0.780273 20.1465C3.40671 20.1465 6.00743 19.6292 8.43395 18.6241C10.8605 17.619 13.0653 16.1458 14.9224 14.2886C16.7796 12.4315 18.2528 10.2267 19.2579 7.80016C20.263 5.37364 20.7803 2.77292 20.7803 0.146484L10.7803 0.14649Z" fill="#5D56F1"/>
<path d="M126.399 14.5996H121.547V30.0119H126.399V14.5996Z" fill="#15161B"/>
<path d="M122.087 11.7131C122.594 12.2205 123.228 12.4742 123.989 12.4742C124.75 12.4742 125.374 12.2205 125.86 11.7131C126.347 11.1846 126.59 10.5503 126.59 9.81033C126.59 9.04925 126.347 8.41497 125.86 7.90759C125.374 7.40017 124.75 7.14648 123.989 7.14648C123.228 7.14648 122.594 7.40017 122.087 7.90759C121.6 8.41497 121.357 9.04925 121.357 9.81033C121.357 10.5503 121.6 11.1846 122.087 11.7131Z" fill="#15161B"/>
<path d="M51.9365 30.0112V7.62207H56.9154V25.6349H66.8415V30.0112H51.9365Z" fill="#15161B"/>
<path fill-rule="evenodd" clip-rule="evenodd" d="M75.8076 30.36C74.222 30.36 72.7844 30.0112 71.4947 29.3135C70.2262 28.5947 69.222 27.6222 68.482 26.3959C67.7421 25.1697 67.3721 23.7955 67.3721 22.2733C67.3721 20.7511 67.7421 19.3875 68.482 18.1824C69.222 16.9773 70.2262 16.0259 71.4947 15.3283C72.7632 14.6094 74.2009 14.25 75.8076 14.25C77.4144 14.25 78.852 14.5989 80.1205 15.2965C81.389 15.9942 82.3933 16.9562 83.1332 18.1824C83.8732 19.3875 84.2432 20.7511 84.2432 22.2733C84.2432 23.7955 83.8732 25.1697 83.1332 26.3959C82.3933 27.6222 81.389 28.5947 80.1205 29.3135C78.852 30.0112 77.4144 30.36 75.8076 30.36ZM75.8076 25.952C76.5053 25.952 77.1184 25.804 77.647 25.508C78.1755 25.1909 78.5772 24.7575 78.852 24.2078C79.148 23.637 79.296 22.9921 79.296 22.2733C79.296 21.5545 79.148 20.9308 78.852 20.4023C78.556 19.8526 78.1438 19.4298 77.6152 19.1338C77.1078 18.8166 76.5053 18.6581 75.8076 18.6581C75.1311 18.6581 74.5286 18.8166 74 19.1338C73.4715 19.4298 73.0592 19.8526 72.7632 20.4023C72.4672 20.952 72.3193 21.5862 72.3193 22.305C72.3193 23.0027 72.4672 23.637 72.7632 24.2078C73.0592 24.7575 73.4715 25.1909 74 25.508C74.5286 25.804 75.1311 25.952 75.8076 25.952Z" fill="#15161B"/>
<path fill-rule="evenodd" clip-rule="evenodd" d="M88.0859 36.0362C89.3755 36.6281 90.866 36.924 92.5574 36.924C94.2064 36.924 95.6758 36.5963 96.9654 35.9409C98.2551 35.2855 99.2698 34.3765 100.01 33.2137C100.75 32.0509 101.12 30.6768 101.12 29.0911V14.5985H96.3628V15.634C96.009 15.3362 95.6072 15.0862 95.1578 14.8839C94.3332 14.4822 93.3924 14.2812 92.3354 14.2812C90.9189 14.2812 89.6609 14.6196 88.5616 15.2961C87.4621 15.9515 86.5954 16.8605 85.9611 18.0233C85.3268 19.165 85.0098 20.4547 85.0098 21.8924C85.0098 23.3089 85.3268 24.5984 85.9611 25.7612C86.5954 26.924 87.4621 27.8438 88.5616 28.5203C89.6609 29.1968 90.9189 29.535 92.3354 29.535C93.3713 29.535 94.3121 29.3343 95.1578 28.9326C95.5674 28.738 95.9374 28.5087 96.2677 28.2446V29.218C96.2677 30.2962 95.9189 31.1312 95.2212 31.7232C94.5447 32.3153 93.6039 32.6111 92.3988 32.6111C91.4263 32.6111 90.5912 32.4421 89.8935 32.1038C89.217 31.7656 88.6038 31.2687 88.0541 30.6133L85.0732 33.5942C85.8131 34.6514 86.8174 35.4654 88.0859 36.0362ZM94.9992 24.7782C94.5129 25.0742 93.9316 25.2222 93.255 25.2222C92.5785 25.2222 91.9865 25.0742 91.4791 24.7782C90.9928 24.4822 90.6123 24.0804 90.3375 23.573C90.0626 23.0445 89.9252 22.4843 89.9252 21.8924C89.9252 21.2581 90.0626 20.6872 90.3375 20.1798C90.6123 19.6724 91.0034 19.2708 91.5108 18.9748C92.0182 18.6788 92.5996 18.5308 93.255 18.5308C93.9316 18.5308 94.5129 18.6788 94.9992 18.9748C95.5066 19.2708 95.8871 19.6724 96.1409 20.1798C96.4157 20.6872 96.5531 21.2581 96.5531 21.8924C96.5531 22.5266 96.4157 23.0974 96.1409 23.6047C95.8871 24.091 95.5066 24.4822 94.9992 24.7782Z" fill="#15161B"/>
<path fill-rule="evenodd" clip-rule="evenodd" d="M111.332 30.36C109.746 30.36 108.308 30.0112 107.019 29.3135C105.75 28.5947 104.746 27.6222 104.006 26.3959C103.266 25.1697 102.896 23.7955 102.896 22.2733C102.896 20.7511 103.266 19.3875 104.006 18.1824C104.746 16.9773 105.75 16.0259 107.019 15.3283C108.287 14.6094 109.725 14.25 111.332 14.25C112.938 14.25 114.376 14.5989 115.644 15.2965C116.913 15.9942 117.917 16.9562 118.657 18.1824C119.397 19.3875 119.767 20.7511 119.767 22.2733C119.767 23.7955 119.397 25.1697 118.657 26.3959C117.917 27.6222 116.913 28.5947 115.644 29.3135C114.376 30.0112 112.938 30.36 111.332 30.36ZM111.332 25.952C112.029 25.952 112.642 25.804 113.171 25.508C113.699 25.1909 114.101 24.7575 114.376 24.2078C114.672 23.637 114.82 22.9921 114.82 22.2733C114.82 21.5545 114.672 20.9308 114.376 20.4023C114.08 19.8526 113.668 19.4298 113.139 19.1338C112.632 18.8166 112.029 18.6581 111.332 18.6581C110.655 18.6581 110.052 18.8166 109.524 19.1338C108.995 19.4298 108.583 19.8526 108.287 20.4023C107.991 20.952 107.843 21.5862 107.843 22.305C107.843 23.0027 107.991 23.637 108.287 24.2078C108.583 24.7575 108.995 25.1909 109.524 25.508C110.052 25.804 110.655 25.952 111.332 25.952Z" fill="#15161B"/>
<path fill-rule="evenodd" clip-rule="evenodd" d="M138.062 30.3279C137.027 30.3279 136.075 30.127 135.208 29.7253C134.752 29.5139 134.34 29.2616 133.972 28.9682V36.5118H129.183V14.5985H134.035V15.6622C134.387 15.3743 134.778 15.1254 135.208 14.9156C136.075 14.4927 137.027 14.2812 138.062 14.2812C139.521 14.2812 140.811 14.6302 141.931 15.3279C143.073 16.0255 143.961 16.9768 144.595 18.1819C145.251 19.387 145.578 20.7613 145.578 22.3046C145.578 23.8479 145.251 25.2221 144.595 26.4272C143.961 27.6323 143.073 28.5837 141.931 29.2814C140.811 29.9791 139.521 30.3279 138.062 30.3279ZM137.175 25.9515C137.872 25.9515 138.475 25.793 138.982 25.4759C139.511 25.1588 139.923 24.7252 140.219 24.1756C140.515 23.6259 140.663 23.0023 140.663 22.3046C140.663 21.5858 140.515 20.9515 140.219 20.4018C139.923 19.8521 139.511 19.4294 138.982 19.1334C138.475 18.8162 137.883 18.6576 137.206 18.6576C136.53 18.6576 135.927 18.8162 135.399 19.1334C134.891 19.4294 134.49 19.8521 134.194 20.4018C133.898 20.9515 133.75 21.5858 133.75 22.3046C133.75 23.0023 133.887 23.6259 134.162 24.1756C134.458 24.7252 134.87 25.1588 135.399 25.4759C135.927 25.793 136.519 25.9515 137.175 25.9515Z" fill="#15161B"/>
<path d="M150.326 30.0423C151.214 30.2749 152.112 30.3911 153.021 30.3911C154.945 30.3911 156.467 29.9472 157.588 29.0592C158.729 28.1713 159.3 26.9768 159.3 25.4757C159.3 24.5032 159.121 23.7209 158.761 23.129C158.402 22.5159 157.937 22.0296 157.366 21.6702C156.795 21.3108 156.192 21.0253 155.558 20.8139C154.924 20.6025 154.321 20.4228 153.751 20.2748C153.18 20.1268 152.715 19.9577 152.355 19.7674C151.996 19.5771 151.816 19.3234 151.816 19.0063C151.816 18.7103 151.954 18.4883 152.228 18.3403C152.503 18.1712 152.915 18.0867 153.465 18.0867C154.036 18.0867 154.617 18.2029 155.209 18.4355C155.822 18.668 156.372 19.0698 156.858 19.6406L159.617 16.8499C158.92 15.9619 158.011 15.2959 156.89 14.852C155.791 14.3869 154.586 14.1543 153.275 14.1543C152.028 14.1543 150.939 14.3657 150.009 14.7885C149.078 15.2114 148.359 15.7928 147.852 16.5327C147.345 17.2515 147.091 18.1078 147.091 19.1015C147.091 20.0317 147.271 20.8034 147.63 21.4165C147.989 22.0084 148.455 22.4736 149.025 22.8118C149.596 23.1501 150.199 23.4144 150.833 23.6046C151.467 23.7949 152.07 23.9746 152.641 24.1438C153.211 24.2918 153.677 24.4715 154.036 24.6829C154.417 24.8732 154.607 25.1586 154.607 25.5391C154.607 25.8351 154.448 26.0676 154.131 26.2368C153.835 26.4059 153.402 26.4905 152.831 26.4905C152.006 26.4905 151.245 26.3425 150.548 26.0465C149.85 25.7294 149.247 25.296 148.74 24.7463L145.981 27.537C146.51 28.1078 147.144 28.6153 147.884 29.0592C148.645 29.482 149.459 29.8097 150.326 30.0423Z" fill="#15161B"/>
<path d="M168.148 30.3607C166.732 30.3607 165.474 30.0753 164.375 29.5045C163.296 28.9125 162.451 28.1091 161.838 27.0943C161.224 26.0584 160.918 24.8745 160.918 23.5425V14.5996H165.77V23.4791C165.77 24.0076 165.854 24.4622 166.024 24.8427C166.214 25.2233 166.489 25.5193 166.848 25.7307C167.208 25.9421 167.641 26.0478 168.148 26.0478C168.867 26.0478 169.438 25.8258 169.861 25.3818C170.284 24.9167 170.495 24.2825 170.495 23.4791V14.5996H175.347V23.5108C175.347 24.8639 175.041 26.0584 174.427 27.0943C173.814 28.1091 172.969 28.9125 171.89 29.5045C170.812 30.0753 169.565 30.3607 168.148 30.3607Z" fill="#15161B"/>
<path d="M182.611 14.5985H177.759V30.0107H182.611V21.0044C182.611 20.4759 182.717 20.0319 182.928 19.6725C183.161 19.3131 183.468 19.0381 183.848 18.8479C184.229 18.6364 184.662 18.5308 185.148 18.5308C185.846 18.5308 186.427 18.7528 186.892 19.1968C187.379 19.6196 187.622 20.2222 187.622 21.0044V30.0107H192.474V21.0044C192.474 20.4759 192.58 20.0319 192.791 19.6725C193.024 19.3131 193.33 19.0381 193.711 18.8479C194.091 18.6364 194.525 18.5308 195.011 18.5308C195.709 18.5308 196.29 18.7528 196.755 19.1968C197.241 19.6196 197.484 20.2222 197.484 21.0044V30.0107H202.337V20.4653C202.337 19.1757 202.062 18.0763 201.512 17.1672C200.983 16.2369 200.254 15.5286 199.324 15.0424C198.415 14.5349 197.368 14.2812 196.184 14.2812C194.979 14.2812 193.89 14.5456 192.918 15.0742C192.286 15.4109 191.734 15.8454 191.261 16.3778C190.82 15.8209 190.284 15.3653 189.651 15.0107C188.806 14.5245 187.844 14.2812 186.766 14.2812C185.624 14.2812 184.599 14.5245 183.69 15.0107C183.294 15.213 182.935 15.4553 182.611 15.7376V14.5985Z" fill="#15161B"/>
</svg>
