<svg width="47" height="61" viewBox="0 0 47 61" fill="none" xmlns="http://www.w3.org/2000/svg">
<path d="M23.8836 0.0214844C21.5138 0.0241516 19.1677 0.49356 16.9793 1.40291C14.7909 2.31225 12.8031 3.64373 11.1293 5.32132C9.45546 6.99891 8.12846 8.98975 7.22405 11.1802C6.31963 13.3706 5.85551 15.7177 5.85818 18.0875V27.1409H5.11643C3.9648 27.1409 2.86019 27.5977 2.04492 28.411C1.22964 29.2244 0.770269 30.3279 0.767578 31.4796V55.6828C0.770269 56.8344 1.22964 57.938 2.04492 58.7513C2.86019 59.5647 3.9648 60.0215 5.11643 60.0215H42.6507C43.8024 60.0215 44.907 59.5647 45.7222 58.7513C46.5375 57.938 46.9969 56.8344 46.9996 55.6828V31.4389C46.9969 30.2873 46.5375 29.1838 45.7222 28.3704C44.907 27.557 43.8024 27.1002 42.6507 27.1002H41.909V18.0875C41.9117 15.7177 41.4475 13.3706 40.5431 11.1802C39.6387 8.98975 38.3117 6.99891 36.6379 5.32132C34.9641 3.64373 32.9762 2.31225 30.7878 1.40291C28.5994 0.49356 26.2534 0.0241516 23.8836 0.0214844ZM7.89036 18.0875C7.89036 13.8459 9.57535 9.77792 12.5747 6.77861C15.574 3.7793 19.6419 2.0943 23.8836 2.0943C28.1252 2.0943 32.1932 3.7793 35.1925 6.77861C38.1918 9.77792 39.8768 13.8459 39.8768 18.0875V27.1409H36.0766V18.0875C36.0766 14.8537 34.792 11.7524 32.5054 9.46574C30.2187 7.1791 27.1174 5.89447 23.8836 5.89447C20.6498 5.89447 17.5484 7.1791 15.2618 9.46574C12.9751 11.7524 11.6905 14.8537 11.6905 18.0875V27.1409H7.89036V18.0875ZM13.7227 27.1002V18.0875C13.7227 15.3927 14.7932 12.8082 16.6988 10.9027C18.6043 8.99717 21.1887 7.92665 23.8836 7.92665C26.5784 7.92665 29.1629 8.99717 31.0684 10.9027C32.9739 12.8082 34.0445 15.3927 34.0445 18.0875V27.1409L13.7227 27.1002ZM44.9471 31.4389V55.6828C44.9444 56.2955 44.6991 56.8821 44.265 57.3144C43.8308 57.7466 43.2431 57.9893 42.6304 57.9893H5.11643C4.50377 57.9893 3.91605 57.7466 3.48188 57.3144C3.04771 56.8821 2.80244 56.2955 2.79975 55.6828V31.4389C2.80244 30.8263 3.04771 30.2396 3.48188 29.8074C3.91605 29.3751 4.50377 29.1324 5.11643 29.1324H42.6507C43.2634 29.1324 43.8511 29.3751 44.2853 29.8074C44.7195 30.2396 44.9647 30.8263 44.9674 31.4389H44.9471Z" fill="#5D56F1"/>
<path d="M27.8053 42.8813H20.7536V36.8661H27.8053C28.0748 36.8661 28.3332 36.759 28.5238 36.5685C28.7143 36.3779 28.8214 36.1195 28.8214 35.85C28.8214 35.5805 28.7143 35.322 28.5238 35.1315C28.3332 34.9409 28.0748 34.8339 27.8053 34.8339H24.8993L24.818 31.7856C24.818 31.5161 24.7109 31.2577 24.5204 31.0671C24.3298 30.8766 24.0714 30.7695 23.8019 30.7695C23.5324 30.7695 23.274 30.8766 23.0834 31.0671C22.8929 31.2577 22.7858 31.5161 22.7858 31.7856L22.8671 34.8339H19.8188C19.5493 34.8339 19.2909 34.9409 19.1003 35.1315C18.9098 35.322 18.8027 35.5805 18.8027 35.85V43.8974C18.8027 44.1669 18.9098 44.4253 19.1003 44.6159C19.2909 44.8064 19.5493 44.9135 19.8188 44.9135H26.9314L27.094 51.01L19.8188 51.2132C19.5493 51.2132 19.2909 51.3203 19.1003 51.5108C18.9098 51.7014 18.8027 51.9598 18.8027 52.2293C18.8027 52.4988 18.9098 52.7572 19.1003 52.9478C19.2909 53.1383 19.5493 53.2454 19.8188 53.2454L22.8061 53.1539V56.0193C22.8061 56.2888 22.9132 56.5472 23.1037 56.7378C23.2943 56.9284 23.5527 57.0354 23.8222 57.0354C24.0917 57.0354 24.3501 56.9284 24.5407 56.7378C24.7312 56.5472 24.8383 56.2888 24.8383 56.0193V53.0625L28.1101 52.9711C28.3796 52.9711 28.638 52.864 28.8286 52.6734C29.0191 52.4829 29.1262 52.2245 29.1262 51.955L28.9026 43.9075C28.9045 43.7661 28.8768 43.6259 28.8214 43.4958C28.766 43.3657 28.684 43.2486 28.5807 43.152C28.4774 43.0554 28.3551 42.9814 28.2215 42.9348C28.088 42.8882 27.9462 42.87 27.8053 42.8813Z" fill="#15161B"/>
<path d="M14.6372 36.1943C14.7539 36.1276 14.8564 36.0385 14.9387 35.9322C15.0211 35.8259 15.0817 35.7044 15.117 35.5747C15.1524 35.4449 15.1619 35.3095 15.1449 35.1761C15.128 35.0427 15.0849 34.914 15.0182 34.7972C14.9515 34.6804 14.8624 34.578 14.7561 34.4956C14.6498 34.4133 14.5283 34.3527 14.3986 34.3173C14.2688 34.282 14.1334 34.2725 14 34.2894C13.8666 34.3064 13.7378 34.3495 13.6211 34.4162C13.0927 34.721 8.38823 37.4644 7.7481 43.0631C7.52135 45.3111 7.95522 47.5764 8.99658 49.5815C10.0379 51.5866 11.6415 53.2444 13.6109 54.3518C13.7658 54.4396 13.941 54.4851 14.119 54.4839C14.297 54.4857 14.4724 54.4406 14.6276 54.3532C14.7827 54.2658 14.9122 54.1392 15.003 53.986C15.1287 53.7592 15.163 53.4929 15.0987 53.2417C15.0345 52.9904 14.8767 52.7733 14.6575 52.6346C13.029 51.7273 11.7009 50.3641 10.8362 48.7125C9.97164 47.0609 9.60815 45.1927 9.79043 43.3374C10.0091 41.859 10.5585 40.4489 11.3977 39.2121C12.2368 37.9754 13.3441 36.9438 14.6372 36.1943Z" fill="#15161B"/>
<path d="M33.7996 34.4162C33.5638 34.2814 33.2842 34.2459 33.0221 34.3173C32.7601 34.3888 32.5372 34.5614 32.4025 34.7972C32.2678 35.033 32.2322 35.3127 32.3037 35.5747C32.3751 35.8367 32.5477 36.0596 32.7835 36.1943C34.0734 36.9413 35.1793 37.9681 36.0198 39.199C36.8604 40.4299 37.4142 41.8337 37.6404 43.3069C37.8268 45.1646 37.4676 47.0363 36.6068 48.6929C35.746 50.3496 34.4209 51.7194 32.7937 52.6346C32.6781 52.7019 32.5769 52.7912 32.496 52.8976C32.415 53.0041 32.3558 53.1254 32.3218 53.2547C32.2879 53.384 32.2797 53.5188 32.2979 53.6513C32.3161 53.7837 32.3603 53.9113 32.4279 54.0267C32.5178 54.1783 32.6457 54.304 32.7989 54.3913C32.9521 54.4786 33.1254 54.5245 33.3017 54.5246C33.4797 54.5258 33.6549 54.4802 33.8098 54.3925C35.7792 53.285 37.3828 51.6272 38.4241 49.6221C39.4655 47.617 39.8994 45.3517 39.6726 43.1037C39.0426 37.5152 34.3381 34.721 33.7996 34.4162Z" fill="#15161B"/>
</svg>
