<svg width="19" height="20" viewBox="0 0 19 20" fill="none" xmlns="http://www.w3.org/2000/svg">
<path d="M15.1051 13.082C14.0238 13.082 13.071 13.614 12.4725 14.4229L7.29804 11.7733C7.38395 11.4805 7.44432 11.177 7.44432 10.8568C7.44432 10.4224 7.35527 10.0095 7.20144 9.62973L12.6167 6.37105C13.2194 7.07832 14.1052 7.53709 15.1051 7.53709C16.9156 7.53709 18.3883 6.06436 18.3883 4.2539C18.3883 2.44344 16.9156 0.970703 15.1051 0.970703C13.2946 0.970703 11.8219 2.44344 11.8219 4.2539C11.8219 4.67112 11.9078 5.06689 12.0504 5.43432L6.61896 8.70256C6.01682 8.01629 5.14379 7.57357 4.16113 7.57357C2.35066 7.57357 0.87793 9.04631 0.87793 10.8568C0.87793 12.6672 2.35066 14.14 4.16113 14.14C5.26027 14.14 6.22921 13.5924 6.82544 12.7608L11.9828 15.4018C11.8878 15.7084 11.8219 16.0278 11.8219 16.3652C11.8219 18.1757 13.2946 19.6484 15.1051 19.6484C16.9156 19.6484 18.3883 18.1757 18.3883 16.3652C18.3883 14.5548 16.9156 13.082 15.1051 13.082Z" fill="white"/>
</svg>
