<svg width="42" height="51" viewBox="0 0 42 51" fill="none" xmlns="http://www.w3.org/2000/svg">
<path d="M20.973 21.0896C18.9735 21.0896 17.0189 20.4967 15.3564 19.3858C13.6938 18.275 12.398 16.696 11.6328 14.8487C10.8677 13.0014 10.6675 10.9687 11.0575 9.00757C11.4476 7.04647 12.4105 5.24508 13.8244 3.8312C15.2382 2.41733 17.0396 1.45447 19.0007 1.06438C20.9618 0.674291 22.9946 0.874497 24.8419 1.63968C26.6892 2.40487 28.2681 3.70066 29.379 5.3632C30.4899 7.02574 31.0828 8.98036 31.0828 10.9799C31.0793 13.6601 30.013 16.2295 28.1178 18.1247C26.2226 20.0199 23.6532 21.0861 20.973 21.0896ZM20.973 4.4252C19.6767 4.4252 18.4094 4.80963 17.3315 5.52987C16.2535 6.2501 15.4134 7.2738 14.9173 8.47152C14.4212 9.66923 14.2914 10.9872 14.5443 12.2586C14.7972 13.5301 15.4215 14.6981 16.3382 15.6147C17.2549 16.5314 18.4228 17.1557 19.6943 17.4086C20.9658 17.6615 22.2837 17.5317 23.4814 17.0356C24.6791 16.5395 25.7028 15.6994 26.4231 14.6215C27.1433 13.5436 27.5277 12.2763 27.5277 10.9799C27.5254 9.2422 26.834 7.57635 25.6053 6.34762C24.3766 5.11889 22.7107 4.42755 20.973 4.4252Z" fill="#15161B"/>
<path d="M32.51 50.87C32.0385 50.87 31.5864 50.6827 31.2531 50.3493C30.9197 50.016 30.7324 49.5639 30.7324 49.0924V41.299C30.7324 40.8276 30.9197 40.3755 31.2531 40.0421C31.5864 39.7088 32.0385 39.5215 32.51 39.5215C32.9814 39.5215 33.4335 39.7088 33.7669 40.0421C34.1002 40.3755 34.2875 40.8276 34.2875 41.299V49.0924C34.2875 49.5639 34.1002 50.016 33.7669 50.3493C33.4335 50.6827 32.9814 50.87 32.51 50.87Z" fill="#15161B"/>
<path d="M9.4416 50.87C8.97017 50.87 8.51804 50.6827 8.18469 50.3493C7.85134 50.016 7.66406 49.5639 7.66406 49.0924V41.299C7.66406 40.8276 7.85134 40.3755 8.18469 40.0421C8.51804 39.7088 8.97017 39.5215 9.4416 39.5215C9.91304 39.5215 10.3652 39.7088 10.6985 40.0421C11.0319 40.3755 11.2191 40.8276 11.2191 41.299V49.0924C11.2191 49.5639 11.0319 50.016 10.6985 50.3493C10.3652 50.6827 9.91304 50.87 9.4416 50.87Z" fill="#15161B"/>
<path d="M39.3258 50.8704H2.6252C2.15376 50.8704 1.70164 50.6831 1.36828 50.3498C1.03493 50.0164 0.847656 49.5643 0.847656 49.0929V38.8376C0.847656 30.8542 7.34345 24.3584 15.3268 24.3584H26.622C34.6054 24.3584 41.1012 30.8542 41.1012 38.8376V49.0929C41.1012 49.5639 40.9142 50.0157 40.5813 50.349C40.2485 50.6823 39.7969 50.8698 39.3258 50.8704ZM4.40274 47.3153H37.5483V38.8376C37.5451 35.9409 36.3928 33.1639 34.3444 31.1159C32.2959 29.0678 29.5186 27.9161 26.622 27.9135H15.3235C12.4278 27.9176 9.65197 29.07 7.60472 31.1178C5.55748 33.1657 4.40597 35.9419 4.40274 38.8376V47.3153Z" fill="#5D56F1"/>
</svg>
