<svg width="45" height="51" viewBox="0 0 45 51" fill="none" xmlns="http://www.w3.org/2000/svg">
<path d="M31.1695 33.9292C36.4901 25.5803 35.8213 26.6219 35.9746 26.4042C37.9117 23.672 38.9355 20.4562 38.9355 17.1045C38.9355 8.21582 31.7226 0.893555 22.8223 0.893555C13.951 0.893555 6.70898 8.20137 6.70898 17.1045C6.70898 20.4541 7.7543 23.754 9.75488 26.523L14.4748 33.9293C9.42842 34.7048 0.849609 37.0158 0.849609 42.1045C0.849609 43.9595 2.06035 46.603 7.82832 48.663C11.8559 50.1014 17.1808 50.8936 22.8223 50.8936C33.3716 50.8936 44.7949 47.9178 44.7949 42.1045C44.7949 37.0149 36.2262 34.7063 31.1695 33.9292ZM12.2021 24.9116C12.1859 24.8864 12.1691 24.8618 12.1516 24.8376C10.4868 22.5474 9.63867 19.8331 9.63867 17.1045C9.63867 9.77852 15.5377 3.82324 22.8223 3.82324C30.0917 3.82324 36.0059 9.78115 36.0059 17.1045C36.0059 19.8375 35.1737 22.4597 33.599 24.6896C33.4579 24.8757 34.1941 23.7319 22.8223 41.5761L12.2021 24.9116ZM22.8223 47.9639C11.2994 47.9639 3.7793 44.5769 3.7793 42.1045C3.7793 40.4428 7.64336 37.7104 16.2059 36.6454L21.5869 45.0891C21.8559 45.5111 22.3217 45.7666 22.8222 45.7666C23.3227 45.7666 23.7886 45.511 24.0574 45.0891L29.4384 36.6454C38.0011 37.7104 41.8652 40.4428 41.8652 42.1045C41.8652 44.5559 34.4128 47.9639 22.8223 47.9639Z" fill="#5D56F1"/>
<path d="M22.8223 9.78027C18.7837 9.78027 15.498 13.0659 15.498 17.1045C15.498 21.1431 18.7837 24.4287 22.8223 24.4287C26.8608 24.4287 30.1465 21.1431 30.1465 17.1045C30.1465 13.0659 26.8608 9.78027 22.8223 9.78027ZM22.8223 21.499C20.3991 21.499 18.4277 19.5276 18.4277 17.1045C18.4277 14.6813 20.3991 12.71 22.8223 12.71C25.2454 12.71 27.2168 14.6813 27.2168 17.1045C27.2168 19.5276 25.2454 21.499 22.8223 21.499Z" fill="#15161B"/>
</svg>
