<svg width="20" height="27" viewBox="0 0 20 27" fill="none" xmlns="http://www.w3.org/2000/svg">
<path d="M9.99965 0.871094C4.83852 0.871094 0.639648 5.09518 0.639648 10.2873C0.639648 16.7308 9.01593 26.1903 9.37256 26.5898C9.70753 26.9652 10.2924 26.9645 10.6267 26.5898C10.9834 26.1903 19.3596 16.7308 19.3596 10.2873C19.3595 5.09518 15.1607 0.871094 9.99965 0.871094ZM9.99965 15.0248C7.40295 15.0248 5.29045 12.8996 5.29045 10.2873C5.29045 7.67498 7.403 5.54978 9.99965 5.54978C12.5963 5.54978 14.7088 7.67503 14.7088 10.2873C14.7088 12.8996 12.5963 15.0248 9.99965 15.0248Z" fill="white"/>
</svg>
