<svg width="74" height="81" viewBox="0 0 74 81" fill="none" xmlns="http://www.w3.org/2000/svg">
<path d="M37.0575 31.3291C32.8699 31.3291 29.4629 34.7318 29.4629 38.9145C29.4629 43.0973 32.8699 46.5 37.0575 46.5C41.2451 46.5 44.6521 43.0973 44.6521 38.9145C44.6521 34.7318 41.2451 31.3291 37.0575 31.3291ZM37.0575 44.1587C34.162 44.1587 31.8066 41.8058 31.8066 38.9145C31.8066 36.0227 34.162 33.6698 37.0575 33.6698C39.953 33.6698 42.3083 36.0227 42.3083 38.9145C42.3083 41.8058 39.953 44.1587 37.0575 44.1587Z" fill="#5D56F1"/>
<path d="M50.8813 28.4972L47.4872 25.1073C47.0746 24.6953 46.4209 24.6489 45.9546 24.9993L43.3978 26.9182C42.6526 26.5245 41.8726 26.2023 41.0669 25.9539L40.6177 22.7916C40.5359 22.2142 40.0409 21.7852 39.4574 21.7852H34.6576C34.0735 21.7852 33.5791 22.2142 33.4967 22.7916L33.0475 25.9539C32.2418 26.2023 31.4624 26.5245 30.7172 26.9182L28.1604 24.9993C27.6935 24.6489 27.0404 24.6953 26.6272 25.1073L23.2336 28.4972C22.821 28.9098 22.7747 29.5623 23.125 30.028L25.0464 32.5823C24.6527 33.3263 24.3292 34.1051 24.0808 34.9095L20.9143 35.3588C20.3363 35.4405 19.9072 35.9349 19.9072 36.5178V41.3115C19.9072 41.8944 20.3363 42.3888 20.9143 42.4706L24.0808 42.9198C24.3292 43.7242 24.6521 44.503 25.0464 45.2471L23.125 47.8014C22.7747 48.2671 22.821 48.9195 23.2336 49.3321L26.6272 52.722C27.0404 53.134 27.6935 53.1798 28.1604 52.8301L30.7172 50.9111C31.4624 51.3042 32.2418 51.6271 33.0475 51.8755L33.4967 55.0377C33.5791 55.6151 34.0735 56.0436 34.6576 56.0436H39.4574C40.0409 56.0436 40.5353 55.6151 40.6177 55.0377L41.0669 51.8755C41.8726 51.6271 42.6526 51.3042 43.3978 50.9111L45.9546 52.8301C46.4209 53.1804 47.0746 53.134 47.4872 52.722L50.8813 49.3321C51.2939 48.9195 51.3397 48.2671 50.9894 47.8014L49.068 45.2471C49.4623 44.503 49.7852 43.7242 50.0336 42.9198L53.2001 42.4706C53.7781 42.3888 54.2078 41.8944 54.2078 41.3115V36.5178C54.2078 35.9349 53.7781 35.4405 53.2001 35.3588L50.0336 34.9095C49.7852 34.1051 49.4623 33.3263 49.068 32.5823L50.9894 30.028C51.3397 29.5623 51.2939 28.9098 50.8813 28.4972ZM51.864 37.5334V40.2953L48.9447 40.7097C48.4705 40.7769 48.0847 41.1254 47.9706 41.5905C47.6996 42.6988 47.2613 43.7554 46.6687 44.7301C46.4197 45.139 46.4453 45.6578 46.7334 46.0405L48.5046 48.3953L46.5491 50.3478L44.1919 48.579C43.8086 48.2915 43.2892 48.2653 42.8796 48.5143C41.9037 49.1057 40.8459 49.5433 39.7357 49.8149C39.2706 49.9285 38.9215 50.3136 38.8538 50.7872L38.4399 53.7029H35.6744L35.26 50.7872C35.1929 50.3136 34.8431 49.9285 34.378 49.8149C33.2678 49.5433 32.2107 49.1057 31.2347 48.5143C30.8252 48.2653 30.3058 48.2915 29.9225 48.579L27.5653 50.3478L25.6097 48.3946L27.381 46.0405C27.6685 45.6578 27.6941 45.139 27.4457 44.7301C26.853 43.7554 26.4148 42.6988 26.1432 41.5898C26.0297 41.1254 25.6439 40.7762 25.1697 40.7091L22.2504 40.2953V37.5334L25.1697 37.1196C25.6439 37.0525 26.0297 36.7034 26.1432 36.2389C26.4148 35.1299 26.853 34.074 27.4457 33.0992C27.6941 32.6897 27.6685 32.1709 27.381 31.7888L25.6097 29.4341L27.5653 27.481L29.9225 29.2504C30.3058 29.5372 30.8252 29.5635 31.2347 29.3151C32.2107 28.723 33.2678 28.2854 34.378 28.0144C34.8431 27.9003 35.1923 27.5157 35.26 27.0415L35.6744 24.1259H38.4399L38.8538 27.0415C38.9215 27.5151 39.2706 27.9003 39.7357 28.0144C40.8459 28.2854 41.9037 28.723 42.8796 29.3151C43.2892 29.5635 43.8086 29.5372 44.1919 29.2504L46.5491 27.481L48.5046 29.4341L46.7334 31.7888C46.4453 32.1709 46.4197 32.6903 46.6687 33.0992C47.2613 34.074 47.699 35.1299 47.9706 36.2383C48.0841 36.7034 48.4698 37.0525 48.9441 37.1196L51.864 37.5334Z" fill="#15161B"/>
<path d="M37.0566 9.28637C37.7042 9.28637 38.2285 8.76269 38.2285 8.11633V1.25171C38.2285 0.604736 37.7042 0.0810547 37.0566 0.0810547C36.4097 0.0810547 35.8848 0.604736 35.8848 1.25171V8.11633C35.8848 8.76269 36.4097 9.28637 37.0566 9.28637Z" fill="#15161B"/>
<path d="M72.1329 35.1143H65.2598C64.6122 35.1143 64.0879 35.6379 64.0879 36.2843C64.0879 36.9313 64.6122 37.455 65.2598 37.455H72.1329C72.7799 37.455 73.3048 36.9313 73.3048 36.2843C73.3048 35.6379 72.7799 35.1143 72.1329 35.1143Z" fill="#15161B"/>
<path d="M8.85364 35.1143H1.98047C1.3335 35.1143 0.808594 35.6379 0.808594 36.2843C0.808594 36.9313 1.3335 37.455 1.98047 37.455H8.85364C9.50061 37.455 10.0255 36.9313 10.0255 36.2843C10.0255 35.6379 9.50122 35.1143 8.85364 35.1143Z" fill="#15161B"/>
<path d="M16.2851 17.1936C16.7368 17.6447 17.4912 17.6447 17.9422 17.1936C18.4 16.7364 18.4 15.9955 17.9422 15.5383L13.0826 10.6842C12.6248 10.2277 11.8827 10.2277 11.4249 10.6842C10.9677 11.1414 10.9677 11.8823 11.4249 12.3401L16.2851 17.1936Z" fill="#15161B"/>
<path d="M11.2245 24.9196L8.84967 23.9901C8.24664 23.7545 7.56732 24.0511 7.33111 24.6529C7.09491 25.2547 7.39215 25.934 7.99457 26.1696L10.3701 27.0992C10.9651 27.3317 11.6555 27.0302 11.8886 26.4363C12.1248 25.8339 11.8276 25.1552 11.2245 24.9196Z" fill="#15161B"/>
<path d="M25.6774 10.4849C25.9106 11.0788 26.6009 11.3803 27.196 11.1478C27.7984 10.9122 28.0956 10.2328 27.86 9.63103L26.9018 7.18963C26.6662 6.58721 25.9863 6.29058 25.3832 6.52618C24.7808 6.76238 24.4836 7.44109 24.7198 8.0429L25.6774 10.4849Z" fill="#15161B"/>
<path d="M46.9164 11.1475C47.5115 11.3801 48.2018 11.0785 48.435 10.4847L49.3932 8.04327C49.6288 7.44085 49.3322 6.76214 48.7292 6.52593C48.1268 6.29095 47.4468 6.58697 47.2106 7.18877L46.253 9.63079C46.0168 10.2326 46.314 10.9113 46.9164 11.1475Z" fill="#15161B"/>
<path d="M56.9993 17.5366C57.299 17.5366 57.5993 17.4225 57.8282 17.1936L62.6878 12.3401C63.1456 11.8823 63.1456 11.1414 62.6878 10.6842C62.23 10.2277 61.4885 10.2277 61.0307 10.6842L56.1705 15.5383C55.7127 15.9955 55.7127 16.7364 56.1705 17.1936C56.3994 17.4225 56.6996 17.5366 56.9993 17.5366Z" fill="#15161B"/>
<path d="M66.7831 24.653C66.5469 24.0506 65.867 23.7545 65.2646 23.9901L62.8891 24.9197C62.2867 25.1553 61.9894 25.834 62.2256 26.4364C62.4588 27.0303 63.1491 27.3318 63.7442 27.0993L66.1197 26.1697C66.7221 25.9341 67.0193 25.2548 66.7831 24.653Z" fill="#15161B"/>
<path d="M37.2706 12.1357C32.3884 12.0942 27.624 13.4845 23.5017 16.1548C22.9585 16.507 22.8041 17.2315 23.1562 17.7741C23.5078 18.3161 24.2341 18.4705 24.7767 18.1189C28.4602 15.7337 32.7034 14.4758 37.0625 14.4758C37.1254 14.4758 37.1888 14.4758 37.2517 14.4764C43.2856 14.527 48.9503 16.9117 53.2026 21.1927C57.4574 25.4755 59.8005 31.1573 59.8005 37.1912C59.8005 44.5704 56.1891 51.5168 50.1393 55.7733C48.1434 57.1772 46.8385 59.328 46.5107 61.6797H42.5019C41.8544 61.6797 41.3301 62.204 41.3301 62.8504C41.3301 63.4967 41.8544 64.021 42.5019 64.021H46.4296V70.0232C46.4296 71.5064 45.2211 72.713 43.7361 72.713H30.3779C28.8929 72.713 27.6844 71.5064 27.6844 70.0232V64.021H37.8144C38.462 64.021 38.9863 63.4967 38.9863 62.8504C38.9863 62.204 38.462 61.6797 37.8144 61.6797H27.6014C27.278 59.325 25.9919 57.1857 24.0199 55.8051C17.942 51.5509 14.3135 44.5929 14.3135 37.1918C14.3135 31.0279 16.7866 25.2424 21.2782 20.9009C21.7433 20.4511 21.7555 19.7101 21.3051 19.2457C20.8552 18.7812 20.1136 18.769 19.6479 19.2188C14.6968 24.0052 11.9697 30.3882 11.9697 37.1918C11.9697 45.3553 15.9718 53.0304 22.6747 57.7222C24.344 58.8904 25.3407 60.8075 25.3407 62.8504V70.0232C25.3407 72.4561 27.079 74.491 29.38 74.9542C30.6532 78.0499 33.6476 80.0806 37.057 80.0806C40.4664 80.0806 43.4608 78.0499 44.7334 74.9542C47.0344 74.491 48.7727 72.4561 48.7727 70.0232V62.8534C48.7727 62.8522 48.7733 62.8516 48.7733 62.8504C48.7733 60.8136 49.7883 58.8837 51.4894 57.6868C58.1605 52.9926 62.1437 45.3308 62.1437 37.1918C62.1437 30.5359 59.5594 24.2688 54.8664 19.5441C50.1759 14.8224 43.9271 12.1912 37.2706 12.1357ZM37.057 77.7399C34.9958 77.7399 33.1459 76.7066 32.0674 75.0537H42.0466C40.9681 76.7066 39.1182 77.7399 37.057 77.7399Z" fill="#5D56F1"/>
</svg>
