<svg width="126" height="21" viewBox="0 0 126 21" fill="none" xmlns="http://www.w3.org/2000/svg">
<path d="M10.1153 2.15298C10.265 1.69232 10.9167 1.69232 11.0663 2.15298L12.7237 7.25379C12.7906 7.4598 12.9826 7.59928 13.1992 7.59928H18.5625C19.0469 7.59928 19.2483 8.21909 18.8564 8.50379L14.5174 11.6563C14.3422 11.7836 14.2689 12.0093 14.3358 12.2153L15.9931 17.3161C16.1428 17.7768 15.6156 18.1598 15.2237 17.8751L10.8847 14.7226C10.7095 14.5953 10.4722 14.5953 10.2969 14.7226L5.95792 17.8751C5.56606 18.1598 5.03882 17.7768 5.1885 17.3161L6.84585 12.2153C6.91279 12.0093 6.83946 11.7836 6.66422 11.6563L2.3252 8.50379C1.93335 8.21909 2.13474 7.59928 2.6191 7.59928H7.98241C8.19902 7.59928 8.391 7.4598 8.45794 7.25379L10.1153 2.15298Z" fill="#FE7831"/>
<path d="M36.3653 2.15298C36.515 1.69232 37.1667 1.69232 37.3163 2.15298L38.9737 7.25379C39.0406 7.4598 39.2326 7.59928 39.4492 7.59928H44.8125C45.2969 7.59928 45.4983 8.21909 45.1064 8.50379L40.7674 11.6563C40.5922 11.7836 40.5189 12.0093 40.5858 12.2153L42.2431 17.3161C42.3928 17.7768 41.8656 18.1598 41.4737 17.8751L37.1347 14.7226C36.9595 14.5953 36.7222 14.5953 36.5469 14.7226L32.2079 17.8751C31.8161 18.1598 31.2888 17.7768 31.4385 17.3161L33.0959 12.2153C33.1628 12.0093 33.0895 11.7836 32.9142 11.6563L28.5752 8.50379C28.1833 8.21909 28.3847 7.59928 28.8691 7.59928H34.2324C34.449 7.59928 34.641 7.4598 34.7079 7.25379L36.3653 2.15298Z" fill="#FE7831"/>
<path d="M62.6153 2.15298C62.765 1.69232 63.4167 1.69232 63.5663 2.15298L65.2237 7.25379C65.2906 7.4598 65.4826 7.59928 65.6992 7.59928H71.0625C71.5469 7.59928 71.7483 8.21909 71.3564 8.50379L67.0174 11.6563C66.8422 11.7836 66.7689 12.0093 66.8358 12.2153L68.4931 17.3161C68.6428 17.7768 68.1156 18.1598 67.7237 17.8751L63.3847 14.7226C63.2095 14.5953 62.9722 14.5953 62.7969 14.7226L58.4579 17.8751C58.0661 18.1598 57.5388 17.7768 57.6885 17.3161L59.3459 12.2153C59.4128 12.0093 59.3395 11.7836 59.1642 11.6563L54.8252 8.50379C54.4333 8.21909 54.6347 7.59928 55.1191 7.59928H60.4824C60.699 7.59928 60.891 7.4598 60.9579 7.25379L62.6153 2.15298Z" fill="#FE7831"/>
<path d="M88.8653 2.15298C89.015 1.69232 89.6667 1.69232 89.8163 2.15298L91.4737 7.25379C91.5406 7.4598 91.7326 7.59928 91.9492 7.59928H97.3125C97.7969 7.59928 97.9983 8.21909 97.6064 8.50379L93.2674 11.6563C93.0922 11.7836 93.0189 12.0093 93.0858 12.2153L94.7431 17.3161C94.8928 17.7768 94.3656 18.1598 93.9737 17.8751L89.6347 14.7226C89.4595 14.5953 89.2222 14.5953 89.0469 14.7226L84.7079 17.8751C84.3161 18.1598 83.7888 17.7768 83.9385 17.3161L85.5959 12.2153C85.6628 12.0093 85.5895 11.7836 85.4142 11.6563L81.0752 8.50379C80.6833 8.21909 80.8847 7.59928 81.3691 7.59928H86.7324C86.949 7.59928 87.141 7.4598 87.2079 7.25379L88.8653 2.15298Z" fill="#FE7831"/>
<path d="M115.115 2.15298C115.265 1.69232 115.917 1.69232 116.066 2.15298L117.724 7.25379C117.791 7.4598 117.983 7.59928 118.199 7.59928H123.563C124.047 7.59928 124.248 8.21909 123.856 8.50379L119.517 11.6563C119.342 11.7836 119.269 12.0093 119.336 12.2153L120.993 17.3161C121.143 17.7768 120.616 18.1598 120.224 17.8751L115.885 14.7226C115.709 14.5953 115.472 14.5953 115.297 14.7226L110.958 17.8751C110.566 18.1598 110.039 17.7768 110.188 17.3161L111.846 12.2153C111.913 12.0093 111.839 11.7836 111.664 11.6563L107.325 8.50379C106.933 8.21909 107.135 7.59928 107.619 7.59928H112.982C113.199 7.59928 113.391 7.4598 113.458 7.25379L115.115 2.15298Z" fill="#FE7831"/>
</svg>
