<svg width="70" height="81" viewBox="0 0 70 81" fill="none" xmlns="http://www.w3.org/2000/svg">
<path d="M65.1024 49.1909C63.7334 48.7861 62.2957 48.9377 61.0518 49.6159L57.8481 51.36C57.8138 51.2896 57.7778 51.2177 57.7403 51.149C57.0621 49.9019 55.9353 48.994 54.5679 48.5892C53.2005 48.1845 51.7613 48.336 50.5173 49.0143L44.8211 52.1163L32.9724 48.2985C28.8889 46.9827 24.9055 47.3562 21.1346 49.4096L11.2721 54.7761L10.2391 52.9821C9.93128 52.4445 9.4312 52.0601 8.83111 51.8991C8.23258 51.7381 7.61061 51.8194 7.07927 52.1273L1.78313 55.1762C0.678272 55.8153 0.300088 57.2327 0.937688 58.336L12.8411 79.0065C13.2709 79.7472 14.0491 80.1629 14.8492 80.1613C15.2415 80.1613 15.6369 80.0613 15.9994 79.8519L21.2956 76.803C22.3957 76.1654 22.7755 74.7495 22.1426 73.6447L21.1549 71.9303L21.5815 71.6975C23.7725 70.5051 26.0885 70.2879 28.4639 71.0537L33.5897 72.7055C34.7805 73.0899 35.9588 73.2806 37.1215 73.2806C38.9405 73.2806 40.7173 72.8102 42.4332 71.8741L66.1401 58.9721C67.3871 58.297 68.2967 57.1718 68.7014 55.8044C69.1061 54.437 68.9561 52.9977 68.2779 51.7538C67.5965 50.5051 66.4714 49.5956 65.1024 49.1909ZM51.7128 51.2084C52.3707 50.8505 53.1333 50.7708 53.86 50.9849C54.5883 51.2005 55.1868 51.6819 55.5431 52.3382C55.5822 52.4101 55.6165 52.4836 55.6494 52.5586L50.1438 55.5559C49.6703 54.587 48.9124 53.7775 47.9716 53.2446L51.7128 51.2084ZM14.9117 77.5922L3.19429 57.2452L8.16538 54.3839L19.8844 74.7308L14.9117 77.5922ZM66.3041 55.0933C66.0885 55.82 65.6072 56.417 64.9461 56.7749L41.2362 69.68C39.0468 70.8755 36.7323 71.0927 34.3554 70.327L29.2296 68.6752C26.1776 67.6906 23.2021 67.9688 20.3845 69.5034L19.9063 69.7644L12.5207 56.9405L22.3301 51.6022C25.4775 49.8894 28.8014 49.5769 32.2066 50.6755L46.2291 55.1949C47.2652 55.5262 48.0263 56.4467 48.1654 57.539C48.1701 57.5719 48.1763 57.6031 48.1841 57.6344C48.1826 57.6766 48.181 57.7188 48.1841 57.7625C48.1998 58.1001 48.156 58.4314 48.0529 58.7517C47.5747 60.2332 45.9791 61.049 44.4945 60.5723C42.8036 60.0285 41.1143 59.4831 39.4234 58.9393C37.148 58.2063 34.8727 57.4734 32.5958 56.7405C31.9394 56.5295 31.2346 56.8905 31.0236 57.5469C30.8127 58.2032 31.1737 58.908 31.83 59.119C34.1069 59.8503 36.3823 60.5833 38.6561 61.3162C40.347 61.8616 42.0379 62.4054 43.7287 62.9493C44.2695 63.1227 44.818 63.2056 45.3571 63.2056C47.6075 63.2056 49.7031 61.7678 50.4282 59.5175C50.5767 59.0596 50.6611 58.5861 50.6798 58.1063L62.2457 51.8085C62.9036 51.449 63.6662 51.3709 64.3929 51.585C65.1211 51.8006 65.7197 52.282 66.0791 52.943C66.4401 53.6041 66.5182 54.3667 66.3041 55.0933Z" fill="#5D56F1"/>
<path d="M43.8367 46.3855C53.2757 46.3855 60.9535 38.7047 60.9535 29.2641C60.9535 19.8251 53.2741 12.1474 43.8367 12.1474C34.3978 12.1474 26.72 19.8267 26.72 29.2641C26.72 38.7047 34.3993 46.3855 43.8367 46.3855ZM43.8367 14.6462C51.8974 14.6462 58.4546 21.2035 58.4546 29.2641C58.4546 37.3279 51.8974 43.8867 43.8367 43.8867C35.7761 43.8867 29.2188 37.3263 29.2188 29.2641C29.2188 21.2035 35.7761 14.6462 43.8367 14.6462ZM43.8367 41.7207C50.7034 41.7207 56.2887 36.1324 56.2887 29.2641C56.2887 22.3974 50.7019 16.8122 43.8367 16.8122C36.97 16.8122 31.3848 22.399 31.3848 29.2641C31.3848 36.1324 36.9716 41.7207 43.8367 41.7207ZM43.8367 19.311C49.3251 19.311 53.7898 23.7758 53.7898 29.2641C53.7898 34.7556 49.3251 39.2219 43.8367 39.2219C38.3484 39.2219 33.8836 34.754 33.8836 29.2641C33.8836 23.7758 38.3484 19.311 43.8367 19.311ZM40.2127 26.9294C40.2127 25.3776 41.2051 24.0539 42.5865 23.5554V22.5084C42.5865 21.8192 43.146 21.2597 43.8352 21.2597C44.5243 21.2597 45.0838 21.8192 45.0838 22.5084V23.4273C45.9261 23.6101 46.6903 24.0961 47.2138 24.804C47.6233 25.3588 47.5061 26.1418 46.9513 26.5512C46.3965 26.9606 45.6136 26.8434 45.2041 26.2887C44.9947 26.0058 44.6791 25.8433 44.3352 25.8433H43.7945C43.196 25.8433 42.71 26.3308 42.71 26.9294C42.71 27.5279 43.1976 28.0139 43.7945 28.0139H44.0649C44.1587 28.0139 44.2509 28.0249 44.3384 28.0452C46.0965 28.2733 47.4576 29.7798 47.4576 31.5973C47.4576 33.1491 46.4653 34.4727 45.0838 34.9713V36.023C45.0838 36.7122 44.5243 37.2716 43.8352 37.2716C43.146 37.2716 42.5865 36.7122 42.5865 36.023V35.0994C41.7427 34.9166 40.9785 34.4321 40.4565 33.7257C40.0471 33.171 40.1643 32.388 40.7191 31.9786C41.2738 31.5692 42.0568 31.6864 42.4662 32.2411C42.6725 32.5209 42.9897 32.6818 43.3351 32.6818H43.8758C44.4743 32.6818 44.9603 32.1943 44.9603 31.5973C44.9603 31.0003 44.4728 30.5127 43.8758 30.5127H43.6054C43.5117 30.5127 43.4195 30.5018 43.332 30.4815C41.5754 30.2533 40.2127 28.7484 40.2127 26.9294ZM42.5881 8.02799V1.40977C42.5881 0.719032 43.1476 0.161133 43.8367 0.161133C44.5259 0.161133 45.0854 0.720595 45.0854 1.40977V8.02799C45.0854 8.71872 44.5259 9.27662 43.8367 9.27662C43.1476 9.27662 42.5881 8.71716 42.5881 8.02799ZM53.3742 10.2471L56.6825 4.51494C57.0279 3.91797 57.792 3.71325 58.389 4.05705C58.986 4.40242 59.1907 5.1666 58.8469 5.76357L55.5386 11.4957C55.3073 11.8958 54.8869 12.1208 54.4556 12.1208C54.243 12.1208 54.0289 12.0661 53.832 11.9536C53.2335 11.6082 53.0288 10.8441 53.3742 10.2471ZM61.1472 19.2704C60.8019 18.6734 61.0066 17.9092 61.6051 17.5639L67.3373 14.2555C67.9342 13.9102 68.6984 14.1149 69.0438 14.7134C69.3892 15.3104 69.1844 16.0746 68.5859 16.4199L62.8538 19.7283C62.6569 19.8423 62.4428 19.8955 62.2302 19.8955C61.7989 19.8955 61.3785 19.6704 61.1472 19.2704ZM28.8281 5.76357C28.4828 5.1666 28.6875 4.40242 29.286 4.05705C29.883 3.71169 30.6472 3.91641 30.9925 4.51494L34.3009 10.2471C34.6462 10.8441 34.4415 11.6082 33.843 11.9536C33.6461 12.0677 33.432 12.1208 33.2194 12.1208C32.7881 12.1208 32.3678 11.8973 32.1365 11.4957L28.8281 5.76357ZM18.6297 14.7118C18.975 14.1149 19.7377 13.9102 20.3362 14.254L26.0683 17.5623C26.6653 17.9077 26.87 18.6718 26.5262 19.2688C26.2949 19.6689 25.8746 19.8939 25.4432 19.8939C25.2307 19.8939 25.0166 19.8392 24.8197 19.7267L19.0876 16.4184C18.4906 16.073 18.2859 15.3104 18.6297 14.7118Z" fill="black"/>
</svg>
