<svg width="71" height="81" viewBox="0 0 71 81" fill="none" xmlns="http://www.w3.org/2000/svg">
<path fill-rule="evenodd" clip-rule="evenodd" d="M42.5677 49.0907C42.7533 49.5216 43.163 49.8137 43.6309 49.8485C43.6624 49.8508 43.6936 49.8519 43.7249 49.8519C44.1582 49.8519 44.5641 49.6285 44.7949 49.2565L47.8466 44.3388L53.5165 45.4999C53.9767 45.5937 54.4501 45.4248 54.7462 45.061C55.0424 44.6971 55.1117 44.1986 54.9262 43.7677L50.7154 33.9911C50.8442 33.9365 50.976 33.8803 51.1148 33.8209C53.2863 32.8911 54.5567 30.6903 54.2764 28.3449C54.2243 27.9093 54.1757 27.5216 54.1321 27.1737C53.9571 25.778 53.8691 25.0773 53.9636 24.542C54.0581 24.0067 54.3802 23.3784 55.0221 22.1267C55.1822 21.8145 55.3604 21.467 55.5583 21.0753C56.6241 18.9671 56.1828 16.4646 54.4603 14.8483C54.1406 14.548 53.854 14.2824 53.5971 14.0437C52.5657 13.0871 52.048 12.6069 51.7764 12.1362C51.5045 11.6654 51.3475 10.9771 51.0347 9.60573C50.9566 9.26377 50.8697 8.88275 50.7695 8.45545C50.2308 6.15553 48.2841 4.52221 45.9257 4.39106C45.4876 4.36666 45.0975 4.34729 44.7472 4.32982C43.3422 4.25991 42.637 4.2248 42.1262 4.03886C41.6155 3.85292 41.0528 3.42657 39.9315 2.577C39.652 2.36509 39.3404 2.12924 38.9893 1.86631C37.0981 0.450893 34.5573 0.450736 32.6661 1.86631C32.315 2.12924 32.0034 2.36509 31.724 2.577C30.6027 3.42657 30.04 3.85292 29.5292 4.03886C29.0185 4.2248 28.3131 4.25991 26.9083 4.32982C26.5578 4.34729 26.1678 4.36666 25.7298 4.39106C23.3713 4.52221 21.4245 6.15568 20.8859 8.45545C20.7858 8.88275 20.6989 9.26361 20.6208 9.60573C20.3079 10.9771 20.151 11.6656 19.8791 12.1362C19.6073 12.6069 19.0896 13.0871 18.0584 14.0437C17.8013 14.2824 17.5149 14.548 17.1951 14.8483C15.4729 16.4647 15.0314 18.9673 16.097 21.0755C16.2949 21.4669 16.4731 21.8143 16.6331 22.1264C17.275 23.3782 17.5972 24.0066 17.6917 24.5419C17.7862 25.077 17.6982 25.7777 17.5232 27.1732C17.4796 27.5213 17.431 27.9091 17.3789 28.3449C17.0986 30.6903 18.369 32.8911 20.5405 33.8209C20.9439 33.9937 21.3038 34.1454 21.627 34.2816C21.7252 34.323 21.8184 34.3624 21.9095 34.4008L16.7442 45.4949C16.5462 45.9203 16.6011 46.4203 16.8864 46.7928C17.1718 47.1652 17.6405 47.3486 18.103 47.2672L23.8044 46.2711L26.7123 51.2751C26.9385 51.6641 27.3538 51.9017 27.8011 51.9017C27.82 51.9017 27.8392 51.9012 27.8583 51.9004C28.3271 51.8792 28.7452 51.5991 28.9432 51.1738L34.0836 40.1325C34.9083 39.8847 35.4081 39.7598 35.828 39.7598C36.3715 39.7598 37.0463 39.968 38.3906 40.3829C38.5461 40.4309 38.7108 40.4817 38.8835 40.5346L42.5677 49.0907ZM47.4919 41.6947C46.9752 41.589 46.4471 41.8164 46.1689 42.2645L43.9268 45.8778L41.7862 40.9075C43.2554 40.7036 44.6001 39.8803 45.4598 38.5656C45.6999 38.1983 45.9118 37.8702 46.1021 37.5755C46.8653 36.3937 47.2482 35.8006 47.6646 35.4511C47.8515 35.2943 48.0862 35.1526 48.4046 34.9947L51.6577 42.5477L47.4919 41.6947ZM27.6769 47.923L25.5406 44.2463C25.2754 43.7902 24.7543 43.5479 24.2347 43.6385L20.0458 44.3703L24.1359 35.5856C24.5013 35.9486 24.8788 36.5327 25.5522 37.5756C25.7426 37.8704 25.9545 38.1985 26.1946 38.5656C27.2573 40.1909 29.0605 41.0665 30.9246 40.9471L27.6769 47.923ZM35.8271 37.2395C34.97 37.2395 34.1125 37.485 32.5217 37.9759C32.1906 38.078 31.8222 38.1917 31.4075 38.317C30.2083 38.6792 28.989 38.2361 28.3027 37.1869C28.0655 36.8243 27.8562 36.5002 27.6684 36.2092C25.8621 33.4121 25.6728 33.2534 22.6044 31.9603C22.2853 31.8258 21.9298 31.6759 21.5314 31.5053C20.3791 31.0117 19.7306 29.8885 19.8794 28.6437C19.9309 28.2134 19.9789 27.8304 20.022 27.4867C20.4363 24.1832 20.3933 23.9398 18.8738 20.9767C18.7157 20.6685 18.5399 20.3254 18.3445 19.9389C17.7789 18.8201 18.0042 17.5429 18.9184 16.685C19.2343 16.3885 19.5171 16.1262 19.7711 15.8905C22.2122 13.626 22.3357 13.4121 23.0763 10.1661C23.1533 9.8282 23.2391 9.45207 23.3379 9.02996C23.6237 7.80946 24.6173 6.9758 25.869 6.90622C26.3016 6.88213 26.6869 6.86292 27.033 6.84576C30.3585 6.68013 30.5909 6.59558 33.2447 4.58487C33.5209 4.37563 33.8284 4.14262 34.1752 3.88299C35.1789 3.13183 36.4756 3.13183 37.4793 3.88299C37.8262 4.14262 38.1336 4.37563 38.4098 4.58487C41.0637 6.59558 41.296 6.68013 44.6216 6.84576C44.9675 6.86292 45.3529 6.88213 45.7855 6.90622C47.0372 6.9758 48.0307 7.80946 48.3166 9.02996C48.4155 9.45191 48.5013 9.82804 48.5783 10.1659C49.3189 13.4119 49.4423 13.626 51.8835 15.8904C52.1374 16.1261 52.4202 16.3884 52.7362 16.6848C53.6503 17.5428 53.8753 18.8199 53.3099 19.9387C53.1145 20.3254 52.9385 20.6688 52.7803 20.9771C51.2611 23.9398 51.2181 24.1832 51.6325 27.487C51.6755 27.8307 51.7237 28.2134 51.775 28.6436C51.9238 29.8883 51.2753 31.0117 50.1229 31.5051C49.7246 31.6756 49.3691 31.8255 49.0499 31.9601C45.9817 33.2532 45.7925 33.4121 43.9861 36.209C43.7983 36.5001 43.589 36.8242 43.3518 37.1869C42.6658 38.236 41.4475 38.6798 40.247 38.317C39.8323 38.1917 39.4637 38.0779 39.1328 37.9759C37.5417 37.485 36.6842 37.2395 35.8271 37.2395ZM48.3276 20.8809C48.3276 13.988 42.72 8.38035 35.8271 8.38035C28.9344 8.38035 23.3268 13.988 23.3268 20.8809C23.3268 27.7737 28.9344 33.3815 35.8271 33.3815C42.7198 33.3815 48.3276 27.7739 48.3276 20.8809ZM35.8269 30.8624C30.3232 30.8624 25.8457 26.3848 25.8457 20.8809C25.8457 15.3771 30.3232 10.8994 35.8269 10.8994C41.3307 10.8994 45.8084 15.3771 45.8084 20.8809C45.8085 26.3848 41.3307 30.8624 35.8269 30.8624ZM42.7447 17.911L34.1437 25.7166C33.9031 25.9349 33.6001 26.0434 33.2975 26.0434C32.9744 26.0434 32.6519 25.9198 32.4067 25.6745L28.8654 22.1333C28.3736 21.6415 28.3736 20.844 28.8654 20.3522C29.3575 19.8603 30.1547 19.8603 30.6468 20.3522L33.3395 23.0449L41.0518 16.0458C41.5668 15.5785 42.3635 15.6169 42.831 16.1321C43.2984 16.6469 43.2598 17.4436 42.7447 17.911Z" fill="#15161B"/>
<path fill-rule="evenodd" clip-rule="evenodd" d="M68.3058 61.091C69.966 59.431 70.8091 57.3369 70.7441 55.0349L70.1307 33.3813C70.0703 31.2431 67.9445 29.3271 65.6522 29.3271C65.6302 29.3271 65.6083 29.3273 65.5864 29.3276C64.4681 29.3456 60.8219 29.9479 60.8483 36.9468L60.8932 48.7092C60.8943 48.9781 60.8773 49.2393 60.8424 49.4939C60.7536 49.3878 60.6585 49.284 60.5571 49.1826C59.0025 47.6282 56.4566 47.6085 54.761 49.1377C54.7188 49.1757 54.6791 49.2165 54.6426 49.2598C52.7452 51.503 50.414 53.4679 48.5405 55.0466C47.8835 55.6003 47.2632 56.1232 46.7537 56.5823C44.6174 58.5078 44.3322 61.1609 44.3351 63.502L44.3452 71.879L43.259 71.8697C42.5235 71.8629 41.8305 72.1446 41.3046 72.6613C40.7788 73.1782 40.4856 73.8675 40.4793 74.6019L40.4511 77.8786C40.4448 78.6131 40.726 79.3073 41.2429 79.8331C41.7596 80.359 42.4489 80.652 43.1834 80.6583L60.2055 80.8046C60.2135 80.8046 60.2216 80.8047 60.2296 80.8047C60.9551 80.8047 61.6398 80.524 62.1598 80.0128C62.6857 79.4959 62.9787 78.8068 62.985 78.0723L63.0132 74.7956C63.0195 74.0611 62.7383 73.3669 62.2214 72.8411C61.7047 72.3152 61.0154 72.0222 60.2809 72.0159L58.8805 72.004V70.5163L68.3058 61.091ZM60.4941 74.774L60.4659 78.0507C60.4653 78.1298 60.4264 78.1845 60.3938 78.2165C60.3614 78.2486 60.3107 78.2861 60.2269 78.2858L43.2048 78.1395C43.1259 78.1389 43.0711 78.1 43.0392 78.0674C43.0072 78.0348 42.9693 77.9796 42.9701 77.9005L42.9982 74.6238C42.9989 74.5448 43.0378 74.49 43.0703 74.458C43.1025 74.4264 43.1573 74.3888 43.2349 74.3888H43.2371L60.2593 74.535C60.3878 74.5363 60.4953 74.6455 60.4941 74.774ZM46.8643 71.9008L46.8542 63.4992C46.851 60.9337 47.3106 59.472 48.4404 58.4536C48.9186 58.0226 49.4956 57.5362 50.1638 56.9732C52.0896 55.35 54.482 53.3339 56.5037 50.9601C57.2108 50.367 58.1761 50.3644 58.7758 50.9641C59.414 51.6022 59.4148 52.3614 58.7811 53.2207C57.7796 54.3464 56.7266 55.3662 55.6124 56.4443C55.0776 56.962 54.5243 57.4973 53.9663 58.0555C53.4745 58.5473 53.4745 59.3448 53.9665 59.8366C54.2124 60.0825 54.5346 60.2055 54.857 60.2055C55.1794 60.2055 55.5019 60.0825 55.7477 59.8365C56.291 59.2931 56.8365 58.7651 57.3643 58.2545C58.5284 57.128 59.6278 56.064 60.7049 54.8488C60.7106 54.8424 61.5485 53.8174 61.5485 53.8174C62.8098 52.2647 63.4194 50.5906 63.4123 48.6999L63.3674 36.9373C63.3556 33.8198 64.2214 31.8691 65.6267 31.8466C65.6354 31.8464 65.6437 31.8464 65.6522 31.8464C66.5876 31.8464 67.5904 32.6643 67.6126 33.4528L68.226 55.1064C68.2716 56.7211 67.6992 58.1354 66.5245 59.3098L56.7303 69.104C56.4941 69.3402 56.3614 69.6606 56.3614 69.9945V71.9824L46.8643 71.9008ZM44.2099 75.9048C44.4176 75.3822 45.0097 75.127 45.5323 75.3348C46.0548 75.5425 46.31 76.1346 46.1024 76.6572C45.8946 77.1797 45.3026 77.435 44.78 77.2271C44.2573 77.0193 44.0021 76.4273 44.2099 75.9048ZM30.35 72.6616C29.8242 72.1446 29.1295 71.8643 28.3955 71.87L27.3095 71.8793L27.3196 63.5024C27.3224 61.161 27.0373 58.508 24.9009 56.5826C24.3918 56.1233 23.7711 55.6006 23.1143 55.047C21.241 53.4682 18.9096 51.5033 17.0123 49.2601C16.9757 49.2168 16.9362 49.176 16.894 49.138C15.1976 47.6088 12.6516 47.6286 11.0978 49.1829C10.9962 49.2843 10.9013 49.3881 10.8125 49.4942C10.7774 49.2396 10.7605 48.9786 10.7616 48.7096L10.8065 36.9469C10.8329 29.9481 7.18672 29.3459 6.0684 29.3278C6.04636 29.3275 6.02479 29.3273 6.00259 29.3273C3.71037 29.3273 1.58442 31.2434 1.52412 33.3815L0.910723 55.0352C0.845699 57.3372 1.68881 59.4312 3.34889 61.0911L12.7742 70.5166V72.0043L11.3738 72.0163C10.6393 72.0225 9.95 72.3155 9.43327 72.8414C8.91639 73.3673 8.63519 74.0614 8.64149 74.7959L8.66967 78.0726C8.67597 78.8071 8.96897 79.4962 9.49483 80.0131C10.0149 80.5243 10.6994 80.805 11.4251 80.805C11.4331 80.805 11.4413 80.805 11.4492 80.8049L28.4713 80.6586C29.2058 80.6523 29.895 80.3593 30.4118 79.8335C30.9286 79.3076 31.2098 78.6134 31.2035 77.879L31.1754 74.6022C31.1692 73.8678 30.8759 73.1785 30.35 72.6616ZM15.2933 69.9945C15.2933 69.6604 15.1606 69.3402 14.9244 69.104L5.13004 59.3097C3.95551 58.1353 3.38305 56.7211 3.42871 55.1064L4.04211 33.4526C4.06462 32.6569 5.09194 31.8329 6.02794 31.8466C7.43327 31.8691 8.29905 33.8198 8.28724 36.9372L8.24237 48.6999C8.23529 50.5906 8.84491 52.2645 10.1084 53.8201L10.917 54.8101C10.9225 54.8169 10.9443 54.8424 10.9499 54.8488C12.027 56.064 13.1264 57.128 14.2905 58.2545C14.8183 58.7652 15.3637 59.2931 15.9072 59.8365C16.1531 60.0824 16.4754 60.2055 16.7978 60.2055C17.1201 60.2055 17.4426 60.0825 17.6883 59.8366C18.1803 59.3448 18.1803 58.5473 17.6885 58.0555C17.1305 57.4975 16.5772 56.962 16.0424 56.4443C14.9282 55.366 13.8752 54.3464 12.8737 53.2207C12.2402 52.3615 12.2408 51.6023 12.8791 50.9642C13.4791 50.3644 14.4441 50.367 15.1513 50.9601C17.1729 53.3341 19.565 55.3501 21.4912 56.9734C22.1592 57.5365 22.7363 58.0227 23.2146 58.4539C24.3442 59.472 24.8038 60.9338 24.8007 63.4994L24.7906 71.901L15.2935 71.9826L15.2933 69.9945ZM28.6153 78.0676C28.5834 78.1002 28.5286 78.1391 28.4497 78.1397L11.4276 78.2859C11.3471 78.2861 11.2931 78.2488 11.2607 78.2167C11.2281 78.1847 11.1892 78.1301 11.1886 78.0509L11.1604 74.7742C11.1596 74.6951 11.1976 74.6397 11.2295 74.6073C11.2615 74.5749 11.3163 74.5358 11.3952 74.5352L28.4171 74.3889H28.4195C28.4973 74.3889 28.552 74.4265 28.5842 74.4582C28.6168 74.4901 28.6556 74.5449 28.6563 74.624L28.6845 77.9007C28.6852 77.9797 28.6473 78.035 28.6153 78.0676ZM27.4448 75.9048C27.6526 76.4273 27.3974 77.0193 26.8748 77.2271C26.3523 77.435 25.7601 77.1797 25.5524 76.6572C25.3446 76.1346 25.5998 75.5427 26.1224 75.3348C26.6449 75.127 27.2369 75.3822 27.4448 75.9048Z" fill="#5D56F1"/>
</svg>
