<svg width="63" height="61" viewBox="0 0 63 61" fill="none" xmlns="http://www.w3.org/2000/svg">
<path d="M7.49375 10.3482C7.49375 8.13859 9.29242 6.34043 11.5031 6.34043C13.7158 6.34043 15.5159 8.13871 15.5159 10.3482C15.5159 12.5577 13.7158 14.356 11.5031 14.356C9.29242 14.356 7.49375 12.5578 7.49375 10.3482ZM9.67351 10.3482C9.67351 11.3565 10.4942 12.1763 11.5031 12.1763C12.5135 12.1763 13.3363 11.3569 13.3363 10.3483C13.3363 9.33974 12.5136 8.52019 11.5031 8.52019C10.4942 8.52019 9.67351 9.33991 9.67351 10.3482Z" fill="#5D56F1" stroke="#F7F8FD" stroke-width="0.3"/>
<path d="M36.8762 6.34043H47.8714C50.0821 6.34043 51.8808 8.13859 51.8808 10.3482C51.8808 12.5578 50.0821 14.356 47.8714 14.356H36.8762C34.6655 14.356 32.8668 12.5578 32.8668 10.3482C32.8668 8.13859 34.6655 6.34043 36.8762 6.34043ZM36.8762 12.1763H47.8714C48.8803 12.1763 49.701 11.3565 49.701 10.3482C49.701 9.33993 48.8803 8.52007 47.8714 8.52007H36.8762C35.8674 8.52007 35.0466 9.33992 35.0466 10.3482C35.0466 11.3565 35.8673 12.1763 36.8762 12.1763Z" fill="#15161B" stroke="#F7F8FD" stroke-width="0.3"/>
<path d="M18.273 10.3482C18.273 8.13859 20.0717 6.34043 22.2824 6.34043C24.4951 6.34043 26.2952 8.13871 26.2952 10.3482C26.2952 12.5577 24.4951 14.356 22.2824 14.356C20.0717 14.356 18.273 12.5578 18.273 10.3482ZM20.4528 10.3482C20.4528 11.3565 21.2735 12.1763 22.2824 12.1763C23.2929 12.1763 24.1156 11.3568 24.1156 10.3482C24.1156 9.33962 23.2929 8.52007 22.2824 8.52007C21.2737 8.52007 20.4528 9.33992 20.4528 10.3482Z" fill="#15161B" stroke="#F7F8FD" stroke-width="0.3"/>
<path d="M20.2265 26.8902L20.2266 26.8902C20.8121 27.0302 21.1732 27.6181 21.0333 28.2035L21.0333 28.2035L18.5735 38.4966L18.7194 38.5315L18.5735 38.4966C18.4541 38.9967 18.0073 39.3335 17.5147 39.3335C17.431 39.3335 17.3457 39.3236 17.2602 39.3032C16.6748 39.1634 16.3137 38.5754 16.4536 37.9899L18.9133 27.6969L18.9133 27.6968C19.0531 27.1113 19.6414 26.75 20.2265 26.8902Z" fill="#15161B" stroke="#F7F8FD" stroke-width="0.3"/>
<path d="M24.9135 38.1281L24.9135 38.1281C24.464 37.7278 24.4242 37.0388 24.8246 36.5892L27.8463 33.197L27.9352 33.0972L27.8463 32.9975L24.8245 29.6054L24.8245 29.6054C24.4241 29.156 24.4639 28.4671 24.9135 28.0666L24.9135 28.0666C25.3628 27.6664 26.0517 27.706 26.4523 28.1556C26.4523 28.1556 26.4523 28.1556 26.4523 28.1556L29.9327 32.0626L29.9332 32.063C30.4518 32.6403 30.4522 33.5539 29.9296 34.1357L29.9292 34.1362L26.4524 38.0391C26.4524 38.0391 26.4524 38.0391 26.4524 38.0391C26.237 38.2809 25.9384 38.4041 25.638 38.4041C25.38 38.4041 25.1213 38.3132 24.9135 38.1281Z" fill="#15161B" stroke="#F7F8FD" stroke-width="0.3"/>
<path d="M12.5722 28.0666L12.5722 28.0666C13.0217 28.4669 13.0616 29.1559 12.6613 29.6055L9.63963 32.9977L9.55075 33.0975L9.63963 33.1972L12.6614 36.5893L12.6614 36.5893C13.0618 37.0386 13.022 37.7276 12.5724 38.128L12.5724 38.1281C12.3647 38.3131 12.1059 38.4041 11.8479 38.4041C11.5473 38.4041 11.2489 38.2809 11.0335 38.0391L11.0335 38.0391L7.55305 34.1321L7.55257 34.1316C7.0336 33.5546 7.03316 32.6406 7.55651 32.0586L7.55698 32.0581L11.0333 28.1556C11.4338 27.7063 12.1226 27.6662 12.5722 28.0666Z" fill="#15161B" stroke="#F7F8FD" stroke-width="0.3"/>
<mask id="path-7-inside-1_9950_348" fill="white">
<path d="M60.1703 41.1404H59.71C59.4689 40.3595 59.1564 39.6055 58.7753 38.8851L59.1038 38.5554C59.6284 38.034 59.918 37.3377 59.9191 36.5949C59.9202 35.8503 59.6316 35.1512 59.1064 34.6261L58.4663 33.9864V7.57688C58.4663 3.87869 55.8566 0.870117 52.6486 0.870117H5.81772C2.60972 0.870117 0 3.87869 0 7.57688V42.2305C0 45.9287 2.60972 48.9373 5.81772 48.9373H13.0921C13.7768 48.9373 14.332 48.3822 14.332 47.6974C14.332 47.0127 13.7768 46.4576 13.0921 46.4576H5.81772C4.00839 46.4576 2.47976 44.5218 2.47976 42.2306V19.7366H55.9864V32.2657C55.8452 32.244 55.7021 32.2297 55.5564 32.2297C55.5549 32.2297 55.5534 32.2297 55.5521 32.2297C54.8092 32.2309 54.1129 32.5201 53.5956 33.0403L53.2604 33.374C52.5248 32.9853 51.7587 32.6692 50.9688 32.4279V31.9862C50.9688 30.4538 49.7218 29.2072 48.189 29.2072H45.9453C44.4145 29.2072 43.1691 30.4538 43.1691 31.9862V32.4581C42.394 32.7017 41.6456 33.0151 40.9303 33.3957L40.6092 33.0756C40.0876 32.5514 39.3912 32.262 38.6484 32.2609C38.647 32.2609 38.6457 32.2609 38.6442 32.2609C37.9012 32.2609 37.2036 32.5492 36.6795 33.073L35.0943 34.6574C34.569 35.1824 34.2805 35.8817 34.2816 36.6261C34.2827 37.369 34.5721 38.0652 35.0928 38.5826L35.4352 38.926C35.0635 39.6354 34.7583 40.3755 34.5221 41.1402H34.0512C32.5202 41.1402 31.2749 42.3852 31.2749 43.9157V46.1616C31.2749 46.2614 31.2804 46.36 31.2907 46.4571H24.0767C23.392 46.4571 22.8368 47.0123 22.8368 47.697C22.8368 48.3817 23.392 48.9368 24.0767 48.9368H34.0511H34.5267C34.7665 49.7088 35.0765 50.4547 35.4545 51.1688L35.1195 51.5024C34.0409 52.5868 34.0418 54.3473 35.1221 55.4267L36.7081 57.0121C37.2297 57.5362 37.926 57.8256 38.6689 57.8267H38.673C39.4161 57.8267 40.1137 57.5384 40.6378 57.0145L40.9699 56.6827C41.6904 57.0625 42.4395 57.3728 43.2107 57.6112V58.0911C43.2107 59.6235 44.456 60.8701 45.987 60.8701H48.2341C49.765 60.8701 51.0103 59.6235 51.0103 58.0911V57.6142C51.7887 57.3741 52.5409 57.0625 53.2605 56.6826L53.5911 57.012C54.1126 57.5362 54.8088 57.8255 55.5517 57.8267H55.556C56.299 57.8267 56.9966 57.5384 57.5217 57.0137L59.1035 55.4292C59.6281 54.9078 59.9176 54.2116 59.9187 53.4687C59.9198 52.7241 59.6313 52.025 59.1059 51.4999L58.7751 51.1692C59.1524 50.4545 59.4621 49.708 59.7015 48.9369H60.17C61.7028 48.9369 62.9498 47.6919 62.9498 46.1616V43.9157C62.95 42.3854 61.7031 41.1404 60.1703 41.1404ZM2.47976 17.2568V7.57688C2.47976 5.28572 4.00839 3.34988 5.81772 3.34988H52.6486C54.4579 3.34988 55.9866 5.28572 55.9866 7.57688V17.2569L2.47976 17.2568ZM60.4703 46.1618C60.4703 46.3193 60.3301 46.4574 60.1702 46.4574H58.7523C58.1742 46.4574 57.6728 46.8568 57.5437 47.4203C57.2759 48.589 56.816 49.6972 56.1765 50.7146C55.8685 51.2046 55.9405 51.8424 56.3499 52.2515L57.3531 53.2541C57.4281 53.3291 57.4392 53.4186 57.4392 53.4654C57.4391 53.5212 57.4246 53.6022 57.3522 53.674L55.7681 55.2609C55.693 55.3359 55.6033 55.3472 55.5561 55.3472C55.556 55.3472 55.5559 55.3472 55.5559 55.3472C55.4996 55.3472 55.4183 55.3326 55.3456 55.2594L54.3387 54.2567C53.9291 53.8489 53.2925 53.7782 52.8035 54.0855C51.7846 54.7265 50.6717 55.1872 49.4955 55.4548C48.9312 55.5834 48.5308 56.085 48.5308 56.6639V58.0915C48.5308 58.2508 48.3922 58.3907 48.2344 58.3907H45.9872C45.8292 58.3907 45.6907 58.2509 45.6907 58.0915V56.6603C45.6907 56.081 45.2894 55.5787 44.7243 55.451C43.563 55.1884 42.4521 54.7284 41.4225 54.0842C41.2196 53.9572 40.9917 53.8952 40.7651 53.8952C40.4448 53.8952 40.1273 54.019 39.8882 54.2583L38.8851 55.2609C38.8099 55.3359 38.7203 55.3472 38.6731 55.3472C38.673 55.3472 38.6728 55.3472 38.6727 55.3472C38.6165 55.3472 38.5351 55.3326 38.464 55.261L36.8753 53.6732C36.7641 53.562 36.7653 53.365 36.8738 53.2559L37.8807 52.2531C38.2921 51.8434 38.364 51.2033 38.054 50.7125C37.4136 49.6984 36.953 48.5909 36.685 47.4207C36.5559 46.8572 36.0545 46.4576 35.4763 46.4576H34.0513C33.8906 46.4576 33.7547 46.3223 33.7547 46.1621V43.9161C33.7547 43.7559 33.8906 43.6204 34.0513 43.6204H35.4727C36.0514 43.6204 36.5533 43.22 36.6818 42.6558C36.9464 41.4931 37.4011 40.3901 38.0331 39.3772C38.3383 38.8883 38.2662 38.2535 37.8592 37.8453L36.8448 36.828C36.776 36.7596 36.7615 36.6786 36.7613 36.6228C36.7613 36.5761 36.7724 36.4866 36.8474 36.4117L38.4325 34.8274C38.5076 34.7524 38.5972 34.7411 38.6444 34.7411H38.6448C38.701 34.7412 38.7824 34.7557 38.8551 34.8288L39.8549 35.8247C40.2657 36.2338 40.9046 36.3039 41.3937 35.9935C42.4068 35.3512 43.5164 34.886 44.6916 34.611C45.2522 34.4798 45.6487 33.9796 45.6487 33.4037V31.9866C45.6487 31.8244 45.7845 31.6874 45.9452 31.6874H48.1889C48.3515 31.6874 48.489 31.8244 48.489 31.9866V33.3828C48.489 33.9638 48.8923 34.4668 49.4594 34.593C50.6391 34.8558 51.7646 35.3198 52.8046 35.9723C53.2934 36.2787 53.9294 36.2078 54.3386 35.8004L55.3496 34.7934C55.4182 34.7245 55.4994 34.7099 55.5556 34.7098H55.556C55.6032 34.7098 55.6928 34.7211 55.7678 34.7961L57.353 36.3803C57.428 36.4553 57.4391 36.5448 57.4391 36.5916C57.439 36.6474 57.4245 36.7284 57.3515 36.8008L56.3482 37.8072C55.9396 38.2169 55.8688 38.8548 56.1775 39.3442C56.8194 40.3618 57.2812 41.4762 57.5502 42.6563C57.6788 43.2204 58.1805 43.6206 58.7592 43.6206H60.1702C60.33 43.6206 60.4703 43.7589 60.4703 43.9163V46.1618Z"/>
</mask>
<path d="M60.1703 41.1404H59.71C59.4689 40.3595 59.1564 39.6055 58.7753 38.8851L59.1038 38.5554C59.6284 38.034 59.918 37.3377 59.9191 36.5949C59.9202 35.8503 59.6316 35.1512 59.1064 34.6261L58.4663 33.9864V7.57688C58.4663 3.87869 55.8566 0.870117 52.6486 0.870117H5.81772C2.60972 0.870117 0 3.87869 0 7.57688V42.2305C0 45.9287 2.60972 48.9373 5.81772 48.9373H13.0921C13.7768 48.9373 14.332 48.3822 14.332 47.6974C14.332 47.0127 13.7768 46.4576 13.0921 46.4576H5.81772C4.00839 46.4576 2.47976 44.5218 2.47976 42.2306V19.7366H55.9864V32.2657C55.8452 32.244 55.7021 32.2297 55.5564 32.2297C55.5549 32.2297 55.5534 32.2297 55.5521 32.2297C54.8092 32.2309 54.1129 32.5201 53.5956 33.0403L53.2604 33.374C52.5248 32.9853 51.7587 32.6692 50.9688 32.4279V31.9862C50.9688 30.4538 49.7218 29.2072 48.189 29.2072H45.9453C44.4145 29.2072 43.1691 30.4538 43.1691 31.9862V32.4581C42.394 32.7017 41.6456 33.0151 40.9303 33.3957L40.6092 33.0756C40.0876 32.5514 39.3912 32.262 38.6484 32.2609C38.647 32.2609 38.6457 32.2609 38.6442 32.2609C37.9012 32.2609 37.2036 32.5492 36.6795 33.073L35.0943 34.6574C34.569 35.1824 34.2805 35.8817 34.2816 36.6261C34.2827 37.369 34.5721 38.0652 35.0928 38.5826L35.4352 38.926C35.0635 39.6354 34.7583 40.3755 34.5221 41.1402H34.0512C32.5202 41.1402 31.2749 42.3852 31.2749 43.9157V46.1616C31.2749 46.2614 31.2804 46.36 31.2907 46.4571H24.0767C23.392 46.4571 22.8368 47.0123 22.8368 47.697C22.8368 48.3817 23.392 48.9368 24.0767 48.9368H34.0511H34.5267C34.7665 49.7088 35.0765 50.4547 35.4545 51.1688L35.1195 51.5024C34.0409 52.5868 34.0418 54.3473 35.1221 55.4267L36.7081 57.0121C37.2297 57.5362 37.926 57.8256 38.6689 57.8267H38.673C39.4161 57.8267 40.1137 57.5384 40.6378 57.0145L40.9699 56.6827C41.6904 57.0625 42.4395 57.3728 43.2107 57.6112V58.0911C43.2107 59.6235 44.456 60.8701 45.987 60.8701H48.2341C49.765 60.8701 51.0103 59.6235 51.0103 58.0911V57.6142C51.7887 57.3741 52.5409 57.0625 53.2605 56.6826L53.5911 57.012C54.1126 57.5362 54.8088 57.8255 55.5517 57.8267H55.556C56.299 57.8267 56.9966 57.5384 57.5217 57.0137L59.1035 55.4292C59.6281 54.9078 59.9176 54.2116 59.9187 53.4687C59.9198 52.7241 59.6313 52.025 59.1059 51.4999L58.7751 51.1692C59.1524 50.4545 59.4621 49.708 59.7015 48.9369H60.17C61.7028 48.9369 62.9498 47.6919 62.9498 46.1616V43.9157C62.95 42.3854 61.7031 41.1404 60.1703 41.1404ZM2.47976 17.2568V7.57688C2.47976 5.28572 4.00839 3.34988 5.81772 3.34988H52.6486C54.4579 3.34988 55.9866 5.28572 55.9866 7.57688V17.2569L2.47976 17.2568ZM60.4703 46.1618C60.4703 46.3193 60.3301 46.4574 60.1702 46.4574H58.7523C58.1742 46.4574 57.6728 46.8568 57.5437 47.4203C57.2759 48.589 56.816 49.6972 56.1765 50.7146C55.8685 51.2046 55.9405 51.8424 56.3499 52.2515L57.3531 53.2541C57.4281 53.3291 57.4392 53.4186 57.4392 53.4654C57.4391 53.5212 57.4246 53.6022 57.3522 53.674L55.7681 55.2609C55.693 55.3359 55.6033 55.3472 55.5561 55.3472C55.556 55.3472 55.5559 55.3472 55.5559 55.3472C55.4996 55.3472 55.4183 55.3326 55.3456 55.2594L54.3387 54.2567C53.9291 53.8489 53.2925 53.7782 52.8035 54.0855C51.7846 54.7265 50.6717 55.1872 49.4955 55.4548C48.9312 55.5834 48.5308 56.085 48.5308 56.6639V58.0915C48.5308 58.2508 48.3922 58.3907 48.2344 58.3907H45.9872C45.8292 58.3907 45.6907 58.2509 45.6907 58.0915V56.6603C45.6907 56.081 45.2894 55.5787 44.7243 55.451C43.563 55.1884 42.4521 54.7284 41.4225 54.0842C41.2196 53.9572 40.9917 53.8952 40.7651 53.8952C40.4448 53.8952 40.1273 54.019 39.8882 54.2583L38.8851 55.2609C38.8099 55.3359 38.7203 55.3472 38.6731 55.3472C38.673 55.3472 38.6728 55.3472 38.6727 55.3472C38.6165 55.3472 38.5351 55.3326 38.464 55.261L36.8753 53.6732C36.7641 53.562 36.7653 53.365 36.8738 53.2559L37.8807 52.2531C38.2921 51.8434 38.364 51.2033 38.054 50.7125C37.4136 49.6984 36.953 48.5909 36.685 47.4207C36.5559 46.8572 36.0545 46.4576 35.4763 46.4576H34.0513C33.8906 46.4576 33.7547 46.3223 33.7547 46.1621V43.9161C33.7547 43.7559 33.8906 43.6204 34.0513 43.6204H35.4727C36.0514 43.6204 36.5533 43.22 36.6818 42.6558C36.9464 41.4931 37.4011 40.3901 38.0331 39.3772C38.3383 38.8883 38.2662 38.2535 37.8592 37.8453L36.8448 36.828C36.776 36.7596 36.7615 36.6786 36.7613 36.6228C36.7613 36.5761 36.7724 36.4866 36.8474 36.4117L38.4325 34.8274C38.5076 34.7524 38.5972 34.7411 38.6444 34.7411H38.6448C38.701 34.7412 38.7824 34.7557 38.8551 34.8288L39.8549 35.8247C40.2657 36.2338 40.9046 36.3039 41.3937 35.9935C42.4068 35.3512 43.5164 34.886 44.6916 34.611C45.2522 34.4798 45.6487 33.9796 45.6487 33.4037V31.9866C45.6487 31.8244 45.7845 31.6874 45.9452 31.6874H48.1889C48.3515 31.6874 48.489 31.8244 48.489 31.9866V33.3828C48.489 33.9638 48.8923 34.4668 49.4594 34.593C50.6391 34.8558 51.7646 35.3198 52.8046 35.9723C53.2934 36.2787 53.9294 36.2078 54.3386 35.8004L55.3496 34.7934C55.4182 34.7245 55.4994 34.7099 55.5556 34.7098H55.556C55.6032 34.7098 55.6928 34.7211 55.7678 34.7961L57.353 36.3803C57.428 36.4553 57.4391 36.5448 57.4391 36.5916C57.439 36.6474 57.4245 36.7284 57.3515 36.8008L56.3482 37.8072C55.9396 38.2169 55.8688 38.8548 56.1775 39.3442C56.8194 40.3618 57.2812 41.4762 57.5502 42.6563C57.6788 43.2204 58.1805 43.6206 58.7592 43.6206H60.1702C60.33 43.6206 60.4703 43.7589 60.4703 43.9163V46.1618Z" fill="#5D56F1" stroke="#F7F8FD" stroke-width="0.6" mask="url(#path-7-inside-1_9950_348)"/>
<path d="M39.6852 45.0406C39.6852 40.9473 43.017 37.6168 47.1123 37.6168C51.2056 37.6168 54.536 40.9473 54.536 45.0406C54.536 49.1321 51.2057 52.461 47.1123 52.461C43.0169 52.461 39.6852 49.1319 39.6852 45.0406ZM41.8649 45.0406C41.8649 47.9306 44.219 50.2812 47.1123 50.2812C50.0037 50.2812 52.3562 47.9305 52.3562 45.0406C52.3562 42.1489 50.0039 39.7966 47.1123 39.7966C44.2189 39.7966 41.8649 42.1488 41.8649 45.0406Z" fill="#15161B" stroke="#F7F8FD" stroke-width="0.3"/>
<path d="M18.5972 46.607H18.6216C19.2234 46.607 19.7114 47.095 19.7114 47.6969C19.7114 48.2987 19.2234 48.7867 18.6216 48.7867H18.5972C17.9954 48.7867 17.5074 48.2987 17.5074 47.6969C17.5074 47.095 17.9954 46.607 18.5972 46.607Z" fill="#15161B" stroke="#F7F8FD" stroke-width="0.3"/>
</svg>
