<svg width="59" height="58" viewBox="0 0 59 58" fill="none" xmlns="http://www.w3.org/2000/svg">
<path d="M9.10986 10.4997L10.9788 14.3629L15.2183 14.9399C16.0586 15.0528 16.3597 16.0938 15.7827 16.6457L12.6846 19.6184L13.4497 23.8328C13.6002 24.6606 12.7222 25.2878 11.9947 24.8864L8.21931 22.8545L4.44389 24.8864C3.7164 25.2752 2.80077 24.6732 3.00145 23.7701L3.75403 19.6058L0.655926 16.6332C0.0538654 16.0562 0.379982 15.0277 1.2329 14.9148L5.45987 14.3378L7.32876 10.4746C7.67997 9.73456 8.75866 9.74711 9.10986 10.4997ZM9.41089 15.7175L8.21931 13.234L7.01519 15.7175C6.87722 16.006 6.58873 16.2318 6.25007 16.282L3.52826 16.6457L5.52258 18.5522C5.74835 18.778 5.87378 19.1041 5.81107 19.4428L5.32189 22.1521L7.73014 20.8601C8.01862 20.7096 8.38237 20.6845 8.6834 20.8601L11.1042 22.1646L10.6276 19.5055C10.5523 19.1794 10.6401 18.8156 10.9035 18.5522L12.8978 16.6457L10.2011 16.282C9.87498 16.2443 9.56141 16.0311 9.41089 15.7175ZM30.4579 1.40606L32.3268 5.26928L36.5789 5.84626C37.4192 5.95914 37.7203 7.0002 37.1433 7.56464L34.0452 10.5373L34.8103 14.7517C34.9608 15.5796 34.0828 16.2067 33.3553 15.8053L29.5548 13.7734L25.7794 15.8053C25.0519 16.1942 24.1363 15.5921 24.337 14.689L25.0895 10.5248L21.9789 7.55209C21.3768 6.97512 21.703 5.9466 22.5559 5.83371L26.7828 5.25674L28.6517 1.40606C29.028 0.640941 30.0942 0.653483 30.4579 1.40606ZM30.759 6.62392L29.5548 4.14042L28.3633 6.62392C28.2253 6.9124 27.9368 7.13818 27.5981 7.18835L24.8638 7.55209L26.8581 9.45862C27.0964 9.68439 27.2093 10.0105 27.1466 10.3492L26.6574 13.0584L29.0782 11.7665C29.3667 11.616 29.7179 11.5909 30.0315 11.7665L32.4522 13.071L31.9756 10.4119C31.9004 10.0858 31.9882 9.72202 32.2516 9.45862L34.2459 7.55209L31.5492 7.17581C31.2105 7.15072 30.9095 6.93749 30.759 6.62392ZM51.7934 10.4997L53.6623 14.3629L57.9018 14.9399C58.7422 15.0528 59.0558 16.0938 58.4663 16.6457L55.3682 19.6184L56.1333 23.8328C56.2838 24.6606 55.4058 25.2878 54.6783 24.8864L50.9029 22.8545L47.1275 24.8864C46.4 25.2752 45.4843 24.6732 45.6725 23.7701L46.4251 19.6058L43.327 16.6332C42.7249 16.0562 43.051 15.0277 43.9039 14.9148L48.1309 14.3378L49.9998 10.4746C50.3635 9.73456 51.4422 9.74711 51.7934 10.4997ZM52.0945 15.7175L50.9029 13.234L49.6988 15.7175C49.5608 16.006 49.2849 16.2318 48.9337 16.282L46.2118 16.6457L48.1936 18.5522C48.4194 18.778 48.5448 19.1041 48.4821 19.4428L47.9929 22.1521L50.4137 20.8601C50.7022 20.7096 51.066 20.6845 51.367 20.8601L53.8003 22.1646L53.3237 19.5055C53.2484 19.1794 53.3362 18.8156 53.5996 18.5522L55.5814 16.6457L52.8847 16.282C52.5586 16.2443 52.245 16.0311 52.0945 15.7175ZM24.9014 36.1123C24.6255 35.6357 24.7885 35.0211 25.2651 34.7452C25.7418 34.4692 26.3564 34.6323 26.6323 35.1089L27.9493 37.3917L32.6278 32.7132C33.0167 32.3244 33.6564 32.3244 34.0452 32.7132C34.434 33.102 34.434 33.7417 34.0452 34.1306L28.4385 39.7372C27.9744 40.2013 27.1968 40.101 26.8706 39.5366L24.9014 36.1123ZM29.5548 25.5136C35.011 25.5136 39.4387 29.9412 39.4387 35.3974C39.4387 40.8536 35.011 45.2812 29.5548 45.2812C24.0987 45.2812 19.671 40.8536 19.671 35.3974C19.671 29.9412 24.0987 25.5136 29.5548 25.5136ZM35.1239 29.8283C32.0509 26.7553 27.0588 26.7553 23.9858 29.8283C20.9128 32.9014 20.9128 37.8934 23.9858 40.9664C27.0588 44.0395 32.0509 44.0395 35.1239 40.9664C38.1969 37.8809 38.1969 32.9014 35.1239 29.8283ZM29.5548 19.3048C38.4352 19.3048 45.6349 26.5045 45.6349 35.3848C45.6349 38.7464 44.6063 41.8695 42.8378 44.4534L47.6417 52.7693C48.1058 53.547 47.4661 54.425 46.6383 54.2996L41.7215 53.5219L39.0875 56.758C38.6234 57.3601 37.7579 57.2597 37.4192 56.6577L34.0577 50.8377C31.1227 51.6907 27.9744 51.6907 25.0519 50.8377L21.6904 56.6577C21.3518 57.2597 20.4863 57.3601 20.0222 56.758L17.3882 53.5219L12.4714 54.2996C11.631 54.4376 11.0415 53.5219 11.4428 52.807L16.2719 44.4534C11.9069 38.069 12.7222 29.4771 18.1909 24.0084C21.0884 21.111 25.1146 19.3048 29.5548 19.3048ZM41.5082 46.1467C39.978 47.8525 38.0966 49.2197 35.9643 50.1479L38.4227 54.3999L40.5299 51.8161C40.7682 51.5151 41.132 51.4022 41.4832 51.4649L44.8697 52.0042L41.5082 46.1467ZM23.1329 50.1479C21.0131 49.2197 19.1317 47.8525 17.6014 46.1592L14.2274 52.0042L17.614 51.4649C17.9526 51.4022 18.3289 51.5276 18.5672 51.8161L20.6744 54.3999L23.1329 50.1479ZM39.5139 25.4383C34.0201 19.9445 25.1021 19.9445 19.6083 25.4383C14.1145 30.9321 14.1145 39.8501 19.6083 45.3439C25.1146 50.8377 34.0201 50.8377 39.5139 45.3439C45.0077 39.8501 45.0077 30.9321 39.5139 25.4383Z" fill="white"/>
</svg>
