<svg width="26" height="27" viewBox="0 0 26 27" fill="none" xmlns="http://www.w3.org/2000/svg">
<path d="M23.9137 17.9371C22.3219 17.9371 20.7589 17.6882 19.2778 17.1987C18.552 16.9511 17.6598 17.1782 17.2169 17.6332L14.2935 19.8401C10.9031 18.0303 8.81472 15.9426 7.02966 12.5777L9.17161 9.73039C9.7281 9.17464 9.92771 8.36282 9.68856 7.6011C9.197 6.11219 8.94729 4.54996 8.94729 2.95746C8.94736 1.80703 8.01143 0.871094 6.86107 0.871094H2.08629C0.93593 0.871094 0 1.80703 0 2.95739C0 16.1436 10.7275 26.8711 23.9137 26.8711C25.0641 26.8711 26 25.9352 26 24.7848V20.0233C25.9999 18.873 25.064 17.9371 23.9137 17.9371Z" fill="white"/>
</svg>
