<svg width="167" height="41" viewBox="0 0 167 41" fill="none" xmlns="http://www.w3.org/2000/svg">
<path d="M48.6885 28.6463H60.6405V25.0463H52.9365V11.4863H48.6885V28.6463Z" fill="#15161B"/>
<path d="M67.7219 26.2465C66.0179 26.2465 65.1299 24.7585 65.1299 22.5265C65.1299 20.2945 66.0179 18.7825 67.7219 18.7825C69.4259 18.7825 70.3379 20.2945 70.3379 22.5265C70.3379 24.7585 69.4259 26.2465 67.7219 26.2465ZM67.7459 29.0305C71.7059 29.0305 74.2979 26.2225 74.2979 22.5265C74.2979 18.8305 71.7059 16.0225 67.7459 16.0225C63.8099 16.0225 61.1699 18.8305 61.1699 22.5265C61.1699 26.2225 63.8099 29.0305 67.7459 29.0305Z" fill="#15161B"/>
<path d="M81.1517 32.894C82.9757 32.894 84.5837 32.486 85.6637 31.526C86.6477 30.638 87.2957 29.294 87.2957 27.446V16.358H83.5517V17.678H83.5037C82.7837 16.646 81.6797 15.998 80.0477 15.998C76.9997 15.998 74.8877 18.542 74.8877 22.142C74.8877 25.91 77.4557 27.974 80.2157 27.974C81.7037 27.974 82.6397 27.374 83.3597 26.558H83.4557V27.782C83.4557 29.27 82.7597 30.134 81.1037 30.134C79.8077 30.134 79.1597 29.582 78.9437 28.934H75.1517C75.5357 31.502 77.7677 32.894 81.1517 32.894ZM81.1277 25.07C79.6637 25.07 78.7037 23.87 78.7037 22.022C78.7037 20.15 79.6637 18.95 81.1277 18.95C82.7597 18.95 83.6237 20.342 83.6237 21.998C83.6237 23.726 82.8317 25.07 81.1277 25.07Z" fill="#15161B"/>
<path d="M94.9944 26.2465C93.2904 26.2465 92.4024 24.7585 92.4024 22.5265C92.4024 20.2945 93.2904 18.7825 94.9944 18.7825C96.6984 18.7825 97.6104 20.2945 97.6104 22.5265C97.6104 24.7585 96.6984 26.2465 94.9944 26.2465ZM95.0184 29.0305C98.9784 29.0305 101.571 26.2225 101.571 22.5265C101.571 18.8305 98.9784 16.0225 95.0184 16.0225C91.0824 16.0225 88.4424 18.8305 88.4424 22.5265C88.4424 26.2225 91.0824 29.0305 95.0184 29.0305Z" fill="#15161B"/>
<path d="M102.713 28.6463H106.625V16.3583H102.713V28.6463ZM102.713 14.6543H106.625V11.4863H102.713V14.6543Z" fill="#15161B"/>
<path d="M108.321 32.702H112.233V27.374H112.281C113.049 28.406 114.177 29.03 115.761 29.03C118.977 29.03 121.113 26.486 121.113 22.502C121.113 18.806 119.121 15.998 115.857 15.998C114.177 15.998 112.977 16.742 112.137 17.846H112.065V16.358H108.321V32.702ZM114.753 26.006C113.073 26.006 112.113 24.638 112.113 22.646C112.113 20.654 112.977 19.142 114.681 19.142C116.361 19.142 117.153 20.534 117.153 22.646C117.153 24.734 116.241 26.006 114.753 26.006Z" fill="#15161B"/>
<path d="M127.484 29.03C130.7 29.03 133.076 27.638 133.076 24.95C133.076 21.806 130.532 21.254 128.372 20.894C126.812 20.606 125.42 20.486 125.42 19.622C125.42 18.854 126.164 18.494 127.124 18.494C128.204 18.494 128.948 18.83 129.092 19.934H132.692C132.5 17.51 130.628 15.998 127.148 15.998C124.244 15.998 121.844 17.342 121.844 19.934C121.844 22.814 124.124 23.39 126.26 23.75C127.892 24.038 129.38 24.158 129.38 25.262C129.38 26.054 128.636 26.486 127.46 26.486C126.164 26.486 125.348 25.886 125.204 24.662H121.508C121.628 27.374 123.884 29.03 127.484 29.03Z" fill="#15161B"/>
<path d="M138.388 29.0064C140.092 29.0064 141.172 28.3344 142.06 27.1344H142.132V28.6464H145.876V16.3584H141.964V23.2224C141.964 24.6864 141.148 25.6944 139.804 25.6944C138.556 25.6944 137.956 24.9504 137.956 23.6064V16.3584H134.068V24.4224C134.068 27.1584 135.556 29.0064 138.388 29.0064Z" fill="#15161B"/>
<path d="M147.579 28.646H151.491V21.758C151.491 20.294 152.211 19.262 153.435 19.262C154.611 19.262 155.163 20.03 155.163 21.35V28.646H159.075V21.758C159.075 20.294 159.771 19.262 161.019 19.262C162.195 19.262 162.747 20.03 162.747 21.35V28.646H166.659V20.654C166.659 17.894 165.267 15.998 162.483 15.998C160.899 15.998 159.579 16.67 158.619 18.158H158.571C157.947 16.838 156.723 15.998 155.115 15.998C153.339 15.998 152.163 16.838 151.395 18.11H151.323V16.358H147.579V28.646Z" fill="#15161B"/>
<path fill-rule="evenodd" clip-rule="evenodd" d="M8.71191 3.74435C7.28125 4.74471 5.98755 5.92746 4.8645 7.25888C9.4538 6.83281 15.2843 7.52853 22.0535 10.9132C29.2821 14.5274 35.1029 14.6496 39.1539 13.8682C38.7863 12.7553 38.3235 11.6857 37.7754 10.6689C33.1381 11.158 27.1931 10.5106 20.2647 7.04646C15.8651 4.84666 11.9869 3.94049 8.71191 3.74435ZM35.0665 6.81313C31.4044 2.72148 26.0825 0.146484 20.1591 0.146484C18.4196 0.146484 16.7318 0.368591 15.1228 0.785964C17.302 1.38057 19.617 2.25047 22.0535 3.46875C27.1261 6.00501 31.5055 6.82164 35.0665 6.81313ZM40.02 17.7746C35.126 18.741 28.3679 18.5425 20.2647 14.4909C12.6891 10.7031 6.65961 10.7508 2.59308 11.6545C2.38318 11.7011 2.17822 11.7501 1.97821 11.8011C1.4458 12.959 1.02081 14.1766 0.715882 15.441C1.04157 15.354 1.37811 15.2713 1.72534 15.1941C6.65875 14.0978 13.6292 14.1454 22.0535 18.3576C29.6292 22.1454 35.6587 22.0977 39.7253 21.194C39.8646 21.1631 40.0019 21.1311 40.1369 21.0981C40.1517 20.7828 40.1591 20.4655 40.1591 20.1465C40.1591 19.344 40.1119 18.5525 40.02 17.7746ZM39.4839 25.3188C34.6374 26.1661 28.0761 25.8409 20.2647 21.9353C12.6891 18.1475 6.65961 18.1952 2.59308 19.0989C1.69043 19.2994 0.878419 19.5437 0.16211 19.8016C0.160157 19.9163 0.15918 20.0313 0.15918 20.1465C0.15918 31.1922 9.11347 40.1465 20.1591 40.1465C29.4162 40.1465 37.2044 33.8574 39.4839 25.3188Z" fill="#5D56F1"/>
</svg>
