<svg width="56" height="51" viewBox="0 0 56 51" fill="none" xmlns="http://www.w3.org/2000/svg">
<path d="M45.019 22.0724C44.6002 21.9198 44.1384 22.1359 43.9863 22.5538L42.5214 26.5786L41.0565 22.5538C40.9407 22.2355 40.6381 22.0238 40.2994 22.0238C39.9607 22.0238 39.6581 22.2357 39.5423 22.5538L38.0774 26.5786L36.6125 22.5538C36.4604 22.1358 35.9981 21.9205 35.5799 22.0724C35.1618 22.2246 34.9462 22.6869 35.0984 23.105L37.3204 29.2098C37.4362 29.528 37.7388 29.7399 38.0775 29.7399C38.4162 29.7399 38.7188 29.528 38.8346 29.2098L40.2995 25.185L41.7644 29.2098C41.8802 29.528 42.1828 29.7399 42.5215 29.7399C42.8602 29.7399 43.1628 29.528 43.2786 29.2098L45.5006 23.105C45.6526 22.6869 45.4369 22.2246 45.019 22.0724ZM33.0684 22.0724C32.6497 21.9198 32.1878 22.1359 32.0357 22.5538L30.5708 26.5786L29.1059 22.5538C28.9901 22.2355 28.6875 22.0238 28.3488 22.0238C28.0101 22.0238 27.7076 22.2357 27.5917 22.5538L26.1268 26.5786L24.662 22.5538C24.5098 22.1356 24.0472 21.9203 23.6294 22.0724C23.2112 22.2246 22.9957 22.6869 23.1478 23.105L25.3697 29.2098C25.4856 29.528 25.7881 29.7399 26.1268 29.7399C26.4655 29.7399 26.768 29.528 26.8839 29.2098L28.3488 25.1851L29.8137 29.2099C29.9295 29.5282 30.2321 29.74 30.5708 29.74C30.9095 29.74 31.2121 29.5282 31.3279 29.2099L33.5499 23.1051C33.702 22.6869 33.4863 22.2246 33.0684 22.0724ZM21.1177 22.0724C20.6995 21.9204 20.2372 22.1359 20.085 22.5538L18.6202 26.5786L17.1553 22.5538C17.0394 22.2355 16.7369 22.0238 16.3982 22.0238C16.0595 22.0238 15.757 22.2357 15.6411 22.5538L14.1762 26.5786L12.7114 22.5538C12.5592 22.1356 12.0968 21.9203 11.6788 22.0724C11.2606 22.2246 11.0451 22.6869 11.1972 23.105L13.4191 29.2098C13.535 29.528 13.8375 29.7399 14.1762 29.7399C14.5149 29.7399 14.8174 29.528 14.9333 29.2098L16.3982 25.185L17.8631 29.2098C17.979 29.528 18.2815 29.7399 18.6202 29.7399C18.9589 29.7399 19.2614 29.528 19.3773 29.2098L21.5992 23.105C21.7513 22.6869 21.5357 22.2246 21.1177 22.0724Z" fill="#15161B"/>
<path d="M52.2361 18.4873C51.3906 15.7584 50.066 13.1849 48.3515 10.8967C48.3145 10.8298 48.2684 10.7687 48.2147 10.7152C46.8786 8.96495 45.3131 7.38575 43.558 6.03848C39.1629 2.66503 33.904 0.881943 28.3497 0.881836H28.3494C24.2967 0.881836 20.2719 1.87408 16.7101 3.75127C16.3164 3.9587 16.1655 4.44596 16.373 4.83966C16.5805 5.23314 17.0679 5.38418 17.4613 5.17675C20.1595 3.75481 23.1425 2.87611 26.1937 2.59348C23.9707 4.81839 21.9268 7.53475 20.2269 10.4806H10.7542C11.8088 9.274 12.9874 8.17218 14.2734 7.20163C14.6285 6.93362 14.6991 6.42842 14.4311 6.07317C14.1629 5.71815 13.6581 5.64757 13.3026 5.91548C11.4782 7.29262 9.85601 8.91683 8.47812 10.7229C8.43236 10.7696 8.39272 10.8222 8.35931 10.879C6.63896 13.1704 5.31091 15.7491 4.46272 18.4873C2.44922 18.6137 0.849609 20.2911 0.849609 22.3359V29.4278C0.849609 31.4727 2.44922 33.1501 4.46272 33.2765C5.30812 36.0052 6.63273 38.5787 8.34706 40.8668C8.38412 40.9338 8.43031 40.9951 8.48424 41.0487C9.82034 42.7989 11.3857 44.378 13.1409 45.7252C17.5361 49.0986 22.795 50.8818 28.3494 50.8818C32.7989 50.8818 37.1682 49.6979 40.9849 47.4581C41.3686 47.2328 41.4971 46.7393 41.2721 46.3554C41.0467 45.9716 40.5531 45.8433 40.1694 46.0683C37.2188 47.7999 33.9144 48.8559 30.5061 49.1704C32.7285 46.9454 34.7723 44.2287 36.4722 41.2831H45.9549C45.1284 42.225 44.2227 43.1063 43.2415 43.9174C42.8986 44.2009 42.8503 44.7087 43.1339 45.0517C43.2931 45.2444 43.5233 45.3441 43.7552 45.3441C43.9361 45.3441 44.1179 45.2835 44.2681 45.1593C48.0535 42.0299 50.799 37.9313 52.2364 33.2765C54.2497 33.1499 55.8492 31.4727 55.8492 29.4279V22.336C55.8492 20.2911 54.2495 18.6137 52.2361 18.4873ZM47.2323 12.092C48.654 14.0375 49.7769 16.1961 50.5405 18.4788H40.0071C39.3355 16.3215 38.4344 14.1641 37.3567 12.092H47.2323ZM42.5767 7.3169C43.8033 8.25844 44.9308 9.32105 45.9441 10.4807H36.472C34.7715 7.53367 32.7266 4.81645 30.5027 2.59112C34.9003 2.98793 39.0381 4.60075 42.5767 7.3169ZM28.3494 2.7617C30.6611 4.8548 32.8089 7.52948 34.6037 10.4807H22.095C23.8898 7.52948 26.0376 4.8548 28.3494 2.7617ZM21.1653 12.092H35.5335C36.6584 14.1504 37.6052 16.3105 38.3153 18.4788H18.3835C19.0936 16.3105 20.0404 14.1504 21.1653 12.092ZM9.46596 12.092H19.342C18.2643 14.1641 17.3632 16.3214 16.6916 18.4788H6.15825C6.92212 16.1944 8.04457 14.0367 9.46596 12.092ZM9.4665 39.6719C8.04478 37.7264 6.92191 35.5677 6.15836 33.2851H16.6919C17.3635 35.4424 18.2644 37.5998 19.3421 39.6719H9.4665ZM14.1221 44.447C12.8954 43.5054 11.768 42.4428 10.7547 41.2832H20.2268C21.9271 44.2298 23.9717 46.9473 26.1949 49.1727C21.7978 48.7756 17.6604 47.1629 14.1221 44.447ZM28.3494 49.0022C26.0376 46.9091 23.8898 44.2344 22.095 41.2831H34.6037C32.8089 44.2344 30.6611 46.9091 28.3494 49.0022ZM35.5335 39.6719H21.1653C20.0404 37.6135 19.0934 35.4533 18.3831 33.2851H38.3157C37.6054 35.4533 36.6584 37.6135 35.5335 39.6719ZM47.2477 39.6719H37.3567C38.4344 37.5998 39.3354 35.4425 40.007 33.2851H50.5414C49.776 35.5854 48.6656 37.7338 47.2477 39.6719ZM54.2379 29.4279C54.2379 30.6663 53.2304 31.6738 51.992 31.6738H51.6129C51.6124 31.6738 51.6118 31.6738 51.6111 31.6738H39.3976C39.3963 31.6738 39.395 31.6738 39.3937 31.6738H17.305C17.3037 31.6738 17.3024 31.6738 17.3011 31.6738H5.08737C5.08673 31.6738 5.08619 31.6738 5.08554 31.6738H4.70667C3.46843 31.6738 2.46093 30.6663 2.46093 29.4279V22.336C2.46093 21.0977 3.46843 20.0902 4.70678 20.0902H5.06331C5.06428 20.0902 5.06535 20.0904 5.06632 20.0904C5.06718 20.0904 5.06804 20.0902 5.06889 20.0902H17.3022H17.3044H39.4064C39.4072 20.0902 39.4081 20.0904 39.4089 20.0904C39.4099 20.0904 39.4109 20.0902 39.4119 20.0902H51.63C51.6309 20.0902 51.6317 20.0904 51.6326 20.0904C51.6336 20.0904 51.6346 20.0902 51.6356 20.0902H51.992C53.2304 20.0902 54.2379 21.0977 54.2379 22.336V29.4279Z" fill="#5D56F1"/>
</svg>
