<svg width="101" height="24" viewBox="0 0 101 24" fill="none" xmlns="http://www.w3.org/2000/svg">
<path d="M5.78735 23.3773L0.670898 6.60156L4.79507 6.63257L7.83393 16.6174L10.9193 6.63257H14.4233L17.5087 16.6174L20.5475 6.63257H24.6717L19.5553 23.3773H16.3303L12.6713 12.4622L9.01226 23.3773H5.78735Z" fill="white"/>
<path d="M33.6383 23.3772C31.9225 23.3772 30.4082 23.0102 29.0955 22.2764C27.7931 21.5321 26.7698 20.514 26.0256 19.222C25.2917 17.9196 24.9248 16.4312 24.9248 14.7567C24.9248 12.9272 25.2866 11.3354 26.0101 9.98136C26.7337 8.62731 27.7311 7.57818 29.0025 6.83397C30.2738 6.07942 31.7364 5.70215 33.3902 5.70215C35.1474 5.70215 36.641 6.1156 37.871 6.9425C39.101 7.7694 40.0106 8.93223 40.5998 10.431C41.1889 11.9297 41.3956 13.6921 41.2199 15.718H37.0492V14.1676C37.0492 12.4621 36.7753 11.2372 36.2275 10.493C35.69 9.73846 34.8063 9.36119 33.5763 9.36119C32.1395 9.36119 31.0801 9.80048 30.3979 10.6791C29.726 11.5473 29.3901 12.8342 29.3901 14.5397C29.3901 16.1004 29.726 17.3098 30.3979 18.1677C31.0801 19.0153 32.0775 19.439 33.3902 19.439C34.2171 19.439 34.9251 19.2582 35.5143 18.8964C36.1035 18.5346 36.5531 18.0126 36.8632 17.3304L41.0804 18.5398C40.4499 20.0696 39.4524 21.2582 38.088 22.1058C36.734 22.9534 35.2507 23.3772 33.6383 23.3772ZM28.0877 15.718V12.5861H39.1888V15.718H28.0877Z" fill="white"/>
<path d="M68.6009 23.3774C66.9367 23.3774 65.5465 22.9898 64.4302 22.2146C63.3139 21.4394 62.4715 20.3851 61.903 19.0517C61.3448 17.7183 61.0657 16.2144 61.0657 14.5399C61.0657 12.8654 61.3448 11.3615 61.903 10.0281C62.4611 8.69474 63.2829 7.64044 64.3682 6.86522C65.4535 6.09 66.792 5.70239 68.3838 5.70239C69.9859 5.70239 71.3813 6.08483 72.57 6.84971C73.7587 7.6146 74.6786 8.66373 75.3298 9.99711C75.9913 11.3201 76.3221 12.8344 76.3221 14.5399C76.3221 16.2144 75.9965 17.7183 75.3453 19.0517C74.7044 20.3851 73.8052 21.4394 72.6475 22.2146C71.4899 22.9898 70.141 23.3774 68.6009 23.3774ZM60.3525 22.9123V0.585938H64.6007V11.439H64.0736V22.9123H60.3525ZM67.9187 19.6253C68.8283 19.6253 69.5725 19.3979 70.1513 18.9431C70.7302 18.4883 71.1591 17.8785 71.4382 17.1136C71.7173 16.3384 71.8568 15.4805 71.8568 14.5399C71.8568 13.6096 71.7121 12.7621 71.4227 11.9972C71.1333 11.222 70.6836 10.6069 70.0738 10.1522C69.4743 9.68702 68.7042 9.45445 67.7636 9.45445C66.8851 9.45445 66.1719 9.66635 65.624 10.0901C65.0865 10.5139 64.6938 11.1083 64.4457 11.8731C64.1976 12.638 64.0736 13.5269 64.0736 14.5399C64.0736 15.5528 64.1976 16.4418 64.4457 17.2067C64.6938 17.9715 65.0969 18.5659 65.655 18.9897C66.2235 19.4134 66.9781 19.6253 67.9187 19.6253Z" fill="white"/>
<path d="M78.4609 4.30699V0.585938H82.6781V4.30699H78.4609ZM78.4609 23.3774V6.63265H82.6781V23.3774H78.4609Z" fill="white"/>
<path d="M83.833 23.3776L89.8177 14.9122L83.957 6.63281H88.9185L92.2674 11.5942L95.5543 6.63281H100.516L94.6551 14.9122L100.671 23.3776H95.7094L92.2674 18.2301L88.7944 23.3776H83.833Z" fill="white"/>
<path d="M49.9357 23.3772C51.6515 23.3772 53.1657 23.0102 54.4784 22.2764C55.7808 21.5321 56.8041 20.514 57.5483 19.222C58.2822 17.9196 58.6491 16.4312 58.6491 14.7567C58.6491 12.9272 58.2874 11.3354 57.5638 9.98136C56.8403 8.62731 55.8428 7.57818 54.5715 6.83397C53.3001 6.07942 51.8375 5.70215 50.1837 5.70215C48.4266 5.70215 46.933 6.1156 45.703 6.9425C44.4729 7.7694 43.5634 8.93223 42.9742 10.431C42.385 11.9297 42.1783 13.6921 42.354 15.718H46.5247V14.1676C46.5247 12.4621 46.7986 11.2372 47.3464 10.493C47.8839 9.73846 48.7677 9.36119 49.9977 9.36119C51.4344 9.36119 52.4939 9.80048 53.1761 10.6791C53.8479 11.5473 54.1839 12.8342 54.1839 14.5397C54.1839 16.1004 53.8479 17.3098 53.1761 18.1677C52.4939 19.0153 51.4964 19.439 50.1837 19.439C49.3568 19.439 48.6488 19.2582 48.0596 18.8964C47.4705 18.5346 47.0208 18.0126 46.7107 17.3304L42.4935 18.5398C43.1241 20.0696 44.1215 21.2582 45.4859 22.1058C46.8399 22.9534 48.3232 23.3772 49.9357 23.3772ZM55.4862 15.718V12.5861H44.3851V15.718H55.4862Z" fill="white"/>
</svg>
