<svg width="101" height="24" viewBox="0 0 101 24" fill="none" xmlns="http://www.w3.org/2000/svg">
<path d="M5.48755 23.3959L0.371094 6.62012L4.49526 6.65113L7.53413 16.636L10.6195 6.65113H14.1235L17.2089 16.636L20.2477 6.65113H24.3719L19.2555 23.3959H16.0305L12.3715 12.4808L8.71246 23.3959H5.48755Z" fill="#2C2E33"/>
<path d="M33.3385 23.3957C31.6227 23.3957 30.1084 23.0288 28.7957 22.2949C27.4933 21.5507 26.47 20.5326 25.7258 19.2405C24.9919 17.9382 24.625 16.4497 24.625 14.7753C24.625 12.9458 24.9868 11.354 25.7103 9.99992C26.4338 8.64587 27.4313 7.59673 28.7027 6.85252C29.974 6.09798 31.4366 5.7207 33.0904 5.7207C34.8476 5.7207 36.3412 6.13415 37.5712 6.96105C38.8012 7.78796 39.7108 8.95079 40.2999 10.4495C40.8891 11.9483 41.0958 13.7106 40.9201 15.7365H36.7494V14.1861C36.7494 12.4806 36.4755 11.2558 35.9277 10.5116C35.3902 9.75701 34.5065 9.37974 33.2765 9.37974C31.8397 9.37974 30.7802 9.81903 30.0981 10.6976C29.4262 11.5659 29.0903 12.8527 29.0903 14.5582C29.0903 16.119 29.4262 17.3283 30.0981 18.1862C30.7802 19.0338 31.7777 19.4576 33.0904 19.4576C33.9173 19.4576 34.6253 19.2767 35.2145 18.9149C35.8037 18.5532 36.2533 18.0312 36.5634 17.349L40.7806 18.5583C40.1501 20.0881 39.1526 21.2768 37.7882 22.1244C36.4342 22.9719 34.9509 23.3957 33.3385 23.3957ZM27.7879 15.7365V12.6047H38.889V15.7365H27.7879Z" fill="#5D56F1"/>
<path d="M68.3011 23.396C66.6369 23.396 65.2467 23.0083 64.1304 22.2331C63.0141 21.4579 62.1717 20.4036 61.6032 19.0702C61.045 17.7369 60.7659 16.2329 60.7659 14.5585C60.7659 12.884 61.045 11.38 61.6032 10.0467C62.1613 8.71329 62.9831 7.65899 64.0684 6.88377C65.1537 6.10855 66.4922 5.72094 68.084 5.72094C69.6861 5.72094 71.0815 6.10339 72.2702 6.86827C73.4589 7.63315 74.3788 8.68228 75.03 10.0157C75.6915 11.3387 76.0223 12.853 76.0223 14.5585C76.0223 16.2329 75.6967 17.7369 75.0455 19.0702C74.4046 20.4036 73.5054 21.4579 72.3477 22.2331C71.1901 23.0083 69.8412 23.396 68.3011 23.396ZM60.0527 22.9308V0.604492H64.3009V11.4576H63.7738V22.9308H60.0527ZM67.6189 19.6439C68.5285 19.6439 69.2727 19.4165 69.8515 18.9617C70.4303 18.5069 70.8593 17.8971 71.1384 17.1322C71.4175 16.357 71.557 15.4991 71.557 14.5585C71.557 13.6282 71.4123 12.7806 71.1229 12.0157C70.8335 11.2405 70.3838 10.6255 69.774 10.1707C69.1745 9.70557 68.4044 9.47301 67.4638 9.47301C66.5853 9.47301 65.8721 9.6849 65.3242 10.1087C64.7867 10.5325 64.394 11.1268 64.1459 11.8917C63.8978 12.6566 63.7738 13.5455 63.7738 14.5585C63.7738 15.5714 63.8978 16.4603 64.1459 17.2252C64.394 17.9901 64.7971 18.5844 65.3552 19.0082C65.9237 19.432 66.6783 19.6439 67.6189 19.6439Z" fill="#2C2E33"/>
<path d="M78.1621 4.32555V0.604492H82.3793V4.32555H78.1621ZM78.1621 23.396V6.65121H82.3793V23.396H78.1621Z" fill="#2C2E33"/>
<path d="M83.5332 23.3961L89.5179 14.9307L83.6572 6.65137H88.6186L91.9676 11.6128L95.2545 6.65137H100.216L94.3553 14.9307L100.371 23.3961H95.4096L91.9676 18.2487L88.4946 23.3961H83.5332Z" fill="#2C2E33"/>
<path d="M49.6363 23.3957C51.3522 23.3957 52.8664 23.0288 54.1791 22.2949C55.4815 21.5507 56.5048 20.5326 57.249 19.2405C57.9829 17.9382 58.3498 16.4497 58.3498 14.7753C58.3498 12.9458 57.988 11.354 57.2645 9.99992C56.541 8.64587 55.5435 7.59673 54.2722 6.85252C53.0008 6.09798 51.5382 5.7207 49.8844 5.7207C48.1272 5.7207 46.6337 6.13415 45.4036 6.96105C44.1736 7.78796 43.264 8.95079 42.6749 10.4495C42.0857 11.9483 41.879 13.7106 42.0547 15.7365H46.2254V14.1861C46.2254 12.4806 46.4993 11.2558 47.0471 10.5116C47.5846 9.75701 48.4683 9.37974 49.6984 9.37974C51.1351 9.37974 52.1946 9.81903 52.8768 10.6976C53.5486 11.5659 53.8845 12.8527 53.8845 14.5582C53.8845 16.119 53.5486 17.3283 52.8768 18.1862C52.1946 19.0338 51.1971 19.4576 49.8844 19.4576C49.0575 19.4576 48.3495 19.2767 47.7603 18.9149C47.1711 18.5532 46.7215 18.0312 46.4114 17.349L42.1942 18.5583C42.8247 20.0881 43.8222 21.2768 45.1866 22.1244C46.5406 22.9719 48.0239 23.3957 49.6363 23.3957ZM55.1869 15.7365V12.6047H44.0858V15.7365H55.1869Z" fill="#5D56F1"/>
</svg>
